<?xml version="1.0" encoding="UTF-8"?>

<svg width="600" height="170" version="1.1" viewBox="0 0 600 170" xml:space="preserve" xmlns="http://www.w3.org/2000/svg"><g transform="translate(218.76 -392.59)"><path d="m299.85 764.47c-1.1-0.3983-3.8643-1.7181-6.1428-2.933-2.2786-1.2148-5.9897-4.3617-8.2471-6.9931-2.2573-2.6314-4.9541-6.5844-5.9929-8.7844s-2.4003-7.3021-3.0257-11.338c-0.6253-4.036-0.8539-9.661-0.5079-12.5 0.3459-2.839 1.2846-7.1869 2.086-9.6619 0.8013-2.475 2.5363-6.3508 3.8554-8.6128 1.3192-2.2621 4.0033-5.5218 5.9646-7.2439 1.9613-1.722 5.3747-4.0537 7.5854-5.1815s6.8297-2.3889 10.264-2.8024 8.1429-0.5708 10.462-0.3496c3.2734 0.3121 5.3248 1.3977 9.1643 4.8498 2.7207 2.4462 7.1477 7.236 9.8376 10.644 2.69 3.4081 6.5345 8.6094 8.5435 11.559 3.3695 4.9467 3.6526 5.9208 3.6526 12.568 0 3.9635-0.7241 9.6505-1.6091 12.638-0.885 2.9874-2.7333 7.3535-4.1073 9.7025-1.374 2.3491-4.4015 5.8306-6.7278 7.7368s-6.2155 4.1848-8.6427 5.0634c-2.5079 0.9079-8.7302 1.7629-14.413 1.9805-5.5 0.2106-10.9 0.057-12-0.3412zm14.665-9.4605c1.3214-1.7875 2.9945-4.6 3.718-6.25s2.2008-5.7 3.2828-9c1.0821-3.3 2.2242-10.171 2.538-15.269 0.4709-7.6499 0.2912-9.5784-1.0286-11.037-0.8795-0.9719-2.2913-3.4236-3.1372-5.4483-0.846-2.0248-1.5382-5.7208-1.5382-8.2135 0-4.3174-0.1351-4.5321-2.854-4.5321-1.6177 0-3.9634 1.0282-5.4152 2.3737-1.4087 1.3056-3.4377 4.1181-4.5089 6.25-1.0713 2.132-2.6632 6.1263-3.5376 8.8763-0.8745 2.75-2.0616 8.5229-2.638 12.829-0.725 5.4158-0.7302 10.634-0.017 16.931 0.676 5.967 1.7377 10.246 3.0824 12.422 1.7408 2.8165 2.6267 3.319 5.8511 3.319 3.1274 0 4.2249-0.575 6.2023-3.25zm26.148-37.5c-0.9533-1.5125-3.6326-5.225-5.954-8.25s-6.0333-7.506-8.2485-9.9579c-2.2153-2.4518-4.2729-4.2128-4.5723-3.9134-0.2995 0.2995-0.2529 2.6724 0.1036 5.2731 0.3565 2.6008 1.9051 6.6118 3.4414 8.9134 1.9673 2.9473 4.6598 5.131 9.1052 7.3846 3.4715 1.7598 6.6597 3.2223 7.0849 3.25 0.4252 0.028-0.01-1.1873-0.9603-2.6998zm-102.81 41.86c-2.2-1.0154-5.0646-3.0025-6.3658-4.4158-1.4529-1.5781-2.5457-4.2336-2.8319-6.8819-0.2564-2.3717 0-6.1123 0.5616-8.3123 0.5652-2.2 2.8444-9.1812 5.065-15.514 3.0478-8.6917 4.0838-13.24 4.2266-18.557 0.1543-5.7459-0.2388-7.8049-2.1343-11.178-1.3002-2.3135-3.578-4.6537-5.1723-5.3141-1.5669-0.649-2.8489-1.7918-2.8489-2.5396s1.0125-1.566 2.25-1.8183c1.2375-0.2522 4.725-0.7285 7.75-1.0584s7.7822-1.7009 10.572-3.0467 6.4964-4.2199 8.2378-6.3868c1.7414-2.167 3.694-5.0982 4.3389-6.5138 0.645-1.4156 2.0005-2.5738 3.0122-2.5738 1.0118 0 1.8395 0.5627 1.8395 1.2504s-0.6672 4.4002-1.4826 8.25c-0.8155 3.8498-1.4905 8.0121-1.5 9.2496-0.015 1.9934 0.482 2.25 4.3602 2.25 2.6545 0 4.8634 0.5854 5.6119 1.4873 0.6788 0.818 0.9731 2.168 0.6538 3-0.42 1.0943-2.0884 1.5127-6.0323 1.5127h-5.4518l-0.6532 6.75c-0.3593 3.7125-0.7653 8.1-0.9023 9.75-0.1369 1.65 0.049 5.925 0.4134 9.5 0.3643 3.575 0.4613 7.0625 0.2157 7.75-0.2457 0.6875-2.0861 1.2544-4.0898 1.2598-2.0036 0.01-5.893 1.0605-8.643 2.3448-2.75 1.2843-6.4786 3.5835-8.2859 5.1094-1.8072 1.5258-3.9447 4.0483-4.75 5.6055-0.8052 1.5572-1.4641 4.0081-1.4641 5.4466s0.4634 3.4812 1.0297 4.5393c0.5663 1.0582 2.4209 2.6434 4.1214 3.5228 1.9783 1.023 4.2537 1.3809 6.3175 0.9937 2.136-0.4007 3.615-1.4598 4.3785-3.1355 0.6341-1.3918 1.1529-4.1058 1.1529-6.0312 0-2.5214-0.7576-4.2028-2.7084-6.0107-2.1448-1.9877-2.49-2.8623-1.6591-4.2023 0.5771-0.9307 2.5834-2.4581 4.4584-3.3941 1.875-0.9361 5.7371-1.7236 8.5824-1.75 4.1493-0.039 5.7823 0.4644 8.25 2.5408 2.482 2.0885 3.0767 3.3545 3.0767 6.5497 0 2.1784-0.7239 5.4009-1.6087 7.1611s-3.4679 5.1275-5.7402 7.4829c-2.8047 2.9073-5.7183 4.7538-9.0728 5.75-2.7177 0.8071-6.7721 1.4575-9.0098 1.4455s-5.8685-0.8527-8.0685-1.8681zm-46.485-5.5058c-0.4985-0.4927-0.6727-2.0677-0.387-3.5l0.5195-2.6042h-7.4752c-6.6982 0-7.3814 0.1751-6.5736 1.6843 0.4958 0.9263 0.9015 2.008 0.9015 2.4037 0 0.3958-6.8551 0.4102-15.234 0.032-8.3786-0.3781-15.644-1.0972-16.144-1.5981-0.5476-0.5476-0.4651-2.0293 0.2069-3.7163 0.6146-1.5431 1.658-4.1557 2.3185-5.8057s1.3002-3.9 1.4216-5c0.1213-1.1 0.943-5.5271 1.8258-9.8379 0.8829-4.3109 1.6052-9.7941 1.6052-12.185 0-2.3909-0.4565-5.5477-1.0145-7.0153l-1.0145-2.6683 8.5147 0.3532c6.3335 0.2628 8.5146 0.033 8.5145-0.8968-1e-4 -0.8942-2.2425-1.25-7.8779-1.25h-7.8776l-0.5633-8.75c-0.3098-4.8125-0.881-10.059-1.2694-11.659l-0.706-2.9093 22.291 1.3538 3.0874-5.0176c2.6585-4.3207 3.5269-5.0167 6.2516-5.0106 1.7403 0 6.2581 0.2993 10.04 0.6564l6.8754 0.6492 1.8641 4.2142c1.6075 3.634 2.3849 4.2974 5.6471 4.8191 2.0805 0.3327 5.2954 1.7208 7.1442 3.0848 1.8487 1.3639 4.2786 3.9625 5.3998 5.7746 1.5108 2.4417 2.0586 5.0948 2.1163 10.249l0.078 6.9539-4.7639-0.2803c-2.6202-0.1542-6.1077 0.015-7.75 0.3755-1.6424 0.3607-2.9861 1.0701-2.9861 1.5764s3.4275 0.9205 7.6167 0.9205c7.4221 0 7.6002 0.057 6.9751 2.25-0.3527 1.2375-1.3052 4.7071-2.1166 7.7101-0.8113 3.0031-1.4752 9.1479-1.4752 13.655v8.1951l-5.8628-0.5316c-3.4428-0.3122-6.6418-0.079-7.75 0.5644-1.529 0.888-0.7483 1.1151 4.1128 1.1967 3.3 0.055 6.8173 0.4229 7.8162 0.8167 0.9988 0.3938 2.8726 3.3154 4.1638 6.4925l2.3478 5.7765-14.953-0.3128c-8.2243-0.172-15.361-0.7159-15.86-1.2086zm5.7519-11.076c2.8967-1.3486 5.5749-3.2567 5.9516-4.2402 0.3766-0.9835 1.657-3.222 2.8453-4.9744 1.1882-1.7524 2.4573-5.0427 2.8201-7.3117 0.3688-2.3066 0.1521-5.8196-0.4916-7.9682-0.6333-2.1135-2.784-6.0233-4.7795-8.6884-2.1018-2.8072-5.5018-5.7921-8.0822-7.0956-3.0744-1.553-6.1697-2.237-9.9923-2.2081-3.2643 0.025-6.8197 0.7433-8.6596 1.75-1.7168 0.9395-4.7201 3.1269-6.674 4.8609s-4.2085 4.434-5.0103 6c-0.8017 1.566-1.7622 4.6811-2.1343 6.9225-0.3801 2.2895-0.155 6.1471 0.5138 8.8032 0.8492 3.3722 2.5059 6.0432 5.7779 9.3153 2.5231 2.523 5.9512 5.1815 7.6179 5.9077 1.6668 0.7261 5.7305 1.3335 9.0305 1.3496 4.3168 0.021 7.4776-0.6585 11.267-2.4226zm-22.267-3.7472c-2.7497-1.8766-5.7863-4.9576-6.7479-6.8467-1.0977-2.1562-1.742-5.6677-1.731-9.4346 0.014-4.8402 0.5643-6.8698 2.8464-10.5 1.8652-2.9669 4.3661-5.2665 7.3405-6.75 2.8563-1.4244 6.3059-2.2439 9.4021-2.2335 3.2013 0.011 6.272 0.7954 8.8904 2.2718 2.2 1.2404 5.4625 4.4339 7.25 7.0966 2.603 3.8774 3.25 5.8507 3.25 9.9124 0 3.069-0.8095 6.7436-2.0503 9.3067-1.1277 2.3295-3.7152 5.5057-5.75 7.0583-3.0779 2.3484-4.8762 2.8824-10.7 3.177-6.5949 0.3336-7.2901 0.1565-12-3.058zm18.3-0.192c1.4852-0.7759 3.9092-2.6884 5.3867-4.25s3.165-4.1061 3.75-5.6544c0.585-1.5483 1.0636-4.1874 1.0636-5.8646 0-1.6773-1.1676-5.1949-2.5946-7.8169-1.4271-2.622-3.9839-5.7943-5.6817-7.0496-1.8092-1.3375-5.0544-2.4713-7.8398-2.7389-3.5025-0.3366-5.888 0.097-9.0683 1.6494-2.3736 1.1583-5.3954 3.7014-6.7153 5.6513-1.3962 2.0627-2.5947 5.5745-2.866 8.3982-0.2565 2.6692 0.049 6.4144 0.6787 8.3226 0.6298 1.9082 2.2143 4.4741 3.5212 5.7018 1.3069 1.2278 4.1064 2.8492 6.221 3.6032 2.1147 0.754 5.5547 1.3906 7.6445 1.4147 2.0898 0.024 5.0148-0.5909 6.5-1.3668zm-11.3-0.2645c-1.1-0.2907-3.463-1.6309-5.251-2.9783-1.7881-1.3474-3.9752-3.8502-4.8603-5.5617-1.0927-2.113-1.472-4.767-1.1816-8.268 0.2412-2.909 1.2699-6.318 2.3602-7.8219 1.063-1.4662 3.876-3.6274 6.2512-4.8027 3.208-1.5874 5.4739-2.0066 8.8122-1.6303 2.8182 0.3176 5.4393 1.3886 7.0294 2.8723 1.3945 1.3012 3.4441 3.6342 4.5546 5.1844 1.227 1.7128 1.9983 4.3322 1.966 6.6765-0.029 2.1219-0.7186 5.1285-1.5317 6.6814-0.8131 1.553-2.9792 4.2636-4.8137 6.0237-2.263 2.1714-4.6212 3.3533-7.3353 3.6767-2.2 0.262-4.9 0.2386-6-0.052zm10.119-7.2344c1.7156-1.0461 3.6047-3.2944 4.198-4.9962 0.9348-2.6816 0.8481-3.0942-0.6502-3.0942-1.0104 0-2.2091 1.2728-2.8849 3.0631-0.7331 1.9423-2.2769 3.4861-4.2192 4.2192-1.6847 0.6359-3.0631 1.5075-3.0631 1.937 0 0.4294 0.7875 0.779 1.75 0.777 0.9625 0 3.1537-0.8597 4.8694-1.9059zm-13.16-11.668c0.9289-1.4178 3.0057-3.0368 4.615-3.5978 1.6092-0.561 2.9259-1.651 2.9259-2.4222s-0.4644-1.4022-1.0321-1.4022-2.5564 0.6369-4.4195 1.4154c-1.8631 0.7784-3.8736 2.3238-4.4679 3.4342s-1.0805 2.7235-1.0805 3.5847c0 0.8611 0.3983 1.5657 0.885 1.5657 0.4868 0 1.6451-1.16 2.5741-2.5778zm-13.459 18.778c0-0.44-0.54-1.34-1.2-2s-3.0799-1.2-5.3775-1.2c-2.3839 0-4.6823 0.6082-5.3531 1.4165-0.9332 1.1244-0.8039 1.5128 0.6275 1.884 0.9917 0.2571 3.9406 0.5197 6.5531 0.5835 2.6125 0.064 4.75-0.244 4.75-0.684zm36.748-40.74c-0.2814-2.4974-1.3097-5.4224-2.285-6.5-0.9753-1.0777-2.8128-1.9595-4.0835-1.9595-1.2706 0-3.9008 1.3966-5.845 3.1036-1.9441 1.707-3.5348 3.4495-3.5348 3.8722s1.6875 1.0449 3.75 1.3826 5.325 1.465 7.25 2.5052c1.925 1.0403 3.896 1.9465 4.3801 2.0139 0.484 0.067 0.6497-1.9207 0.3682-4.418zm-20.762-1.9374c1.1148-1.8038 4.0444-5.1393 6.5103-7.4123 2.4659-2.2729 6.1754-4.9017 8.2434-5.8416s3.9056-1.7929 4.0837-1.8956c0.178-0.1027-0.3648-1.5181-1.2063-3.1453-1.4505-2.805-1.9345-2.9874-9.3237-3.512-7.5269-0.5344-7.8707-0.462-10.039 2.1157-1.2348 1.468-2.2473 2.9762-2.25 3.3516 0 0.3755 0.8227 0.9453 1.8343 1.2664 1.7673 0.5609 1.772 0.7885 0.1209 5.8174-0.9451 2.8785-1.9507 7.1139-2.2345 9.412-0.4047 3.276-0.2192 4.0645 0.8588 3.6508 0.7563-0.2902 2.2871-2.0034 3.4019-3.8071zm-8.3718-6.6992c-0.3495-1.7473-0.8305-3.3721-1.069-3.6106-0.2384-0.2385-3.3838-0.6704-6.9896-0.9598l-6.556-0.5263v8.2738h15.25zm-65.271 61.194c-2.286-0.4843-6.0187-1.8307-8.2951-2.992-2.2763-1.1613-5.8537-3.6608-7.9498-5.5545-2.096-1.8936-5.4575-6.7116-7.47-10.707-3.2047-6.3618-3.6675-8.1949-3.7275-14.764-0.038-4.125 0.4421-9.7311 1.066-12.458s2.3275-7.1503 3.7857-9.8295 5.2447-7.2724 8.4145-10.207c3.6885-3.4149 7.8457-6.1189 11.548-7.5113 3.7074-1.3944 8.1188-2.1873 12.285-2.2082 4.2697-0.021 8.3872 0.6902 12 2.0738 3.025 1.1585 6.7067 3.2287 8.1816 4.6004 1.4749 1.3718 3.8374 4.0094 5.25 5.8615 1.6848 2.2089 2.5684 4.636 2.5684 7.055 0 2.0283-0.663 5.2746-1.4734 7.2141-0.8103 1.9395-2.4027 4.7078-3.5386 6.1519s-3.6828 3.7246-5.6597 5.068c-1.9769 1.3433-6.342 3.5192-9.7003 4.8353s-8.3609 2.6509-11.117 2.9662c-2.756 0.3153-6.586 0.6441-8.511 0.7307-3.3453 0.1504-3.491 0.312-3.2975 3.6573 0.1114 1.925 0.7597 5.5102 1.4408 7.9671 0.7877 2.842 2.7462 5.975 5.3836 8.6124 2.6395 2.6396 5.3269 4.3188 7.398 4.6228 2.0309 0.2981 3.7827-0.053 4.6639-0.9339 0.7826-0.7826 1.4112-3.3497 1.4112-5.7631 0-3.2365-0.6717-5.1501-2.6207-7.4664-2.5048-2.9767-2.5438-3.1996-0.8824-5.0354 0.9561-1.0565 3.9849-2.6671 6.7308-3.5791 3.0343-1.0078 6.5566-1.4484 8.9806-1.1233 2.1936 0.2943 5.0691 1.5503 6.39 2.7913 1.4738 1.3845 2.4017 3.3862 2.4017 5.1808 0 1.6085-0.725 4.4523-1.611 6.3196-0.8861 1.8673-3.1527 4.7486-5.0369 6.403-1.8843 1.6544-5.7436 4.1824-8.5764 5.6179-3.1982 1.6206-7.2591 2.7377-10.713 2.9468-3.0594 0.1853-7.4329-0.059-9.7188-0.5436zm2.2216-36.907c2.236-1.0155 5.7062-3.2871 7.7117-5.0479 2.0054-1.7609 4.617-4.7723 5.8035-6.6921 1.1866-1.9198 2.5363-5.1509 2.9994-7.1801 0.5126-2.2458 0.4283-5.2409-0.2153-7.6543-0.5816-2.1806-1.8368-4.9556-2.7894-6.1666-1.7085-2.172-1.7853-2.1779-5.6788-0.4347-2.6168 1.1715-5.2026 3.5903-7.6727 7.1767-2.0492 2.9753-4.1806 6.9801-4.7364 8.8996-0.5558 1.9194-1.4573 6.2605-2.0033 9.6468s-0.7176 6.8738-0.3814 7.75 1.1257 1.5831 1.7543 1.5711c0.6287-0.012 2.9724-0.8529 5.2084-1.8685zm-56.565 31.954-8.5-0.5637-0.3331-4.5c-0.1832-2.475 0.1857-7.875 0.8197-12 0.6341-4.125 2.0033-9.8305 3.0426-12.679s2.8079-9.7596 3.9302-15.358c1.1224-5.5984 2.0406-11.656 2.0406-13.46 0-1.8047-0.8224-4.2968-1.8276-5.5382-1.3548-1.6732-2.2549-2.0178-3.4799-1.3322-0.9088 0.5086-2.7864 2.4618-4.1724 4.3404-1.386 1.8787-2.5201 3.9567-2.5201 4.6177 0 0.6611-1.564 4.5112-3.4756 8.5557-2.6502 5.6072-3.7236 9.5707-4.5193 16.688-0.574 5.1336-0.7455 12.334-0.3812 16 0.3643 3.6663 1.0647 7.7519 1.5564 9.079 0.5164 1.3935 0.5214 2.7854 0.012 3.2949-0.4919 0.4919-6.7375 0.573-14.12 0.1832-13.054-0.6891-13.252-0.7349-14.24-3.2949-0.6795-1.7604-0.644-5.4223 0.1104-11.375 0.6442-5.0837 2.9326-14.134 5.4362-21.5 2.378-6.9963 4.6349-14.401 5.0153-16.456 0.3805-2.0543 0.2074-5.5342-0.3847-7.7329-0.5921-2.1988-1.9316-4.4555-2.9768-5.0149-1.0452-0.5593-2.6147-1.017-3.4878-1.017-0.8732 0-3.3924 2.7924-5.5983 6.2053-2.2058 3.4129-4.2473 7.3504-4.5365 8.75-0.2892 1.3996-1.1688 4.7947-1.9545 7.5447-0.7858 2.75-2.0865 9.5-2.8904 15-1.0672 7.3013-1.2145 11.889-0.5457 17 0.5038 3.85 0.9307 7.6205 0.9487 8.3789 0.025 1.0657-1.0459 1.2409-4.7173 0.7716-2.6125-0.334-9.397-0.6701-15.077-0.747-7.9977-0.1082-10.452-0.4663-10.882-1.5877-0.3056-0.7964 0.6136-4.4558 2.0427-8.1319 1.4291-3.6761 3.3477-10.509 4.2637-15.184 1.3089-6.681 1.5383-11.665 1.072-23.291-0.3886-9.6898-1.1854-16.67-2.3101-20.238-0.9442-2.9955-1.4129-5.7503-1.0416-6.1216 0.3714-0.3714 6.6394-0.085 13.929 0.6366 7.2895 0.7216 14.015 1.6968 14.946 2.1672 1.5785 0.798 1.5672 1.14-0.169 5.1012-1.0234 2.3353-2.6235 8.4323-3.5555 13.549-0.9321 5.1166-1.4573 9.5405-1.1671 9.8307 0.2903 0.2902 2.3166-3.2897 4.503-7.9553 2.1864-4.6657 5.9143-10.587 8.2841-13.158 2.3698-2.571 5.5473-5.315 7.061-6.0977 1.5137-0.7828 5.1451-1.4233 8.0697-1.4233 3.9888 0 6.2144 0.6095 8.9068 2.439 1.974 1.3414 4.3285 3.9969 5.2321 5.9011s1.6429 4.4067 1.6429 5.5611c0 1.1543 0.3375 2.0975 0.75 2.096 0.4125 0 1.65-1.3715 2.75-3.0443s3.35-4.0732 5-5.3342c1.65-1.2611 5.2177-3.0412 7.9282-3.9558 2.7104-0.9146 5.8685-1.6629 7.0178-1.6629 1.1494 0 3.7232 1.11 5.7197 2.4666 1.9965 1.3567 4.5759 3.9973 5.7321 5.8681 1.2373 2.0019 2.1022 5.0806 2.1022 7.4826 0 2.2447-0.9452 8.9415-2.1006 14.882-1.6095 8.2758-2.0049 13.395-1.6914 21.899 0.3537 9.5957 0.7827 11.862 3.1677 16.737 1.5172 3.101 2.4768 6.0942 2.1324 6.6514-0.3443 0.5572-3.6371 0.9293-7.3171 0.8268-3.68-0.1024-10.516-0.4399-15.191-0.75zm-126.25-7.2467c-2.0647-0.4331-5.8897-1.8789-8.5-3.2129-2.6102-1.334-6.137-3.9282-7.8372-5.7648-1.7003-1.8366-3.9939-4.6893-5.0971-6.3393-1.1031-1.65-2.5407-4.575-3.1945-6.5-0.6539-1.925-1.6299-7.7956-2.1691-13.046-0.857-8.3459-0.7455-10.257 0.8869-15.206 1.0269-3.1128 3.3967-8.2178 5.2661-11.344 1.8695-3.1266 5.424-7.1854 7.899-9.0196 2.475-1.8341 6.75-4.1119 9.5-5.0617 3.052-1.0541 7.922-1.7158 12.5-1.6985 4.125 0.016 9.4601 0.5867 11.856 1.2691 2.9747 0.8473 6.2244 3.0579 10.25 6.9727 5.1713 5.0289 5.8943 6.2025 5.8943 9.567 0 2.1092-0.5295 5.6023-1.1767 7.7624-0.6472 2.1602-2.8534 5.6552-4.9026 7.7668s-5.8497 5.0839-8.4455 6.6051c-2.5958 1.5213-8.1521 3.5874-12.347 4.5915-4.1953 1.004-9.7653 1.829-12.378 1.8333-2.6125 0-4.75 0.3762-4.75 0.8263 0 0.4502 0.7246 3.2627 1.6103 6.25 0.8857 2.9874 2.4794 7.1377 3.5415 9.223s2.8125 4.6728 3.8897 5.75c1.2798 1.2798 3.3196 1.9585 5.8859 1.9585 3.0518 0 4.3895-0.5874 6-2.6348 1.1399-1.4492 2.0726-3.5439 2.0726-4.6549s-1.8391-3.7695-4.087-5.9078c-3.4446-3.2768-3.8874-4.1284-2.8169-5.4183 0.6986-0.8417 2.9698-2.3975 5.0472-3.4573 2.0864-1.0644 5.8078-1.9269 8.314-1.9269 3.8083 0 5.1798 0.5808 8.5398 3.6164 2.6244 2.371 4.0029 4.4713 4.0029 6.0989 0 1.3653-0.725 4.0102-1.611 5.8775-0.8861 1.8673-3.2245 4.8116-5.1964 6.543-1.972 1.7314-5.97 4.2026-8.8846 5.4915-2.9145 1.289-7.6636 2.7111-10.554 3.1603-2.8899 0.4492-6.9437 0.4624-9.0085 0.029zm3.4068-38.394c2.7974-1.4175 6.2045-3.78 7.5712-5.25 1.3667-1.4699 3.5629-4.7951 4.8805-7.3893 1.7662-3.4775 2.3956-6.3532 2.3956-10.945 0-5.3969-0.3588-6.603-2.6871-9.0333-1.4779-1.5425-3.2366-2.8047-3.9082-2.8047s-3.2126 1.9355-5.6465 4.301c-2.4759 2.4063-5.8166 7.2454-7.5833 10.985-1.7369 3.676-3.6008 8.6031-4.142 10.949s-0.995 5.9527-1.0085 8.0152c-0.022 3.3529 0.2439 3.75 2.5088 3.75 1.3933 0 4.8221-1.1598 7.6195-2.5774zm-42.153 32.436c-1.375-0.5582-8.4625-1.2721-15.75-1.5864l-13.25-0.5714v-3.416c0-1.8788 0.426-4.2119 0.9466-5.1846 0.5206-0.9728 2.1033-10.056 3.5171-20.184 1.4137-10.129 3.0426-25.098 3.6197-33.266s0.8684-15.031 0.6474-15.252-4.1656 6.9117-8.7657 15.85c-4.6002 8.9387-9.5854 18.502-11.078 21.252-1.493 2.75-3.6463 6.8-4.7853 9-1.1389 2.2-4.8902 9.3623-8.3362 15.916-3.4459 6.554-6.699 11.902-7.229 11.885-0.53-0.017-1.2756-0.6545-1.6568-1.4162-0.3812-0.7616-1.4743-4.3098-2.4289-7.8848-0.9547-3.575-2.9935-10.325-4.5306-15-1.5372-4.675-4.8122-13.9-7.2778-20.5s-5.3063-14.044-6.3126-16.543-4.0732-8.1237-6.8153-12.5l-4.9856-7.9569-1.1966 6.5c-0.6581 3.575-1.5036 14.15-1.8788 23.5-0.6167 15.368-0.4794 17.804 1.4303 25.38 1.1619 4.6088 3.6884 11.472 5.6145 15.251 1.926 3.7794 3.5019 7.6 3.5019 8.4902 0 1.4408-1.2914 1.5392-11.75 0.8955-6.4625-0.3978-12.28-1.1548-12.928-1.6822-0.8801-0.7167-0.5502-2.2076 1.3059-5.9031 1.3659-2.7193 3.3228-9.3288 4.3487-14.688 1.0259-5.3589 2.0865-11.994 2.3569-14.744s1.0629-14.736 1.7611-26.636c0.9506-16.202 0.9904-23.235 0.1585-28-0.6111-3.5-1.429-7.6454-1.8177-9.212l-0.7066-2.8483 16.385 0.7152c9.012 0.3934 16.686 0.8917 17.054 1.1073 0.3679 0.2157 1.1735 2.7506 1.79 5.6331 0.6165 2.8826 2.91 10.54 5.0967 17.017 2.1867 6.4766 6.6636 17.277 9.9487 24 3.2852 6.7235 6.6484 13.092 7.4739 14.151 0.8255 1.0599 1.6505 1.7349 1.8333 1.5 0.1828-0.2348 1.4862-2.452 2.8964-4.927s7.8305-14.968 14.267-27.762c6.4367-12.794 12.501-23.69 13.476-24.212 1.0516-0.5628 6.4063-0.6594 13.161-0.2374l11.388 0.7114-0.1534 3c-0.084 1.65-1.0857 6.6-2.225 11s-3.0558 13.625-4.2589 20.5c-1.7896 10.227-2.1841 16.318-2.1694 33.5 0.014 16.579 0.3766 22.342 1.7218 27.374 0.9371 3.5056 1.4662 6.9931 1.1758 7.75-0.2905 0.7569-0.8798 1.3476-1.3095 1.3127-0.4298-0.035-1.9064-0.5201-3.2814-1.0783zm273.25-54.564c-1.4692-0.283-2.25-1.1518-2.25-2.5037 0-1.9164 0.4169-2.0273 5.6053-1.4919 3.0829 0.3182 5.8385 0.8118 6.1235 1.0968 0.2851 0.2851 0.2518 1.2127-0.074 2.0614-0.3843 1.0015-1.7438 1.4953-3.8735 1.4069-1.8048-0.075-4.2939-0.3311-5.5314-0.5695zm158.25-127.08c-1.1-0.3983-3.8643-1.7181-6.1428-2.933-2.2786-1.2148-5.9897-4.3617-8.2471-6.9931-2.2573-2.6314-4.9541-6.5844-5.9929-8.7844s-2.4003-7.3021-3.0257-11.338c-0.6253-4.036-0.8539-9.661-0.5079-12.5 0.3459-2.839 1.2846-7.1869 2.086-9.6619 0.8013-2.475 2.5363-6.3508 3.8554-8.6128 1.3192-2.2621 4.0033-5.5218 5.9646-7.2439 1.9613-1.722 5.3747-4.0537 7.5854-5.1815s6.8297-2.3889 10.264-2.8024 8.1429-0.5708 10.462-0.3496c3.2734 0.3121 5.3248 1.3977 9.1643 4.8498 2.7207 2.4462 7.1477 7.236 9.8376 10.644 2.69 3.4081 6.5345 8.6094 8.5435 11.559 3.3695 4.9467 3.6526 5.9208 3.6526 12.568 0 3.9635-0.7241 9.6505-1.6091 12.638-0.885 2.9874-2.7333 7.3535-4.1073 9.7025-1.374 2.3491-4.4015 5.8306-6.7278 7.7368-2.3263 1.9062-6.2155 4.1848-8.6427 5.0634-2.5079 0.9079-8.7302 1.7629-14.413 1.9805-5.5 0.2106-10.9 0.057-12-0.3412zm14.665-9.4605c1.3214-1.7875 2.9945-4.6 3.718-6.25s2.2008-5.7 3.2828-9c1.0821-3.3 2.2242-10.171 2.538-15.27 0.4709-7.6499 0.2912-9.5784-1.0286-11.037-0.8795-0.9719-2.2913-3.4236-3.1372-5.4483-0.846-2.0248-1.5382-5.7208-1.5382-8.2135 0-4.3174-0.1351-4.5321-2.854-4.5321-1.6177 0-3.9634 1.0282-5.4152 2.3737-1.4087 1.3056-3.4377 4.1181-4.5089 6.25-1.0713 2.132-2.6632 6.1263-3.5376 8.8763-0.8745 2.75-2.0616 8.5229-2.638 12.829-0.725 5.4158-0.7302 10.634-0.017 16.931 0.676 5.967 1.7377 10.246 3.0824 12.422 1.7408 2.8165 2.6267 3.319 5.8511 3.319 3.1274 0 4.2249-0.575 6.2023-3.25zm26.148-37.5c-0.9533-1.5125-3.6326-5.225-5.954-8.25s-6.0333-7.506-8.2485-9.9579c-2.2153-2.4518-4.2729-4.2128-4.5723-3.9134-0.2995 0.2995-0.2529 2.6724 0.1036 5.2731 0.3565 2.6008 1.9051 6.6118 3.4414 8.9134 1.9673 2.9473 4.6598 5.131 9.1052 7.3846 3.4715 1.7598 6.6597 3.2223 7.0849 3.25 0.4252 0.028-0.01-1.1873-0.9603-2.6998zm-102.81 41.86c-2.2-1.0154-5.0646-3.0025-6.3658-4.4158-1.4529-1.5781-2.5457-4.2336-2.8319-6.8819-0.2564-2.3717 0-6.1123 0.5616-8.3123 0.5652-2.2 2.8444-9.1812 5.065-15.514 3.0478-8.6917 4.0838-13.24 4.2266-18.557 0.1543-5.7459-0.2388-7.8049-2.1343-11.178-1.3002-2.3135-3.578-4.6537-5.1723-5.3141-1.5669-0.649-2.8489-1.7918-2.8489-2.5396s1.0125-1.566 2.25-1.8183c1.2375-0.2522 4.725-0.7285 7.75-1.0584s7.7822-1.7009 10.572-3.0467c2.8512-1.3756 6.5726-4.3048 8.5-6.6904 1.8856-2.3339 3.8897-5.1486 4.4535-6.2548 0.5639-1.1063 1.8014-2.1609 2.75-2.3436 0.9487-0.1827 1.7249 0.2634 1.7249 0.9915 0 0.728-0.6672 4.4735-1.4826 8.3233-0.8155 3.8498-1.4905 8.0121-1.5 9.2496-0.015 1.9934 0.482 2.25 4.3602 2.25 2.6545 0 4.8634 0.5854 5.6119 1.4873 0.6788 0.818 0.9731 2.168 0.6538 3-0.42 1.0943-2.0884 1.5127-6.0323 1.5127h-5.4518l-0.6532 6.75c-0.3593 3.7125-0.7653 8.1-0.9023 9.75-0.1369 1.65 0.049 5.925 0.4134 9.5 0.3643 3.575 0.4613 7.0625 0.2157 7.75-0.2457 0.6875-2.0861 1.2544-4.0898 1.2598-2.0036 0.01-5.893 1.0605-8.643 2.3448s-6.4786 3.5835-8.2859 5.1094c-1.8072 1.5258-3.9447 4.0483-4.75 5.6055-0.8052 1.5572-1.4641 4.0081-1.4641 5.4466s0.4634 3.4812 1.0297 4.5393c0.5663 1.0582 2.4209 2.6434 4.1214 3.5228 1.9783 1.023 4.2537 1.3809 6.3175 0.9937 2.136-0.4007 3.615-1.4598 4.3785-3.1355 0.6341-1.3918 1.1529-4.1058 1.1529-6.0312 0-2.4913-0.7546-4.2-2.6172-5.9262-1.5127-1.4019-2.3773-3.0509-2.0487-3.9071 0.3127-0.8148 2.3725-2.4018 4.5774-3.5267 2.4443-1.247 5.9457-2.0452 8.972-2.0452 3.8804 0 5.6342 0.5648 8.0398 2.5889 2.482 2.0885 3.0767 3.3545 3.0767 6.5497 0 2.1784-0.7239 5.4009-1.6087 7.1611s-3.4679 5.1275-5.7402 7.4829c-2.8047 2.9073-5.7183 4.7538-9.0728 5.75-2.7177 0.8071-6.7721 1.4575-9.0098 1.4455s-5.8685-0.8527-8.0685-1.8681zm-46.485-5.5058c-0.4985-0.4927-0.6727-2.0677-0.387-3.5l0.5195-2.6042h-7.4752c-6.6982 0-7.3814 0.1751-6.5736 1.6843 0.4958 0.9263 0.9015 2.008 0.9015 2.4037 0 0.3958-6.8551 0.4102-15.234 0.032-8.3786-0.3781-15.644-1.0972-16.144-1.5981-0.5476-0.5476-0.4651-2.0293 0.2069-3.7163 0.6146-1.5431 1.658-4.1557 2.3185-5.8057s1.3002-3.9 1.4216-5c0.1213-1.1 0.943-5.5271 1.8258-9.8379 0.8829-4.3109 1.6052-9.7941 1.6052-12.185 0-2.3909-0.4565-5.5477-1.0145-7.0153l-1.0145-2.6683 8.5147 0.3532c6.3335 0.2628 8.5146 0.033 8.5145-0.8968-1e-4 -0.8942-2.2425-1.25-7.8779-1.25h-7.8776l-0.5633-8.75c-0.3098-4.8125-0.881-10.059-1.2694-11.659l-0.706-2.9093 22.291 1.3538 3.0874-5.0176c2.6585-4.3207 3.5269-5.0167 6.2516-5.0106 1.7403 0 6.2581 0.2993 10.04 0.6564l6.8754 0.6492 1.8831 4.2572c1.6358 3.6979 2.3948 4.3437 5.7772 4.9151 2.1417 0.3618 5.348 1.7306 7.1252 3.0418 1.7771 1.3111 4.1485 3.8665 5.2697 5.6786 1.5108 2.4417 2.0586 5.0948 2.1163 10.249l0.078 6.9539-4.7639-0.2803c-2.6202-0.1542-6.1077 0.015-7.75 0.3755-1.6424 0.3607-2.9861 1.0701-2.9861 1.5764s3.4275 0.9205 7.6167 0.9205c7.4221 0 7.6002 0.057 6.9751 2.25-0.3527 1.2375-1.3052 4.7071-2.1166 7.7101-0.8113 3.0031-1.4752 9.1479-1.4752 13.655v8.1951l-5.8628-0.5316c-3.4428-0.3122-6.6418-0.079-7.75 0.5644-1.529 0.888-0.7483 1.1151 4.1128 1.1967 3.3 0.055 6.8173 0.4229 7.8162 0.8167 0.9988 0.3938 2.8726 3.3154 4.1638 6.4925l2.3478 5.7765-14.953-0.3128c-8.2243-0.172-15.361-0.7159-15.86-1.2086zm5.7519-11.076c2.8967-1.3486 5.5749-3.2567 5.9516-4.2402 0.3766-0.9835 1.657-3.222 2.8453-4.9744 1.1882-1.7524 2.4573-5.0427 2.8201-7.3117 0.3688-2.3066 0.1521-5.8196-0.4916-7.9682-0.6333-2.1135-2.784-6.0233-4.7795-8.6884-2.1018-2.8072-5.5018-5.7921-8.0822-7.0956-3.0744-1.553-6.1697-2.237-9.9923-2.2081-3.2643 0.025-6.8197 0.7433-8.6596 1.75-1.7168 0.9395-4.7201 3.1269-6.674 4.8609s-4.2085 4.434-5.0103 6c-0.8017 1.566-1.7622 4.6811-2.1343 6.9225-0.3801 2.2895-0.155 6.1471 0.5138 8.8032 0.8492 3.3722 2.5059 6.0432 5.7779 9.3153 2.5231 2.523 5.9512 5.1815 7.6179 5.9077 1.6668 0.7261 5.7305 1.3335 9.0305 1.3496 4.3168 0.021 7.4776-0.6585 11.267-2.4226zm-22.267-3.7472c-2.7497-1.8766-5.7863-4.9576-6.7479-6.8467-1.0977-2.1562-1.742-5.6677-1.731-9.4346 0.014-4.8402 0.5643-6.8698 2.8464-10.5 1.8652-2.9669 4.3661-5.2665 7.3405-6.75 2.8563-1.4244 6.3059-2.2439 9.4021-2.2335 3.2013 0.011 6.272 0.7954 8.8904 2.2718 2.2 1.2404 5.4625 4.4339 7.25 7.0966 2.603 3.8774 3.25 5.8507 3.25 9.9124 0 3.069-0.8095 6.7436-2.0503 9.3067-1.1277 2.3295-3.7152 5.5057-5.75 7.0583-3.0779 2.3484-4.8762 2.8824-10.7 3.177-6.5949 0.3336-7.2901 0.1565-12-3.058zm18.3-0.192c1.4852-0.7759 3.9092-2.6884 5.3867-4.25s3.165-4.1061 3.75-5.6544 1.0636-4.1874 1.0636-5.8646c0-1.6773-1.1676-5.1949-2.5946-7.8169-1.4271-2.622-3.9839-5.7943-5.6817-7.0496-1.8092-1.3375-5.0544-2.4713-7.8398-2.7389-3.5025-0.3366-5.888 0.097-9.0683 1.6494-2.3736 1.1583-5.3954 3.7014-6.7153 5.6513-1.3962 2.0627-2.5947 5.5745-2.866 8.3982-0.2565 2.6692 0.049 6.4144 0.6787 8.3226 0.6298 1.9082 2.2143 4.4741 3.5212 5.7018 1.3069 1.2278 4.1064 2.8492 6.221 3.6032 2.1147 0.754 5.5547 1.3906 7.6445 1.4147 2.0898 0.024 5.0148-0.5909 6.5-1.3668zm-11.3-0.2645c-1.1-0.2907-3.463-1.6309-5.251-2.9783-1.7881-1.3474-3.9752-3.8502-4.8603-5.5617-1.0927-2.113-1.472-4.767-1.1816-8.268 0.2412-2.909 1.2699-6.318 2.3602-7.8219 1.063-1.4662 3.876-3.6274 6.2512-4.8027 3.208-1.5874 5.4739-2.0066 8.8122-1.6303 2.8182 0.3176 5.4393 1.3886 7.0294 2.8723 1.3945 1.3012 3.4441 3.6342 4.5546 5.1844 1.227 1.7128 1.9983 4.3322 1.966 6.6765-0.029 2.1219-0.7186 5.1285-1.5317 6.6814-0.8131 1.553-2.9792 4.2636-4.8137 6.0237-2.263 2.1714-4.6212 3.3533-7.3353 3.6767-2.2 0.262-4.9 0.2386-6-0.052zm10.119-7.2344c1.7156-1.0461 3.6047-3.2944 4.198-4.9962 0.9348-2.6816 0.8481-3.0942-0.6502-3.0942-1.0104 0-2.2091 1.2728-2.8849 3.0631-0.7331 1.9423-2.2769 3.4861-4.2192 4.2192-1.6847 0.6359-3.0631 1.5075-3.0631 1.937 0 0.4294 0.7875 0.779 1.75 0.777 0.9625 0 3.1537-0.8597 4.8694-1.9059zm-13.16-11.668c0.9289-1.4178 3.0057-3.0368 4.615-3.5978 1.6092-0.561 2.9259-1.651 2.9259-2.4222s-0.4644-1.4022-1.0321-1.4022-2.5564 0.6369-4.4195 1.4154c-1.8631 0.7784-3.8736 2.3238-4.4679 3.4342s-1.0805 2.7235-1.0805 3.5847c0 0.8611 0.3983 1.5657 0.885 1.5657 0.4868 0 1.6451-1.16 2.5741-2.5778zm-13.459 18.778c0-0.44-0.54-1.34-1.2-2s-3.0799-1.2-5.3775-1.2c-2.3839 0-4.6823 0.6082-5.3531 1.4165-0.9332 1.1244-0.8039 1.5128 0.6275 1.884 0.9917 0.2571 3.9406 0.5197 6.5531 0.5835 2.6125 0.064 4.75-0.244 4.75-0.684zm36.748-40.74c-0.2814-2.4974-1.3097-5.4224-2.285-6.5-0.9753-1.0777-2.8128-1.9595-4.0835-1.9595-1.2706 0-3.9008 1.3966-5.845 3.1036-1.9441 1.707-3.5348 3.4495-3.5348 3.8722s1.6875 1.0449 3.75 1.3826 5.325 1.465 7.25 2.5052c1.925 1.0403 3.896 1.9465 4.3801 2.0139 0.484 0.067 0.6497-1.9207 0.3682-4.418zm-20.762-1.9374c1.1148-1.8038 4.0444-5.1393 6.5103-7.4123 2.4659-2.2729 6.1754-4.9017 8.2434-5.8416s3.9056-1.7929 4.0837-1.8956c0.178-0.1027-0.3648-1.5181-1.2063-3.1453-1.4505-2.805-1.9345-2.9874-9.3237-3.512-7.5269-0.5344-7.8707-0.462-10.039 2.1157-1.2348 1.468-2.2473 2.9762-2.25 3.3516 0 0.3755 0.8227 0.9453 1.8343 1.2664 1.7673 0.5609 1.772 0.7885 0.1209 5.8174-0.9451 2.8785-1.9507 7.1139-2.2345 9.412-0.4047 3.276-0.2192 4.0645 0.8588 3.6508 0.7563-0.2902 2.2871-2.0034 3.4019-3.8071zm-8.3718-6.6992c-0.3495-1.7473-0.8305-3.3721-1.069-3.6106-0.2384-0.2385-3.3838-0.6704-6.9896-0.9598l-6.556-0.5263v8.2738h15.25zm-65.271 61.194c-2.286-0.4843-6.0187-1.8307-8.2951-2.992-2.2763-1.1613-5.8537-3.6608-7.9498-5.5545-2.096-1.8936-5.4575-6.7116-7.47-10.707-3.2047-6.3618-3.6675-8.1949-3.7275-14.764-0.038-4.125 0.4297-9.6761 1.0386-12.336 0.6088-2.6597 2.0461-6.6767 3.1939-8.9266 1.1479-2.25 4.3505-6.4842 7.1171-9.4094 2.7665-2.9252 7.3293-6.4397 10.14-7.81 2.8103-1.3703 8.0345-2.8909 11.61-3.3791 4.7632-0.6505 7.9163-0.5203 11.801 0.4871 2.9153 0.7561 6.5153 2.0114 8 2.7894 1.4847 0.7781 3.679 2.3397 4.8762 3.4703 1.1973 1.1306 3.3348 3.5738 4.75 5.4293 1.6892 2.2146 2.5732 4.6405 2.5732 7.0613 0 2.0283-0.663 5.2746-1.4734 7.2141-0.8103 1.9395-2.4027 4.7078-3.5386 6.1519s-3.6828 3.7246-5.6597 5.068c-1.9769 1.3433-6.342 3.5192-9.7003 4.8353s-8.3609 2.6509-11.117 2.9662c-2.756 0.3153-6.586 0.6441-8.511 0.7307-3.3453 0.1504-3.491 0.312-3.2975 3.6573 0.1114 1.925 0.7597 5.5102 1.4408 7.9671 0.7877 2.842 2.7462 5.975 5.3836 8.6124 2.6847 2.6847 5.3483 4.3363 7.5593 4.6871 2.4267 0.3851 3.7753 0.08 4.6638-1.0536 0.6875-0.8774 1.25-3.4997 1.25-5.8274 0-3.1073-0.6965-5.0599-2.6207-7.3467-2.5048-2.9767-2.5438-3.1996-0.8824-5.0354 0.9561-1.0565 3.9849-2.6671 6.7308-3.5791 3.0343-1.0078 6.5566-1.4484 8.9806-1.1233 2.1936 0.2943 5.0691 1.5503 6.39 2.7913 1.4738 1.3845 2.4017 3.3862 2.4017 5.1808 0 1.6085-0.725 4.4523-1.611 6.3196-0.8861 1.8673-3.1527 4.7486-5.0369 6.403-1.8843 1.6544-5.7436 4.1824-8.5764 5.6179-3.1982 1.6206-7.2591 2.7377-10.713 2.9468-3.0594 0.1853-7.4329-0.059-9.7188-0.5436zm2.2216-36.907c2.236-1.0155 5.7062-3.2871 7.7117-5.0479 2.0054-1.7609 4.617-4.7723 5.8035-6.6921 1.1866-1.9198 2.5363-5.1509 2.9994-7.1801 0.5126-2.2458 0.4283-5.2409-0.2153-7.6543-0.5816-2.1806-1.8368-4.9556-2.7894-6.1666-1.7085-2.172-1.7853-2.1779-5.6788-0.4347-2.6168 1.1715-5.2026 3.5903-7.6727 7.1767-2.0492 2.9753-4.1806 6.9801-4.7364 8.8996-0.5558 1.9194-1.4573 6.2605-2.0033 9.6468s-0.7176 6.8738-0.3814 7.75 1.1257 1.5831 1.7543 1.5711c0.6287-0.012 2.9724-0.8529 5.2084-1.8685zm-56.565 31.954-8.5-0.5637-0.3331-4.5c-0.1832-2.475 0.1857-7.875 0.8197-12 0.6341-4.125 2.0033-9.8305 3.0426-12.679s2.8079-9.7596 3.9302-15.358c1.1224-5.5984 2.0406-11.656 2.0406-13.46 0-1.8047-0.8224-4.2968-1.8276-5.5382-1.3548-1.6732-2.2549-2.0178-3.4799-1.3322-0.9088 0.5086-2.7864 2.4618-4.1724 4.3404-1.386 1.8787-2.5201 3.9567-2.5201 4.6177 0 0.6611-1.564 4.5112-3.4756 8.5557-2.6502 5.6072-3.7236 9.5707-4.5193 16.688-0.574 5.1336-0.7455 12.334-0.3812 16 0.3643 3.6663 1.0647 7.7519 1.5564 9.079 0.5164 1.3935 0.5214 2.7854 0.012 3.2949-0.4919 0.4919-6.7375 0.573-14.12 0.1832-13.054-0.6891-13.252-0.7349-14.24-3.2949-0.6807-1.7634-0.6406-5.4487 0.1251-11.49 0.62-4.8918 2.0508-11.417 3.1797-14.5 1.1288-3.0833 3.3833-9.881 5.01-15.106 2.2411-7.1982 2.8065-10.547 2.3337-13.822-0.3432-2.3771-1.4916-5.1896-2.552-6.25-1.0603-1.0603-2.8377-1.9279-3.9497-1.9279-1.381 0-3.293 1.9669-6.0325 6.2053-2.2058 3.4129-4.2473 7.3504-4.5365 8.75s-1.1688 4.7947-1.9545 7.5447c-0.7858 2.75-2.0864 9.5-2.8904 15-1.0672 7.3013-1.2145 11.889-0.5457 17 0.5038 3.85 0.9307 7.6205 0.9487 8.3789 0.025 1.0657-1.0459 1.2409-4.7173 0.7716-2.6125-0.334-9.397-0.6701-15.077-0.747-7.9977-0.1082-10.452-0.4663-10.882-1.5877-0.3056-0.7964 0.6136-4.4558 2.0427-8.1319s3.3477-10.509 4.2637-15.184c1.3089-6.681 1.5383-11.665 1.072-23.291-0.3886-9.6898-1.1854-16.67-2.3101-20.238-0.9442-2.9955-1.4129-5.7503-1.0416-6.1216 0.3714-0.3714 6.6394-0.085 13.929 0.6366 7.2894 0.7216 14.044 1.7122 15.009 2.2015 1.6353 0.8284 1.6458 1.1023 0.1526 3.9898-0.8818 1.7052-2.4594 7.3565-3.5059 12.558-1.0464 5.2019-1.8863 10.877-1.8665 12.611 0.033 2.8861 0.1895 2.7296 1.8464-1.8467 0.9957-2.75 3.0326-7.4031 4.5265-10.34s4.5771-7.3591 6.8517-9.8268c2.2746-2.4676 5.3741-5.127 6.8878-5.9097 1.5137-0.7828 5.1451-1.4233 8.0697-1.4233 3.9888 0 6.2144 0.6095 8.9068 2.439 1.974 1.3414 4.3285 3.9969 5.2321 5.9011s1.6429 4.4067 1.6429 5.5611c0 1.1543 0.207 2.0988 0.4599 2.0988 0.253 0 2.5564-2.2412 5.1187-4.9805 3.788-4.0497 5.9514-5.3969 11.576-7.2083l6.9169-2.2277 3.6385 1.9583c2.0012 1.077 4.9102 3.7132 6.4645 5.8583 2.0583 2.8406 2.8259 5.0679 2.8259 8.1992 0 2.3646-0.9452 9.1595-2.1006 15.1-1.6095 8.2758-2.0049 13.395-1.6914 21.899 0.3537 9.5957 0.7827 11.862 3.1677 16.737 1.5172 3.101 2.4768 6.0942 2.1324 6.6514-0.3443 0.5572-3.6371 0.9293-7.3171 0.8268-3.68-0.1024-10.516-0.4399-15.191-0.75zm-126.25-7.2467c-2.0647-0.4331-5.8897-1.8789-8.5-3.2129-2.6102-1.334-6.137-3.9282-7.8372-5.7648-1.7003-1.8366-3.9939-4.6893-5.0971-6.3393-1.1031-1.65-2.5392-4.5717-3.1913-6.4928-0.6521-1.921-1.6229-7.7104-2.1574-12.865-0.7655-7.3817-0.6737-10.376 0.4319-14.1 0.7721-2.5999 2.3811-6.6428 3.5756-8.9841 1.1944-2.3413 3.92-6.1536 6.0568-8.4718 2.1369-2.3182 6.2923-5.4328 9.2344-6.9213 2.942-1.4886 7.8777-3.118 10.968-3.621 3.4624-0.5635 8.2054-0.5483 12.357 0.04 3.706 0.5249 8.1855 1.8487 9.9543 2.9419s5.0707 3.9996 7.3373 6.4587c3.2617 3.5385 4.1213 5.2336 4.1213 8.1274 0 2.0109-0.5295 5.4237-1.1767 7.5838-0.6472 2.1602-2.8534 5.6552-4.9026 7.7668s-5.8497 5.0839-8.4455 6.6051c-2.5958 1.5213-8.1521 3.5874-12.347 4.5915-4.1953 1.004-9.7653 1.829-12.378 1.8333-2.6125 0-4.75 0.3762-4.75 0.8263 0 0.4502 0.7246 3.2627 1.6103 6.25 0.8857 2.9874 2.4794 7.1377 3.5415 9.223 1.0622 2.0853 2.8125 4.6728 3.8897 5.75 1.2798 1.2798 3.3196 1.9585 5.8859 1.9585 3.0518 0 4.3895-0.5874 6-2.6348 1.1399-1.4492 2.0726-3.5439 2.0726-4.6549s-1.8391-3.7695-4.087-5.9078c-3.4446-3.2768-3.8874-4.1284-2.8169-5.4183 0.6986-0.8417 2.9698-2.3975 5.0472-3.4573 2.0864-1.0644 5.8078-1.9269 8.314-1.9269 3.8083 0 5.1798 0.5808 8.5398 3.6164 2.6244 2.371 4.0029 4.4713 4.0029 6.0989 0 1.3653-0.725 4.0102-1.611 5.8775-0.8861 1.8673-3.2245 4.8116-5.1964 6.543-1.972 1.7314-5.97 4.2026-8.8846 5.4915-2.9145 1.289-7.6636 2.7111-10.554 3.1603-2.8899 0.4492-6.9437 0.4624-9.0085 0.029zm3.4068-38.394c2.7974-1.4175 6.2045-3.78 7.5712-5.25 1.3667-1.4699 3.5629-4.7951 4.8805-7.3893 1.7662-3.4775 2.3956-6.3532 2.3956-10.945 0-5.3969-0.3588-6.603-2.6871-9.0333-1.4779-1.5425-3.2366-2.8047-3.9082-2.8047s-3.2126 1.9355-5.6465 4.301c-2.4759 2.4063-5.8166 7.2454-7.5833 10.985-1.7369 3.676-3.6008 8.6031-4.142 10.949s-0.995 5.9527-1.0084 8.0152c-0.022 3.3529 0.2438 3.75 2.5088 3.75 1.3932 0 4.822-1.1598 7.6194-2.5774zm-42.153 32.436c-1.375-0.5582-8.4625-1.2721-15.75-1.5864l-13.25-0.5714v-3.416c0-1.8788 0.426-4.2119 0.9466-5.1846 0.5206-0.9728 2.1033-10.056 3.5171-20.184 1.4137-10.129 3.0426-25.098 3.6197-33.266s0.8684-15.031 0.6474-15.252-4.1656 6.9117-8.7657 15.85c-4.6002 8.9387-9.5854 18.502-11.078 21.252-1.493 2.75-3.6463 6.8-4.7853 9-1.1389 2.2-4.8902 9.3623-8.3362 15.916-3.4459 6.554-6.699 11.902-7.229 11.885-0.53-0.017-1.2756-0.6545-1.6568-1.4162-0.3812-0.7616-1.4743-4.3098-2.4289-7.8848-0.9547-3.575-2.9935-10.325-4.5306-15-1.5372-4.675-4.8122-13.9-7.2778-20.5s-5.3063-14.044-6.3126-16.543-4.0732-8.1237-6.8153-12.5l-4.9856-7.9569-1.1966 6.5c-0.6581 3.575-1.5036 14.15-1.8788 23.5-0.6167 15.368-0.4794 17.804 1.4303 25.38 1.1619 4.6088 3.6884 11.472 5.6145 15.251 1.926 3.7794 3.5019 7.6 3.5019 8.4902 0 1.4408-1.2914 1.5392-11.75 0.8955-6.4625-0.3978-12.27-1.1465-12.905-1.6637-0.8493-0.6913-0.5317-2.0558 1.1994-5.153 1.4963-2.6772 3.2436-9.1311 4.7937-17.706 1.3416-7.4215 2.8084-19.569 3.2595-26.994 0.4512-7.425 0.8388-20.025 0.8614-28 0.028-9.9098-0.4057-15.847-1.3705-18.755-0.7764-2.3403-1.1541-4.5126-0.8392-4.8275s7.9127-0.2001 16.884 0.255l16.312 0.8274 2.1579 8.2242c1.1868 4.5233 3.6225 12.398 5.4125 17.5 1.7901 5.1017 5.8889 14.676 9.1086 21.276 3.2196 6.6 6.5293 12.867 7.3548 13.927 0.8255 1.0599 1.6602 1.7349 1.8548 1.5 0.1946-0.2348 2.6136-4.477 5.3754-9.427s9.1318-17.421 14.156-27.714c5.0238-10.293 9.9334-19.142 10.91-19.665 1.0422-0.5578 6.5177-0.6758 13.251-0.2856l11.475 0.6648-0.1534 3c-0.084 1.65-1.0857 6.6-2.225 11s-3.0558 13.625-4.2589 20.5c-1.7896 10.227-2.1841 16.318-2.1694 33.5 0.014 16.579 0.3766 22.342 1.7218 27.374 0.9371 3.5056 1.4662 6.9931 1.1758 7.75-0.2905 0.7569-0.8798 1.3476-1.3095 1.3127-0.4298-0.035-1.9064-0.5201-3.2814-1.0783zm273.25-54.564c-1.4692-0.283-2.25-1.1518-2.25-2.5037 0-1.9164 0.4169-2.0273 5.6053-1.4919 3.0829 0.3182 5.8385 0.8118 6.1235 1.0968 0.2851 0.2851 0.2518 1.2127-0.074 2.0614-0.3843 1.0015-1.7438 1.4953-3.8735 1.4069-1.8048-0.075-4.2939-0.3311-5.5314-0.5695zm145.25-125.08c-1.1-0.3983-3.8643-1.7181-6.1428-2.933-2.2786-1.2148-5.9897-4.3617-8.2471-6.9931-2.2573-2.6314-4.9541-6.5844-5.9929-8.7844s-2.4003-7.3021-3.0257-11.338c-0.6253-4.036-0.8539-9.661-0.5079-12.5 0.3459-2.839 1.2846-7.1869 2.086-9.6619 0.8013-2.475 2.5363-6.3508 3.8554-8.6128 1.3192-2.2621 4.0033-5.5218 5.9646-7.2439 1.9613-1.722 5.3747-4.0537 7.5854-5.1815s6.8297-2.3889 10.264-2.8024 8.1429-0.5708 10.462-0.3496c3.2734 0.3121 5.3248 1.3977 9.1643 4.8498 2.7207 2.4462 7.1477 7.236 9.8376 10.644 2.69 3.4081 6.5345 8.6094 8.5435 11.559 3.3695 4.9467 3.6526 5.9208 3.6526 12.568 0 3.9635-0.7241 9.6505-1.6091 12.638-0.885 2.9874-2.7333 7.3535-4.1073 9.7025-1.374 2.3491-4.4015 5.8306-6.7278 7.7368s-6.2155 4.1848-8.6427 5.0634c-2.5079 0.9079-8.7302 1.7629-14.413 1.9805-5.5 0.2106-10.9 0.057-12-0.3412zm14.665-9.4605c1.3214-1.7875 2.9945-4.6 3.718-6.25s2.2008-5.7 3.2828-9c1.0821-3.3 2.2242-10.171 2.538-15.27 0.4709-7.6499 0.2912-9.5784-1.0286-11.037-0.8795-0.9719-2.2913-3.4236-3.1372-5.4483-0.846-2.0248-1.5382-5.7208-1.5382-8.2135 0-4.3174-0.1351-4.5321-2.854-4.5321-1.6177 0-3.9634 1.0282-5.4152 2.3737-1.4087 1.3056-3.4377 4.1181-4.5089 6.25-1.0713 2.132-2.6632 6.1263-3.5376 8.8763-0.8745 2.75-2.0616 8.5229-2.638 12.829-0.725 5.4158-0.7302 10.634-0.017 16.931 0.676 5.967 1.7377 10.246 3.0824 12.422 1.7408 2.8165 2.6267 3.319 5.8511 3.319 3.1274 0 4.2249-0.575 6.2023-3.25zm26.148-37.5c-0.9533-1.5125-3.6326-5.225-5.954-8.25s-6.0333-7.506-8.2485-9.9579c-2.2153-2.4518-4.2729-4.2128-4.5723-3.9134-0.2995 0.2995-0.2529 2.6724 0.1036 5.2731 0.3565 2.6008 1.9051 6.6118 3.4414 8.9134 1.9673 2.9473 4.6598 5.131 9.1052 7.3846 3.4715 1.7598 6.6597 3.2223 7.0849 3.25 0.4252 0.028-0.01-1.1873-0.9603-2.6998zm-102.81 41.86c-2.2-1.0154-5.0646-3.0025-6.3658-4.4158-1.4529-1.5781-2.5457-4.2336-2.8319-6.8819-0.2564-2.3717 0-6.1123 0.5616-8.3123 0.5652-2.2 2.8444-9.1812 5.065-15.514 3.0478-8.6917 4.0838-13.24 4.2266-18.557 0.1543-5.7459-0.2388-7.8049-2.1343-11.178-1.3002-2.3135-3.578-4.6537-5.1723-5.3141-1.5669-0.649-2.8489-1.7918-2.8489-2.5396s1.0125-1.566 2.25-1.8183c1.2375-0.2522 4.725-0.7285 7.75-1.0584s7.7822-1.7009 10.572-3.0467c2.8512-1.3756 6.5726-4.3048 8.5-6.6904 1.8856-2.3339 3.8897-5.1486 4.4535-6.2548 0.5639-1.1063 1.8014-2.1609 2.75-2.3436 0.9487-0.1827 1.7249 0.2634 1.7249 0.9915 0 0.728-0.6672 4.4735-1.4826 8.3233-0.8155 3.8498-1.4905 8.0121-1.5 9.2496-0.015 1.9934 0.482 2.25 4.3602 2.25 2.6545 0 4.8634 0.5854 5.6119 1.4873 0.6788 0.818 0.9731 2.168 0.6538 3-0.42 1.0943-2.0884 1.5127-6.0323 1.5127h-5.4518l-0.6532 6.75c-0.3593 3.7125-0.7653 8.1-0.9023 9.75-0.1369 1.65 0.049 5.925 0.4134 9.5 0.3643 3.575 0.4613 7.0625 0.2157 7.75-0.2457 0.6875-2.0861 1.2544-4.0898 1.2598-2.0036 0.01-5.893 1.0605-8.643 2.3448s-6.4786 3.5835-8.2859 5.1094c-1.8072 1.5258-3.9447 4.0483-4.75 5.6055-0.8052 1.5572-1.4641 4.0081-1.4641 5.4466s0.4634 3.4812 1.0297 4.5393c0.5663 1.0582 2.4209 2.6434 4.1214 3.5228 1.9783 1.023 4.2537 1.3809 6.3175 0.9937 2.136-0.4007 3.615-1.4598 4.3785-3.1355 0.6341-1.3918 1.1529-4.1058 1.1529-6.0312 0-2.4913-0.7546-4.2-2.6172-5.9262-1.5127-1.4019-2.3773-3.0509-2.0487-3.9071 0.3127-0.8148 2.3725-2.4018 4.5774-3.5267 2.4443-1.247 5.9457-2.0452 8.972-2.0452 3.8804 0 5.6342 0.5648 8.0398 2.5889 2.4536 2.0646 3.0767 3.3679 3.0767 6.4349 0 2.1153-0.4436 5.0127-0.9857 6.4387-0.5422 1.426-3.0799 4.8315-5.6393 7.5678-3.4361 3.6734-5.9727 5.3667-9.6958 6.4724-2.7732 0.8235-6.873 1.4874-9.1107 1.4754s-5.8685-0.8527-8.0685-1.8681zm-46.485-5.5058c-0.4985-0.4927-0.6727-2.0677-0.387-3.5l0.5195-2.6042h-7.4752c-6.6982 0-7.3814 0.1751-6.5736 1.6843 0.4958 0.9263 0.9015 2.008 0.9015 2.4037 0 0.3958-6.8551 0.4102-15.234 0.032-8.3786-0.3781-15.644-1.0972-16.144-1.5981-0.5476-0.5476-0.4651-2.0293 0.2069-3.7163 0.6146-1.5431 1.658-4.1557 2.3185-5.8057s1.3002-3.9 1.4216-5c0.1213-1.1 0.943-5.5271 1.8258-9.8379 0.8829-4.3109 1.6052-9.7941 1.6052-12.185 0-2.3909-0.4565-5.5477-1.0145-7.0153l-1.0145-2.6683 8.5147 0.3532c6.3335 0.2628 8.5146 0.033 8.5145-0.8968-1e-4 -0.8942-2.2425-1.25-7.8779-1.25h-7.8776l-0.5633-8.75c-0.3098-4.8125-0.881-10.059-1.2694-11.659l-0.706-2.9093 22.291 1.3538 3.0874-5.0176c2.6585-4.3207 3.5269-5.0167 6.2516-5.0106 1.7403 0 6.2581 0.2993 10.04 0.6564l6.8754 0.6492 1.8831 4.2572c1.6358 3.6979 2.3948 4.3437 5.7772 4.9151 2.1417 0.3618 5.348 1.7306 7.1252 3.0418 1.7771 1.3111 4.1485 3.8665 5.2697 5.6786 1.5108 2.4417 2.0586 5.0948 2.1163 10.249l0.078 6.9539-4.7639-0.2803c-2.6202-0.1542-6.1077 0.015-7.75 0.3755-1.6424 0.3607-2.9861 1.0701-2.9861 1.5764s3.4275 0.9205 7.6167 0.9205c7.4221 0 7.6002 0.057 6.9751 2.25-0.3527 1.2375-1.3052 4.7071-2.1166 7.7101-0.8113 3.0031-1.4752 9.1479-1.4752 13.655v8.1951l-5.8628-0.5316c-3.4428-0.3122-6.6418-0.079-7.75 0.5644-1.529 0.888-0.7483 1.1151 4.1128 1.1967 3.3 0.055 6.8173 0.4229 7.8162 0.8167 0.9988 0.3938 2.8726 3.3154 4.1638 6.4925l2.3478 5.7765-14.953-0.3128c-8.2243-0.172-15.361-0.7159-15.86-1.2086zm5.7519-11.076c2.8967-1.3486 5.5749-3.2567 5.9516-4.2402 0.3766-0.9835 1.657-3.222 2.8453-4.9744 1.1882-1.7524 2.4573-5.0427 2.8201-7.3117 0.3688-2.3066 0.1521-5.8196-0.4916-7.9682-0.6333-2.1135-2.784-6.0233-4.7795-8.6884-2.1018-2.8072-5.5018-5.7921-8.0822-7.0956-3.0744-1.553-6.1697-2.237-9.9923-2.2081-3.2643 0.025-6.8197 0.7433-8.6596 1.75-1.7168 0.9395-4.7201 3.1269-6.674 4.8609s-4.2085 4.434-5.0103 6c-0.8017 1.566-1.7622 4.6811-2.1343 6.9225-0.3801 2.2895-0.155 6.1471 0.5138 8.8032 0.8492 3.3722 2.5059 6.0432 5.7779 9.3153 2.5231 2.523 5.9512 5.1815 7.6179 5.9077 1.6668 0.7261 5.7305 1.3335 9.0305 1.3496 4.3168 0.021 7.4776-0.6585 11.267-2.4226zm-22.267-3.7472c-2.7497-1.8766-5.7863-4.9576-6.7479-6.8467-1.0977-2.1562-1.742-5.6677-1.731-9.4346 0.014-4.8402 0.5643-6.8698 2.8464-10.5 1.8652-2.9669 4.3661-5.2665 7.3405-6.75 2.8563-1.4244 6.3059-2.2439 9.4021-2.2335 3.2013 0.011 6.272 0.7954 8.8904 2.2718 2.2 1.2404 5.4625 4.4339 7.25 7.0966 2.603 3.8774 3.25 5.8507 3.25 9.9124 0 3.069-0.8095 6.7436-2.0503 9.3067-1.1277 2.3295-3.7152 5.5057-5.75 7.0583-3.0779 2.3484-4.8762 2.8824-10.7 3.177-6.5949 0.3336-7.2901 0.1565-12-3.058zm18.3-0.192c1.4852-0.7759 3.9092-2.6884 5.3867-4.25s3.165-4.1061 3.75-5.6544 1.0636-4.1874 1.0636-5.8646c0-1.6773-1.1676-5.1949-2.5946-7.8169-1.4271-2.622-3.9839-5.7943-5.6817-7.0496-1.8092-1.3375-5.0544-2.4713-7.8398-2.7389-3.5025-0.3366-5.888 0.097-9.0683 1.6494-2.3736 1.1583-5.3954 3.7014-6.7153 5.6513-1.3962 2.0627-2.5947 5.5745-2.866 8.3982-0.2565 2.6692 0.049 6.4144 0.6787 8.3226 0.6298 1.9082 2.2143 4.4741 3.5212 5.7018 1.3069 1.2278 4.1064 2.8492 6.221 3.6032 2.1147 0.754 5.5547 1.3906 7.6445 1.4147 2.0898 0.024 5.0148-0.5909 6.5-1.3668zm-11.3-0.2645c-1.1-0.2907-3.463-1.6309-5.251-2.9783-1.7881-1.3474-3.9752-3.8502-4.8603-5.5617-1.0927-2.113-1.472-4.767-1.1816-8.268 0.2412-2.909 1.2699-6.318 2.3602-7.8219 1.063-1.4662 3.876-3.6274 6.2512-4.8027 3.208-1.5874 5.4739-2.0066 8.8122-1.6303 2.8182 0.3176 5.4393 1.3886 7.0294 2.8723 1.3945 1.3012 3.4441 3.6342 4.5546 5.1844 1.227 1.7128 1.9983 4.3322 1.966 6.6765-0.029 2.1219-0.7186 5.1285-1.5317 6.6814-0.8131 1.553-2.9792 4.2636-4.8137 6.0237-2.263 2.1714-4.6212 3.3533-7.3353 3.6767-2.2 0.262-4.9 0.2386-6-0.052zm10.119-7.2344c1.7156-1.0461 3.6047-3.2944 4.198-4.9962 0.9348-2.6816 0.8481-3.0942-0.6502-3.0942-1.0104 0-2.2091 1.2728-2.8849 3.0631-0.7331 1.9423-2.2769 3.4861-4.2192 4.2192-1.6847 0.6359-3.0631 1.5075-3.0631 1.937 0 0.4294 0.7875 0.779 1.75 0.777 0.9625 0 3.1537-0.8597 4.8694-1.9059zm-13.16-11.668c0.9289-1.4178 3.0057-3.0368 4.615-3.5978 1.6092-0.561 2.9259-1.651 2.9259-2.4222s-0.4644-1.4022-1.0321-1.4022-2.5564 0.6369-4.4195 1.4154c-1.8631 0.7784-3.8736 2.3238-4.4679 3.4342s-1.0805 2.7235-1.0805 3.5847c0 0.8611 0.3983 1.5657 0.885 1.5657 0.4868 0 1.6451-1.16 2.5741-2.5778zm-13.459 18.778c0-0.44-0.54-1.34-1.2-2s-3.0799-1.2-5.3775-1.2c-2.3839 0-4.6823 0.6082-5.3531 1.4165-0.9332 1.1244-0.8039 1.5128 0.6275 1.884 0.9917 0.2571 3.9406 0.5197 6.5531 0.5835 2.6125 0.064 4.75-0.244 4.75-0.684zm36.748-40.74c-0.2814-2.4974-1.3097-5.4224-2.285-6.5-0.9753-1.0777-2.8128-1.9595-4.0835-1.9595-1.2706 0-3.9008 1.3966-5.845 3.1036-1.9441 1.707-3.5348 3.4495-3.5348 3.8722s1.6875 1.0449 3.75 1.3826 5.325 1.465 7.25 2.5052c1.925 1.0403 3.896 1.9465 4.3801 2.0139 0.484 0.067 0.6497-1.9207 0.3682-4.418zm-20.762-1.9374c1.1148-1.8038 4.0444-5.1393 6.5103-7.4123 2.4659-2.2729 6.1754-4.9017 8.2434-5.8416s3.9056-1.7929 4.0837-1.8956c0.178-0.1027-0.3648-1.5181-1.2063-3.1453-1.4505-2.805-1.9345-2.9874-9.3237-3.512-7.5269-0.5344-7.8707-0.462-10.039 2.1157-1.2348 1.468-2.2473 2.9762-2.25 3.3516 0 0.3755 0.8227 0.9453 1.8343 1.2664 1.7673 0.5609 1.772 0.7885 0.1209 5.8174-0.9451 2.8785-1.9507 7.1139-2.2345 9.412-0.4047 3.276-0.2192 4.0645 0.8588 3.6508 0.7563-0.2902 2.2871-2.0034 3.4019-3.8071zm-8.3718-6.6992c-0.3495-1.7473-0.8305-3.3721-1.069-3.6106-0.2384-0.2385-3.3838-0.6704-6.9896-0.9598l-6.556-0.5263v8.2738h15.25zm-65.271 61.194c-2.286-0.4843-6.0187-1.8307-8.2951-2.992-2.2763-1.1613-5.8537-3.6608-7.9498-5.5545-2.096-1.8936-5.4575-6.7116-7.47-10.707-3.2047-6.3618-3.6675-8.1949-3.7275-14.764-0.038-4.125 0.4297-9.6761 1.0386-12.336 0.6088-2.6597 2.0461-6.6767 3.1939-8.9266 1.1479-2.25 4.3505-6.4842 7.1171-9.4094 2.7665-2.9252 7.3293-6.4397 10.14-7.81 2.8103-1.3703 8.0345-2.8909 11.61-3.3791 4.7632-0.6505 7.9163-0.5203 11.801 0.4871 2.9153 0.7561 6.5153 2.0114 8 2.7894 1.4847 0.7781 3.679 2.3397 4.8762 3.4703 1.1973 1.1306 3.3348 3.5738 4.75 5.4293 1.6892 2.2146 2.5732 4.6405 2.5732 7.0613 0 2.0283-0.663 5.2746-1.4734 7.2141-0.8103 1.9395-2.4027 4.7078-3.5386 6.1519s-3.6828 3.7246-5.6597 5.068c-1.9769 1.3433-6.342 3.5192-9.7003 4.8353s-8.3609 2.6509-11.117 2.9662c-2.756 0.3153-6.586 0.6441-8.511 0.7307-3.3453 0.1504-3.491 0.312-3.2975 3.6573 0.1114 1.925 0.7597 5.5102 1.4408 7.9671 0.7877 2.842 2.7462 5.975 5.3836 8.6124 2.6847 2.6847 5.3483 4.3363 7.5593 4.6871 2.4267 0.3851 3.7753 0.08 4.6638-1.0536 0.6875-0.8774 1.25-3.4997 1.25-5.8274 0-3.1073-0.6965-5.0599-2.6207-7.3467-2.5048-2.9767-2.5438-3.1996-0.8824-5.0354 0.9561-1.0565 3.9849-2.6671 6.7308-3.5791 3.0343-1.0078 6.5566-1.4484 8.9806-1.1233 2.1936 0.2943 5.0691 1.5503 6.39 2.7913 1.4738 1.3845 2.4017 3.3862 2.4017 5.1808 0 1.6085-0.725 4.4523-1.611 6.3196-0.8861 1.8673-3.1527 4.7486-5.0369 6.403-1.8843 1.6544-5.7436 4.1824-8.5764 5.6179-3.1982 1.6206-7.2591 2.7377-10.713 2.9468-3.0594 0.1853-7.4329-0.059-9.7188-0.5436zm2.2216-36.907c2.236-1.0155 5.7062-3.2871 7.7117-5.0479 2.0054-1.7609 4.617-4.7723 5.8035-6.6921 1.1866-1.9198 2.5363-5.1509 2.9994-7.1801 0.5126-2.2458 0.4283-5.2409-0.2153-7.6543-0.5816-2.1806-1.8368-4.9556-2.7894-6.1666-1.7085-2.172-1.7853-2.1779-5.6788-0.4347-2.6168 1.1715-5.2026 3.5903-7.6727 7.1767-2.0492 2.9753-4.1806 6.9801-4.7364 8.8996-0.5558 1.9194-1.4573 6.2605-2.0033 9.6468s-0.7176 6.8738-0.3814 7.75 1.1257 1.5831 1.7543 1.5711c0.6287-0.012 2.9724-0.8529 5.2084-1.8685zm-56.565 31.954-8.5-0.5637-0.3331-4.5c-0.1832-2.475 0.1857-7.875 0.8197-12 0.6341-4.125 2.0033-9.8305 3.0426-12.679s2.8079-9.7596 3.9302-15.358c1.1224-5.5984 2.0406-11.656 2.0406-13.46 0-1.8047-0.8224-4.2968-1.8276-5.5382-1.3548-1.6732-2.2549-2.0178-3.4799-1.3322-0.9088 0.5086-2.7864 2.4618-4.1724 4.3404-1.386 1.8787-2.5201 3.9567-2.5201 4.6177 0 0.6611-1.564 4.5112-3.4756 8.5557-2.6502 5.6072-3.7236 9.5707-4.5193 16.688-0.574 5.1336-0.7455 12.334-0.3812 16 0.3643 3.6663 1.0647 7.7519 1.5564 9.079 0.5164 1.3935 0.5214 2.7854 0.012 3.2949-0.4919 0.4919-6.7375 0.573-14.12 0.1832-13.054-0.6891-13.252-0.7349-14.24-3.2949-0.6807-1.7634-0.6406-5.4487 0.1251-11.49 0.62-4.8918 2.0508-11.417 3.1797-14.5 1.1288-3.0833 3.3833-9.881 5.01-15.106 2.2411-7.1982 2.8065-10.547 2.3337-13.822-0.3432-2.3771-1.4916-5.1896-2.552-6.25-1.0603-1.0603-2.8377-1.9279-3.9497-1.9279-1.381 0-3.293 1.9669-6.0325 6.2053-2.2058 3.4129-4.2473 7.3504-4.5365 8.75s-1.1688 4.7947-1.9545 7.5447c-0.7858 2.75-2.0864 9.5-2.8904 15-1.0672 7.3013-1.2145 11.889-0.5457 17 0.5038 3.85 0.9307 7.6205 0.9487 8.3789 0.025 1.0657-1.0459 1.2409-4.7173 0.7716-2.6125-0.334-9.397-0.6701-15.077-0.747-7.9977-0.1082-10.452-0.4663-10.882-1.5877-0.3056-0.7964 0.6136-4.4558 2.0427-8.1319s3.3477-10.509 4.2637-15.184c1.3089-6.681 1.5384-11.665 1.072-23.291-0.3886-9.6898-1.1854-16.67-2.3101-20.238-0.9442-2.9955-1.4129-5.7503-1.0416-6.1216 0.3714-0.3714 6.6394-0.085 13.929 0.6366 7.2894 0.7216 14.044 1.7122 15.009 2.2015 1.6353 0.8284 1.6458 1.1023 0.1526 3.9898-0.8818 1.7052-2.4594 7.3565-3.5059 12.558-1.0464 5.2019-1.8863 10.877-1.8665 12.611 0.033 2.8861 0.1895 2.7296 1.8464-1.8467 0.9957-2.75 3.0326-7.4031 4.5265-10.34s4.5771-7.3591 6.8517-9.8268c2.2746-2.4676 5.3741-5.127 6.8878-5.9097 1.5137-0.7828 5.1451-1.4233 8.0697-1.4233 3.9888 0 6.2144 0.6095 8.9068 2.439 1.974 1.3414 4.3285 3.9969 5.2321 5.9011s1.6429 4.4067 1.6429 5.5611c0 1.1543 0.207 2.0988 0.4599 2.0988 0.253 0 2.5564-2.2412 5.1187-4.9805 3.788-4.0497 5.9514-5.3969 11.576-7.2083l6.9169-2.2277 3.6385 1.9583c2.0012 1.077 4.9102 3.7132 6.4645 5.8583 2.0583 2.8406 2.8259 5.0679 2.8259 8.1992 0 2.3646-0.9452 9.1595-2.1006 15.1-1.6095 8.2758-2.0049 13.395-1.6914 21.899 0.3537 9.5957 0.7827 11.862 3.1677 16.737 1.5172 3.101 2.4768 6.0942 2.1324 6.6514-0.3443 0.5572-3.6371 0.9293-7.3171 0.8268-3.68-0.1024-10.516-0.4399-15.191-0.75zm-126.25-7.2467c-2.0647-0.4331-5.8897-1.8789-8.5-3.2129-2.6102-1.334-6.137-3.9282-7.8372-5.7648-1.7003-1.8366-3.9939-4.6893-5.0971-6.3393-1.1031-1.65-2.5392-4.5717-3.1913-6.4928-0.6521-1.921-1.6229-7.7104-2.1574-12.865-0.7655-7.3817-0.6737-10.376 0.4319-14.1 0.7721-2.5999 2.3811-6.6428 3.5756-8.9841 1.1944-2.3413 3.92-6.1536 6.0569-8.4718 2.1368-2.3182 6.2922-5.4328 9.2343-6.9213 2.942-1.4886 7.8777-3.118 10.968-3.621 3.4624-0.5635 8.2054-0.5483 12.357 0.04 3.706 0.5249 8.1855 1.8487 9.9543 2.9419s5.0707 3.9996 7.3373 6.4587c3.2617 3.5385 4.1213 5.2336 4.1213 8.1274 0 2.0109-0.5295 5.4237-1.1767 7.5838-0.6472 2.1602-2.8534 5.6552-4.9026 7.7668s-5.8497 5.0839-8.4455 6.6051c-2.5958 1.5213-8.1521 3.5874-12.347 4.5915-4.1953 1.004-9.7653 1.829-12.378 1.8333-2.6125 0-4.75 0.3762-4.75 0.8263 0 0.4502 0.7246 3.2627 1.6103 6.25 0.8857 2.9874 2.4794 7.1377 3.5415 9.223 1.0622 2.0853 2.8125 4.6728 3.8897 5.75 1.2798 1.2798 3.3196 1.9585 5.8859 1.9585 3.0518 0 4.3895-0.5874 6-2.6348 1.1399-1.4492 2.0726-3.5439 2.0726-4.6549s-1.8391-3.7695-4.087-5.9078c-3.4446-3.2768-3.8874-4.1284-2.8169-5.4183 0.6986-0.8417 2.9698-2.3975 5.0472-3.4573 2.0864-1.0644 5.8078-1.9269 8.314-1.9269 3.8083 0 5.1798 0.5808 8.5398 3.6164 2.6244 2.371 4.0029 4.4713 4.0029 6.0989 0 1.3653-0.725 4.0102-1.611 5.8775-0.8861 1.8673-3.2245 4.8116-5.1964 6.543-1.972 1.7314-5.97 4.2026-8.8846 5.4915-2.9145 1.289-7.6636 2.7111-10.554 3.1603-2.8899 0.4492-6.9437 0.4624-9.0085 0.029zm3.4068-38.394c2.7974-1.4175 6.2045-3.78 7.5712-5.25 1.3667-1.4699 3.5629-4.7951 4.8805-7.3893 1.7662-3.4775 2.3956-6.3532 2.3956-10.945 0-5.3969-0.3588-6.603-2.6871-9.0333-1.4779-1.5425-3.2366-2.8047-3.9082-2.8047s-3.2126 1.9355-5.6465 4.301c-2.4759 2.4063-5.8166 7.2454-7.5833 10.985-1.7369 3.676-3.6008 8.6031-4.142 10.949s-0.995 5.9527-1.0084 8.0152c-0.022 3.3529 0.2438 3.75 2.5088 3.75 1.3932 0 4.822-1.1598 7.6194-2.5774zm-42.153 32.436c-1.375-0.5582-8.4625-1.2721-15.75-1.5864l-13.25-0.5714v-3.416c0-1.8788 0.426-4.2119 0.9466-5.1846 0.5206-0.9728 2.1033-10.056 3.5171-20.184 1.4137-10.129 3.0426-25.098 3.6197-33.266s0.8684-15.031 0.6474-15.252-4.1656 6.9117-8.7657 15.85c-4.6002 8.9387-9.5854 18.502-11.078 21.252-1.493 2.75-3.6463 6.8-4.7853 9-1.1389 2.2-4.8902 9.3623-8.3362 15.916-3.4459 6.554-6.699 11.902-7.229 11.885-0.53-0.017-1.2756-0.6545-1.6568-1.4162-0.3812-0.7616-1.4743-4.3098-2.4289-7.8848-0.9547-3.575-2.9935-10.325-4.5306-15-1.5372-4.675-4.8122-13.9-7.2778-20.5s-5.3063-14.044-6.3126-16.543-4.0732-8.1237-6.8153-12.5l-4.9856-7.9569-1.1966 6.5c-0.6581 3.575-1.5036 14.15-1.8788 23.5-0.6167 15.368-0.4794 17.804 1.4303 25.38 1.1619 4.6088 3.6884 11.472 5.6145 15.251 1.926 3.7794 3.5019 7.6 3.5019 8.4902 0 1.4408-1.2914 1.5392-11.75 0.8955-6.4625-0.3978-12.27-1.1465-12.905-1.6637-0.8493-0.6913-0.5317-2.0558 1.1994-5.153 1.4963-2.6772 3.2436-9.1311 4.7937-17.706 1.3416-7.4215 2.8084-19.569 3.2595-26.994 0.4512-7.425 0.8388-20.025 0.8614-28 0.028-9.9098-0.4057-15.847-1.3705-18.755-0.7764-2.3403-1.1541-4.5126-0.8392-4.8275s7.9127-0.2001 16.884 0.255l16.312 0.8274 2.1579 8.2242c1.1868 4.5233 3.6225 12.398 5.4125 17.5 1.7901 5.1017 5.8889 14.676 9.1086 21.276 3.2196 6.6 6.5293 12.867 7.3548 13.927 0.8255 1.0599 1.6602 1.7349 1.8548 1.5 0.1946-0.2348 2.6136-4.477 5.3754-9.427s9.1318-17.421 14.156-27.714c5.0238-10.293 9.9334-19.142 10.91-19.665 1.0422-0.5578 6.5177-0.6758 13.251-0.2856l11.475 0.6648-0.1534 3c-0.084 1.65-1.0857 6.6-2.225 11s-3.0558 13.625-4.2589 20.5c-1.7896 10.227-2.1841 16.318-2.1694 33.5 0.014 16.579 0.3766 22.342 1.7218 27.374 0.9371 3.5056 1.4662 6.9931 1.1758 7.75-0.2905 0.7569-0.8798 1.3476-1.3095 1.3127-0.4298-0.035-1.9064-0.5201-3.2814-1.0783zm273.25-54.564c-1.4692-0.283-2.25-1.1518-2.25-2.5037 0-1.9164 0.4169-2.0273 5.6053-1.4919 3.0829 0.3182 5.8385 0.8118 6.1235 1.0968 0.2851 0.2851 0.2518 1.2127-0.074 2.0614-0.3843 1.0015-1.7438 1.4953-3.8735 1.4069-1.8048-0.075-4.2939-0.3311-5.5314-0.5695zm219.25-49.228-8-0.5667 0.5928-6-7.48-0.06c-6.8223-0.055-7.3976 0.094-6.5436 1.6893 0.5673 1.0601 0.5741 1.9733 0.017 2.3175-0.5055 0.3124-7.5234 0.2679-15.595-0.099-10.936-0.497-14.808-1.0117-15.195-2.0201-0.2857-0.7443-0.06-1.91 0.5024-2.5905 0.562-0.6805 1.431-2.8123 1.9313-4.7373l0.9096-3.5 16.861 0.7371-1.9784-2.1996c-1.6172-1.7982-2.8037-2.1273-6.5-1.8032-2.4869 0.2181-5.1966 0.5921-6.0216 0.8311-0.9083 0.2632-1.4181-0.1571-1.2924-1.0654 0.1142-0.825 0.936-4.65 1.8263-8.5 1.0494-4.5382 1.4722-9.7602 1.2021-14.849l-0.4167-7.8486 7.8404 0.356c5.6817 0.258 7.8403 0.021 7.8403-0.8593 0-0.8241-2.4947-1.3094-7.75-1.5074l-7.75-0.2921-0.6218-8c-0.342-4.4-0.9715-9.516-1.3988-11.369l-0.777-3.369 22.132 1.4458 2.8235-4.3539c1.553-2.3946 3.2778-4.7124 3.833-5.1506 0.5551-0.4381 4.6093-0.5268 9.0093-0.197s8.7455 0.8178 9.6565 1.0844c0.9111 0.2666 2.3316 2.172 3.1567 4.2341 1.3179 3.2937 2.1139 3.9066 6.5507 5.0437 3.6522 0.936 6.013 2.3598 8.5268 5.1422 1.9119 2.1163 3.9537 5.5671 4.5372 7.6686 0.5835 2.1014 1.0635 5.7332 1.0665 8.0707l0.01 4.25-6.25 0.014c-3.4375 0.01-7.2574 0.2837-8.4887 0.6137s-1.9923 0.9989-1.691 1.4863c0.3013 0.4875 3.9443 0.8863 8.0957 0.8863 6.3689 0 7.4562 0.2394 6.9601 1.5322-0.3234 0.8427-1.3166 4.3302-2.2071 7.75-0.8906 3.4198-1.5923 9.869-1.5593 14.331l0.06 8.1136-6.8237-0.4882c-4.054-0.2901-7.0766-0.079-7.4469 0.5201-0.3851 0.6231 2.2627 1.2788 6.9305 1.7162 5.7603 0.5398 7.6727 1.1016 8.0549 2.3663 0.2757 0.9121 1.3649 3.5709 2.4205 5.9084l1.9192 4.25-7.737-0.1833c-4.2553-0.1009-11.337-0.4384-15.737-0.75zm-1.5033-11.422c3.3642-1.7202 5.3748-3.7794 7.9833-8.1761 2.8595-4.8196 3.4867-6.8769 3.4867-11.436 0-4.2492-0.6426-6.6563-2.7263-10.212-1.4995-2.5586-4.5558-6.218-6.7919-8.132-2.236-1.914-5.9517-3.9472-8.257-4.5183-2.7413-0.679-5.8976-0.7137-9.1225-0.1003-2.7121 0.5158-6.0047 1.6413-7.3169 2.5011s-4.054 3.2315-6.0929 5.2704c-2.039 2.0389-4.2589 5.5485-4.9332 7.7992-0.6743 2.2506-1.2235 5.3898-1.2204 6.976 0 1.5861 0.4513 4.4883 0.996 6.4493 0.5448 1.9609 2.6134 5.4613 4.5969 7.7787 1.9836 2.3173 5.2479 5.0805 7.254 6.1404 2.5839 1.3652 5.6888 1.9318 10.648 1.9432 5.3557 0.012 8.0563-0.5241 11.497-2.2833zm-20.091-2.401c-1.4268-0.9588-3.9018-2.8684-5.5-4.2434s-3.4683-3.7586-4.1558-5.297-1.25-5.3162-1.25-8.3952c0-4.3794 0.5955-6.5394 2.7357-9.9223 1.6776-2.6516 4.5342-5.303 7.3854-6.8548 3.1895-1.736 6.1772-2.5255 9.5143-2.5142 3.1745 0.011 6.2544 0.8 8.8646 2.2718 2.2 1.2404 5.5104 4.4955 7.3565 7.2335 3.1392 4.6561 3.3242 5.3879 2.8585 11.31-0.399 5.0756-1.0834 7.0597-3.4492 10-1.6233 2.0175-4.4387 4.6806-6.2565 5.9181-2.54 1.7292-4.7176 2.2485-9.4072 2.2434-4.1351 0-6.9383-0.5685-8.6963-1.75zm15.894-1.6541c1.4852-0.7759 3.9092-2.6884 5.3867-4.25s3.165-4.1061 3.75-5.6544 1.0636-4.3697 1.0636-6.2698c0-1.9952-1.1131-5.242-2.6347-7.6849-1.449-2.3266-3.4624-5.0244-4.4742-5.9951-1.0118-0.9708-3.0054-2.2083-4.4304-2.75-1.425-0.5418-4.2662-0.9851-6.3139-0.9851-2.0476 0-5.7308 1.0125-8.1849 2.25-3.2595 1.6437-5.0682 3.4524-6.7119 6.7119-1.4084 2.793-2.25 6.2714-2.25 9.2997 0 2.6608 0.6323 6.0529 1.405 7.5381 0.7728 1.4852 2.4603 3.6556 3.75 4.8231 1.2898 1.1674 3.695 2.5944 5.345 3.171s4.9349 1.0839 7.2997 1.1273c2.3648 0.043 5.5148-0.5559 7-1.3318zm-14.976-2.3677c-1.4721-0.9709-3.6545-3.0085-4.8498-4.528-1.1952-1.5195-2.4055-4.4947-2.6894-6.6116-0.2839-2.1168 0.013-5.4538 0.6608-7.4154 0.6474-1.9616 2.715-4.9169 4.5947-6.5673 1.8797-1.6503 5.0934-3.315 7.1417-3.6993 2.3523-0.4413 5.1996-0.1832 7.7298 0.7007 2.6088 0.9113 5.1537 2.9086 7.2973 5.7271 2.5331 3.3305 3.2915 5.3121 3.2915 8.5999 0 3.1371-0.7783 5.3468-2.9293 8.3161-1.6112 2.2241-3.9613 4.7666-5.2225 5.65-1.372 0.961-4.3129 1.6036-7.3207 1.5996-3.1175 0-6.0443-0.6772-7.7041-1.7718zm14.176-1.4716c1.8125-1.2375 3.9906-3.375 4.8403-4.75 1.3406-2.1694 1.0897-2.0793-1.8975 0.6809-1.8934 1.7494-4.6842 3.4868-6.2019 3.8607-1.5177 0.374-3.0068 1.0801-3.309 1.5692-0.3023 0.4891 0.3104 0.8892 1.3615 0.8892s3.3941-1.0125 5.2066-2.25zm0.9063-4.5c1.6157-1.5125 3.2112-3.7092 3.5456-4.8815 0.4028-1.4121 0.092-2.3297-0.9215-2.7186-1.0722-0.4114-1.9729 0.4743-3.0123 2.9619-0.9701 2.3216-2.5262 3.9426-4.5003 4.6877-1.6596 0.6265-3.0175 1.4903-3.0175 1.9198 0 0.4294 1.1179 0.7807 2.4842 0.7807 1.3664 0 3.8062-1.2375 5.4218-2.75zm-14.613-10.263c0.2895-1.1074 2.142-2.6884 4.1166-3.5135 1.9746-0.825 3.5901-2.169 3.5901-2.9866s-0.8334-1.4866-1.8521-1.4866-3.3812 1.0271-5.25 2.2823c-2.2115 1.4855-3.5084 3.2312-3.7143 5-0.2157 1.8528 0.145 2.7177 1.1334 2.7177 0.7974 0 1.6867-0.906 1.9763-2.0133zm3.2067-8.7807c1.65-0.6121 4.125-1.2976 5.5-1.5233 1.6072-0.2638 1.0716-0.4576-1.5-0.5427-2.4051-0.08-5.2703 0.6421-7.1862 1.8103-1.7524 1.0685-3.7232 2.9793-4.3796 4.2462-1.1479 2.2158-1.0837 2.2048 1.6862-0.287 1.5838-1.4248 4.2296-3.0913 5.8796-3.7035zm20.271-13.239c-0.3196-3.326-1.234-5.8315-2.6966-7.3883-1.4905-1.5865-2.9249-2.1851-4.3936-1.8336-1.1994 0.2871-3.6432 1.9001-5.4307 3.5844-1.7875 1.6844-3.25 3.3177-3.25 3.6296 0 0.312 2.2816 1.1092 5.0702 1.7716 2.7887 0.6624 6.2762 2.1047 7.75 3.205 1.4739 1.1003 2.8496 2.0148 3.0571 2.0323 0.2074 0.017 0.1596-2.2331-0.1064-5.001zm-20.736-2.5231c1.1412-1.8465 4.3159-5.372 7.0549-7.8346 2.7389-2.4626 6.5393-4.9921 8.4453-5.6211s3.4654-1.5376 3.4654-2.0191c0-0.4814-0.5222-2.0215-1.1605-3.4224-0.9392-2.0614-1.866-2.5471-4.8604-2.5471-2.035 0-5.7201-0.2769-8.1893-0.6153-4.2232-0.5789-4.6268-0.4223-6.8077 2.6405-2.1661 3.042-2.2051 3.3386-0.5937 4.5169 1.5881 1.1612 1.6079 1.6849 0.2499 6.6095-0.8111 2.9416-1.7556 7.0291-2.099 9.0833-0.5157 3.0853-0.3594 3.6334 0.898 3.1508 0.8372-0.3213 2.456-2.0949 3.5971-3.9414zm-8.0344-6.4091c0-1.9078-0.6896-3.3339-1.9342-4-1.0639-0.5693-4.4389-1.0352-7.5-1.0352h-5.5658v8h15zm-11.25-11.751c-1.5125-0.2291-2.75-1.0352-2.75-1.7912s0.4513-1.6535 1.003-1.9944c0.5516-0.3409 3.0266-0.3164 5.5 0.054 3.5018 0.5252 4.497 1.0919 4.497 2.5609 0 1.4276-0.6689 1.85-2.75 1.7366-1.5125-0.082-3.9875-0.3373-5.5-0.5664zm-534.35-38.657c-1.7047-0.7718-4.1103-3.0389-5.3458-5.038-1.5603-2.5246-2.2346-5.1478-2.2079-8.5894 0.021-2.7251 0.7541-6.4272 1.6288-8.2269 0.8748-1.7997 2.7541-4.121 4.1762-5.1584s4.4575-2.0972 6.7455-2.3551c3.6918-0.4161 4.535-0.091 7.4934 2.8862 1.8334 1.8453 4.4674 5.0419 5.8533 7.1036 2.0161 2.9992 2.4114 4.556 1.9779 7.7881-0.298 2.2218-1.2636 5.1412-2.1458 6.4876s-2.6394 3.1264-3.905 3.9557c-1.2656 0.8292-4.2968 1.7422-6.7361 2.0288-2.739 0.3219-5.6203-0.016-7.5345-0.8822zm9.0055-6.0306c1.0483-2.1473 1.9078-5.9723 1.91-8.5 0-2.5277-0.6284-6.2841-1.4012-8.3475-0.7729-2.0634-1.83-3.61-2.3491-3.4369-0.5192 0.173-1.8638 1.5466-2.988 3.0523-1.5072 2.0188-2.1411 4.6605-2.4137 10.06-0.2221 4.3972 0.098 8.1964 0.8006 9.5096 0.6477 1.2103 1.9217 2.0483 2.8529 1.8766 0.9254-0.1707 2.5402-2.0672 3.5885-4.2145zm6.605-14.582c-1.7364-2.1924-3.5742-4.2439-4.084-4.559-0.5099-0.3151-0.927 0.3137-0.927 1.3972 0 1.0836 1.3845 3.1351 3.0767 4.559s3.53 2.5889 4.0841 2.5889c0.554 0-0.4134-1.7937-2.1498-3.9861zm-39.788 18.429c-1.2224-0.8562-2.2225-2.5857-2.2225-3.8434s0.9-4.9027 2-8.0999 2-7.1761 2-8.8421c0-1.6759-0.9145-4.0024-2.0472-5.2081l-2.0471-2.1791 4.2156-0.6741c3.0359-0.4854 5.1719-1.688 7.6327-4.2972l3.4171-3.6232-0.6991 4.6619c-0.6447 4.2993-0.5347 4.6619 1.4145 4.6619 1.1624 0 2.1135 0.45 2.1135 1s-1.125 1-2.5 1c-2.4286 0-2.5 0.2-2.5 7 0 6.6177-0.1244 7-2.2775 7-1.2526 0-3.2741 0.6981-4.4923 1.5513-1.2181 0.8532-2.6666 2.3956-3.2189 3.4276-0.5523 1.0319-0.746 2.5491-0.4304 3.3714s1.2139 1.7408 1.9964 2.041c0.7825 0.3003 2.0977 0.2869 2.9227-0.03 0.825-0.3166 1.5-1.6259 1.5-2.9096s-0.4719-2.6257-1.0486-2.9821c-0.7168-0.443-0.678-1.0944 0.1225-2.059 0.644-0.776 2.3759-1.411 3.8485-1.411 1.4727 0 3.2176 0.54 3.8776 1.2s1.2 2.0446 1.2 3.077c0 1.0323-1.3154 3.1923-2.9231 4.8-2.0689 2.0688-3.9033 2.923-6.2775 2.923-1.8449 0-4.3545-0.7005-5.5769-1.5567zm-16.949-2.1933c-0.268-0.6875-1.5641-1.25-2.8803-1.25-1.3161 0-2.393 0.454-2.393 1.0088 0 0.6364-2.1221 0.7697-5.75 0.3611-3.1625-0.3562-5.8447-0.7173-5.9603-0.8024-0.1157-0.085 0.043-1.1226 0.352-2.3054 0.3916-1.4974 1.5185-2.2708 3.7104-2.5463l3.1479-0.3957-3.1802-0.16c-3.0947-0.1558-3.1552-0.2472-2.25-3.4035 0.5116-1.7838 0.9302-4.4838 0.9302-6 0-2.4076 0.387-2.7566 3.0567-2.7566 2.959 0 3.0069 0.071 1.5 2.2225-0.8562 1.2224-1.555 3.1349-1.553 4.25 0 1.1152 0.8806 3.4656 1.9523 5.2233 1.3378 2.194 2.9823 3.389 5.2463 3.8124 1.8137 0.3392 4.3353 0.2319 5.6034-0.2384 1.2682-0.4704 3.8031-0.6803 5.6332-0.4667 2.3402 0.2732 3.6575 1.113 4.44 2.8306l1.1128 2.4421-6.1156-0.2879c-3.7312-0.1756-6.3056-0.7752-6.6028-1.5379zm-36.017-1.8946c-1.784-0.8795-4.1465-3.0599-5.25-4.8453-1.2103-1.9583-2.0056-4.9846-2.0046-7.6281 8e-4 -2.4101 0.7883-5.948 1.75-7.862 0.9616-1.9141 3.2774-4.5016 5.1463-5.75 2.2096-1.4762 4.893-2.27 7.6733-2.27 3.1406 0 5.092 0.6872 7.3521 2.5889 1.9107 1.6078 3.0767 3.5276 3.0767 5.0658 0 1.3622-0.4863 3.3855-1.0807 4.4961s-2.9569 2.8711-5.25 3.9123c-2.2931 1.0411-5.6318 1.9029-7.4193 1.915-1.7875 0.012-3.25 0.4864-3.25 1.054 0 0.5677 0.6339 2.5494 1.4087 4.4037s2.406 3.688 3.6249 4.0749c1.391 0.4415 2.5091 0.2292 3.0032-0.5702 0.4329-0.7004 0.36-2.3969-0.162-3.7698-0.522-1.373-0.5949-2.8412-0.162-3.2627 0.433-0.4216 1.9122-1.0434 3.2872-1.3818 1.4977-0.3686 3.286-0.04 4.4604 0.8197 1.6919 1.2384 1.7974 1.7929 0.7704 4.0469-0.6545 1.4365-2.6617 3.5091-4.4604 4.6058s-4.6204 1.9854-6.2704 1.9749c-1.65-0.01-4.4597-0.7386-6.2438-1.6181zm7.209-15.459c2.3898-2.0982 3.5298-3.9608 3.5195-5.75-0.01-1.4555-0.413-3.2744-0.8991-4.0421-0.4861-0.7676-1.6016-1.1202-2.479-0.7836-0.8773 0.3367-2.496 2.0898-3.5971 3.8957-1.1011 1.806-2.0037 4.7461-2.0058 6.5336 0 1.7875 0.4306 3.25 0.9615 3.25s2.5559-1.3966 4.5-3.1036zm-28.465 11.764c0-1.837 0.9033-6.8721 2.0074-11.189s1.7409-8.6886 1.4152-9.715c-0.3258-1.0263-1.1166-1.6963-1.7575-1.4889-0.6408 0.2075-2.0592 2.1448-3.152 4.3051-1.5024 2.9698-1.9902 5.9498-2 12.218l-0.013 8.2904-5.5-0.2904c-5.2122-0.2752-5.517-0.4383-5.8239-3.1178-0.1782-1.555 0.6093-5.8999 1.75-9.6552 1.1406-3.7553 2.0739-7.9689 2.0739-9.3636 0-1.3946-0.4698-2.826-1.0438-3.1808-0.5741-0.3549-1.6745-0.1218-2.4452 0.5179-0.7708 0.6397-2.1803 3.4909-3.1323 6.3361s-1.736 7.9443-1.7423 11.331l-0.011 6.1584-5.5625-0.5464c-3.0594-0.3006-5.7481-0.7075-5.975-0.9042-0.2268-0.1967 0.1199-1.5261 0.7706-2.9541 0.6506-1.428 1.4532-5.8174 1.7834-9.7542 0.3454-4.1181 0.1359-8.8327-0.4934-11.102-0.6017-2.1691-0.9017-4.136-0.6667-4.371 0.2349-0.2349 2.9621-0.1104 6.0604 0.2767 5.4103 0.676 5.6082 0.8042 4.9974 3.2376-0.3497 1.3936-0.8925 3.9438-1.2061 5.6671-0.5185 2.8494-0.3485 2.7255 1.8761-1.3667 1.3454-2.475 3.5675-5.1317 4.9378-5.9037 1.5343-0.8645 3.5345-1.142 5.2063-0.7224 1.4968 0.3756 3.2235 1.7979 3.8487 3.1702l1.134 2.4889 2.2456-2.1097c1.2351-1.1603 3.684-2.1802 5.4421-2.2664 2.361-0.1159 3.6998 0.506 5.1218 2.379 1.7169 2.2614 1.8034 3.1039 0.7994 7.7855-0.6193 2.8874-0.9429 7.5962-0.7193 10.464 0.2237 2.8679 0.7626 6.0019 1.1975 6.9644 0.7059 1.562 0.1346 1.75-5.3161 1.75h-6.107zm50.918 0.4748c-1.6389-1.3271-2.3647-3.0586-2.516-6.0019-0.1738-3.381 0.2514-4.5018 2.3275-6.1348 1.3971-1.0989 3.7169-1.9448 5.1553-1.8798 2.5477 0.1153 2.5378 0.138-0.3849 0.8817-2.9375 0.7475-2.9453 0.7659-0.3724 0.8817 1.4451 0.065 3.1758 0.7789 3.8459 1.5864 0.6701 0.8074 1.7377 1.3699 2.3724 1.25 0.6619-0.1251 1.2491 1.2745 1.3769 3.2819 0.1777 2.7921 0.04 3.0955-0.6797 1.5-0.7005-1.5522-0.9183-1.6356-0.9728-0.3724-0.039 0.8951-0.7453 2.1877-1.5703 2.8724s-1.5 0.9352-1.5 0.5567 0.4658-1.5586 1.0352-2.6224c0.5693-1.0639 0.7943-1.9343 0.5-1.9343-0.2944 0-1.3676 0.8325-2.385 1.8499-1.6807 1.6806-1.7035 1.9594-0.25 3.0479 1.4411 1.0792 1.4294 1.148-0.1182 0.6938-0.9449-0.2773-1.9839-0.074-2.309 0.4521-0.3251 0.526 0.194 0.9563 1.1535 0.9563s2.7861-0.9784 4.059-2.1743c1.273-1.1959 2.3145-1.6714 2.3145-1.0567s-1.0001 1.8181-2.2225 2.6743-3.1975 1.5567-4.3892 1.5567-3.2033-0.8393-4.4702-1.8652zm11.082-0.076c0-0.5175 0.45-1.2191 1-1.559s1-2.2011 1-4.1359c0-2.5549-0.8002-4.3181-2.9231-6.441-1.7183-1.7183-3.9851-2.9231-5.5-2.9231-1.4173 0-2.5769-0.41-2.5769-0.9111s1.3334-2.033 2.9631-3.4043c1.6296-1.3713 3.5421-2.7051 4.25-2.9639 0.9563-0.3498 0.9985-0.7784 0.1641-1.6685-0.6176-0.6588-2.5872-1.0526-4.377-0.875-3.1257 0.3101-3.2707 0.519-3.6753 5.2936-0.2316 2.7339-0.8435 5.2317-1.3597 5.5507-0.5161 0.319-2.5195 0.3955-4.4518 0.1699-1.9511-0.2278-3.5134-0.973-3.5134-1.6758 0-0.6961-0.2813-2.6718-0.625-4.3906l-0.625-3.125h4.5898c3.6358 0 4.8229-0.4354 5.7111-2.0951 0.9463-1.7682 1.693-1.9885 4.7852-1.412 2.0151 0.3757 3.9907 1.2596 4.3902 1.964 0.3995 0.7045 2.0286 1.8203 3.6203 2.4796s3.4023 2.3145 4.0237 3.6782c0.6213 1.3637 1.1297 3.3583 1.1297 4.4324 0 1.5059-0.7439 1.9872-3.25 2.1028-3.1367 0.1446-3.1514 0.1646-0.4214 0.574 2.023 0.3033 2.6638 0.8536 2.25 1.9319-0.3182 0.8293-0.5786 3.496-0.5786 5.926 0 4.2425-0.1193 4.4182-3 4.4182-1.65 0-3-0.4234-3-0.941zm-112.11-1.5559c-1.4337-0.7792-3.3829-2.6013-4.3315-4.0491-0.9486-1.4477-1.9707-5.0158-2.2714-7.929-0.4431-4.2931-0.1255-6.046 1.6757-9.2509 1.2223-2.1748 3.4869-4.7012 5.0324-5.6141 1.6013-0.9459 4.9441-1.66 7.7709-1.66 3.5046 0 5.7344 0.6084 7.5957 2.0726 1.8818 1.4802 2.6349 3.0024 2.6349 5.3257 0 2.0864-0.8118 4.0158-2.2636 5.3797-1.2451 1.1696-3.9306 2.8231-5.9679 3.6743-2.0374 0.8513-4.874 1.5477-6.3038 1.5477-2.2281 0-2.5035 0.3215-1.928 2.25 0.3694 1.2375 1.3101 3.2625 2.0905 4.5s2.3227 2.25 3.4272 2.25c1.1046 0 2.2738-0.6917 2.5983-1.5372 0.3244-0.8455-0.1771-2.3847-1.1144-3.4204-1.6123-1.7816-1.5954-1.9415 0.313-2.9628 1.1095-0.5938 2.8771-1.0796 3.928-1.0796s2.6913 0.8626 3.6454 1.9168c1.4023 1.5495 1.5156 2.3263 0.5912 4.0536-0.629 1.1751-2.5773 3.0109-4.3297 4.0794s-4.7612 1.9264-6.6862 1.9065c-1.925-0.02-4.673-0.6739-6.1067-1.4532zm7.7067-15.903c2.3442-2.3441 3.4-4.3246 3.4-6.3775 0-1.6377-0.675-3.5378-1.5-4.2225-1.1714-0.9721-1.8177-0.9812-2.95-0.042-0.7975 0.6619-2.3725 3.109-3.5 5.4382-1.1275 2.3291-2.05 5.2177-2.05 6.4191 0 1.3355 0.6217 2.1842 1.6 2.1842 0.88 0 3.13-1.53 5-3.4zm-24.964 14.658-5.8644-0.3642 0.6545-3.1967c0.36-1.7582 1.0638-6.5717 1.564-10.697 0.5001-4.125 1.1142-9.4125 1.3646-11.75s0.3063-4.25 0.1242-4.25-3.8134 6.6173-8.0696 14.705l-7.7384 14.705-1.8893-5.9551c-1.0391-3.2754-3.0499-9.1052-4.4684-12.955s-3.5153-8.5586-4.6595-10.464c-2.0776-3.4588-2.0814-3.4602-2.7672-1-0.3778 1.3549-0.7119 5.8385-0.7426 9.9635-0.033 4.4289 0.5673 9.1379 1.466 11.5 0.837 2.2 1.7768 4.8146 2.0885 5.8102 0.5019 1.6034 0.01 1.7748-4.3157 1.5-3.759-0.2388-4.7907-0.6553-4.4838-1.8102 0.2193-0.825 1.0207-3.75 1.781-6.5 0.796-2.8792 1.4753-10.831 1.6014-18.747l0.219-13.747 5 0.013c2.75 0.01 5.484 0.3433 6.0756 0.7473 0.5916 0.4041 2.3632 4.465 3.9368 9.0242 1.5737 4.5592 3.8307 9.8958 5.0155 11.859l2.1543 3.5695 2.5299-4.359c1.3914-2.3974 3.9664-7.275 5.7221-10.839 1.7557-3.5641 3.5804-6.72 4.0548-7.0131 0.4743-0.2932 2.9507-0.367 5.503-0.164 3.4567 0.2749 4.5046 0.7236 4.1074 1.7587-0.2933 0.7643-1.2768 5.3292-2.1856 10.144-1.1669 6.1823-1.5021 11.766-1.1408 19.004 0.2813 5.6375 0.2225 10.165-0.1307 10.061-0.3533-0.104-3.2813-0.3529-6.5066-0.5533zm-363.74-181.19c-1.9814-0.3855-5.5814-1.8618-8-3.2808-2.4185-1.419-5.9723-4.3131-7.8973-6.4314-1.925-2.1182-4.85-5.8764-6.5-8.3514s-3.578-5.1102-4.2845-5.8559c-0.8818-0.9309-0.9677-1.7378-0.2738-2.5738 0.6906-0.8322 0.6315-1.597-0.1864-2.415-0.6585-0.6584-1.3199-4.2252-1.4699-7.9262-0.1587-3.9168 0.4354-9.5627 1.4215-13.509 1.212-4.8504 2.0788-6.6325 3.0456-6.2615 0.763 0.2928 1.0736 0.069 0.7133-0.5138-0.3509-0.5677-0.094-1.6876 0.5705-2.4885 0.6647-0.8009 0.9116-1.4562 0.5486-1.4562-0.3629 0 2.0501-2.5875 5.3623-5.75s7.1691-6.7932 8.5709-8.0683 4.2212-2.5509 6.2653-2.8352c2.0441-0.2844 4.3916-0.7869 5.2166-1.1167 0.825-0.3299 3.075-0.7779 5-0.9957s5.2837-0.3627 7.4637-0.3221c2.18 0.041 5.555 0.5896 7.5 1.2198s4.6949 1.9578 6.111 2.9503c1.416 0.9924 3.8351 3.6232 5.3755 5.8462 1.9072 2.752 2.8903 5.55 3.0809 8.7685 0.1865 3.1493-0.3952 6.1632-1.743 9.0305-1.1126 2.3671-3.4326 5.3083-5.1555 6.5362-1.723 1.2278-4.3315 2.9083-5.7968 3.7344-1.4652 0.8262-4.6152 2.6045-7 3.9519-2.3847 1.3474-4.9435 2.3298-5.6862 2.1831-0.7427-0.1466-1.0666 0.1924-0.7198 0.7536 0.36 0.5824-1.2061 1.519-3.6496 2.1826-2.3541 0.6393-5.2845 1.1666-6.512 1.1717-1.2274 0.01-1.9884 0.403-1.691 0.8842 0.2975 0.4813-0.6569 0.875-2.1208 0.875-2.5812 0-2.646 0.1436-2.1446 4.75 0.2844 2.6125 0.8077 6.1 1.1628 7.75s1.4284 4.345 2.3851 5.9889c1.0242 1.7599 3.9806 4.1088 7.1898 5.7125l5.4505 2.7237 2.3483-2.7125c2.0552-2.374 2.271-3.3809 1.7289-8.0677-0.3407-2.9454-1.1703-6.3204-1.8437-7.5001-0.6733-1.1796-1.2421-2.8198-1.264-3.6448-0.022-0.825 1.0861-2.4982 2.4622-3.7182s3.8669-2.5432 5.5351-2.9405c1.6683-0.3972 3.3707-0.6366 3.7832-0.5318s0.75-0.2121 0.75-0.7042c0-0.513 1.5554-0.5439 3.6463-0.072 2.0054 0.4523 4.0455 1.4174 4.5335 2.1447 0.4879 0.7273 1.3115 2.0605 1.8301 2.9626 0.5186 0.9022 0.7519 3.5612 0.5183 5.909-0.2335 2.3478-0.8345 4.5346-1.3355 4.8597s-1.506 2.2546-2.2334 4.2878-1.5833 3.5356-1.902 3.3387c-0.3186-0.197-1.4479 0.277-2.5095 1.0532-1.0615 0.7762-1.3675 1.4113-0.6799 1.4113s0.953 0.4807 0.59 1.0682c-0.3631 0.5875-1.3131 0.8177-2.111 0.5115s-1.1959-0.1443-0.8843 0.3598c0.3115 0.5041-0.4526 1.2346-1.6981 1.6233s-2.602 1.2086-3.0145 1.822c-0.5341 0.7942-0.9961 0.734-1.6048-0.2089-0.7061-1.0936-1.4456-1.0774-4.25 0.093-1.8674 0.7795-4.9702 1.6598-6.8952 1.9563s-5.1212 0.2237-7.1027-0.1617zm-1.8973-32.966c0-0.4962 1.2952-1.3537 2.8782-1.9055 1.5831-0.5519 3.8331-1.8209 5-2.8201 1.167-0.9992 2.1218-2.2917 2.1218-2.8722s0.7875-1.7989 1.75-2.7074 2.2854-2.3106 2.9399-3.1157c0.6544-0.8051 0.9597-1.694 0.6784-1.9753-0.2814-0.2813 0.2789-1.4347 1.2451-2.563 0.9661-1.1284 1.9657-2.8586 2.2214-3.8451 0.2556-0.9864 0.5108-5.6185 0.567-10.294 0.059-4.8944-0.3593-8.991-0.9858-9.6574-0.5984-0.6366-2.3993-1.2662-4.002-1.3991s-4.1484 0.098-5.6571 0.5141c-1.5087 0.4157-2.5171 1.1215-2.2408 1.5685 0.2762 0.4469-0.087 1.4114-0.8065 2.1433-0.7198 0.7318-2.7175 4.9306-4.4394 9.3306s-3.4621 9.125-3.867 10.5-0.8307 3.625-0.9461 5-0.3394 4.7859-0.4977 7.5798c-0.1583 2.7938 0.038 5.6063 0.4354 6.25 0.3978 0.6436 1.3717 1.1702 2.1642 1.1702s1.441-0.406 1.441-0.9022zm391.5 30.998c-2.2-0.8304-4.1509-1.8694-4.3354-2.3089s-0.747-0.5448-1.25-0.2339-0.9146 0.089-0.9146-0.4938c0-0.5824-0.7016-1.059-1.559-1.059-0.8575 0-1.2809-0.45-0.941-1s0.1415-1-0.441-1c-0.5824 0-1.3046 0.02-1.6049 0.045-0.3002 0.024-2.5459-2.0133-4.9904-4.5286-2.4446-2.5152-4.3775-4.8978-4.2954-5.2946 0.082-0.3968-0.1153-1.3964-0.4386-2.2214s-1.2449-3.8605-2.048-6.7455c-0.8957-3.2181-1.3829-8.8491-1.2604-14.569 0.1502-7.0167 0.7912-10.905 2.5904-15.717 1.6254-4.3462 3.8471-7.8458 6.9395-10.931 2.5019-2.4958 5.8522-5.4379 7.4452-6.5379s3.2969-2 3.7865-2c0.4895 0 1.2111-0.4741 1.6036-1.0536 0.3924-0.5796 2.8286-1.5245 5.4136-2.0999 3.3633-0.7486 5.0405-0.7334 5.8967 0.054 0.8815 0.8102 1.0168 0.7805 0.514-0.1127-0.4606-0.8183 0.2233-1.2333 2.1033-1.2765 1.5323-0.035 4.2752-0.1152 6.0954-0.1779 1.8202-0.063 3.7006 0.2867 4.1786 0.7764 0.478 0.4898 1.0137 1.5656 1.1905 2.3906s1.3339 2.491 2.5714 3.7022 2.25 2.6562 2.25 3.2111c0 0.5548 0.9797 1.9215 2.1772 3.0371 1.1975 1.1157 1.8584 2.3473 1.4687 2.737-0.3898 0.3898 0.318 1.2863 1.5727 1.9924l2.2814 1.2839-2.5-0.4076c-1.375-0.2241-2.8641-0.441-3.309-0.4818-0.445-0.041-0.5309-0.5243-0.191-1.0743s0.1479-1-0.4268-1-2.2311-1.7927-3.681-3.9836c-1.45-2.191-3.0002-3.7587-3.4451-3.4838-0.4448 0.275-0.572 1.7301-0.2827 3.2336 0.2893 1.5036 0.6201 3.2832 0.7352 3.9548 0.115 0.6716 0.4912 1.5031 0.8359 1.8478s0.3562 1.3315 0.026 2.193c-0.3966 1.0335-0.2031 1.3203 0.5689 0.8432 0.6435-0.3977 1.1771-0.359 1.1859 0.086 0.01 0.4449 1.3055 2.2715 2.8817 4.059 1.5761 1.7875 3.7188 3.25 4.7615 3.25s2.8959 0.7005 4.1183 1.5567 2.2225 1.2587 2.2225 0.8944-1.1273-2.0773-2.5052-3.8067-3.1778-3.857-3.9998-4.728c-0.8219-0.871-1.2255-1.8525-0.8969-2.1811s1.341-0.3131 2.2497 0.034c0.9087 0.3476 3.2272 2.4214 5.1522 4.6083 1.925 2.187 4.347 4.8561 5.3822 5.9313 1.6647 1.7291 1.8108 2.9948 1.2643 10.953-0.3399 4.949-1.1385 9.6254-1.7747 10.392-0.6362 0.7666-0.887 1.6636-0.5573 1.9933s-0.7768 3.2438-2.4588 6.4758c-1.6821 3.232-3.4486 5.8764-3.9256 5.8764s-0.6083 0.675-0.2917 1.5c0.326 0.8495 0.023 1.5-0.6981 1.5-0.7005 0-0.9929 0.2807-0.6498 0.6238s-0.9838 1.7147-2.9485 3.0481c-1.9648 1.3333-4.8632 2.6824-6.4409 2.9979-1.5778 0.3156-2.6539 0.9212-2.3914 1.3459 0.2625 0.4246-2.5598 1.5164-6.2717 2.426-3.7119 0.9097-8.3214 1.5436-10.243 1.4088s-5.2946-0.9245-7.4946-1.7549zm24.75-5.2689c1.5125-0.5881 2.75-1.429 2.75-1.8685 0-0.4396 1.4099-1.1089 3.1331-1.4874 1.7465-0.3836 2.6411-0.9923 2.0212-1.3754-0.7561-0.4673-0.5588-1.1867 0.6169-2.2484 0.9508-0.8587 2.4793-2.4875 3.3966-3.6196 0.9174-1.1321 1.4543-2.2719 1.1933-2.533-0.2611-0.261 0.4108-2.4366 1.4931-4.8345s2.2702-6.1376 2.6397-8.3103c0.3696-2.1727 1.4221-4.5417 2.339-5.2645 0.9169-0.7227 1.2171-1.2543 0.6671-1.1812-0.55 0.073-1.3533 0.08-1.7852 0.014-0.4318-0.065-0.3091-1.008 0.2729-2.0953 0.7712-1.441 0.7155-2.5255-0.2054-4-0.6949-1.1127-1.6317-2.0231-2.0819-2.0231-0.4501 0-0.5126 0.4949-0.1387 1.0998 0.4086 0.6612-0.2657 0.581-1.691-0.2011-1.3039-0.7155-3.2512-1.4467-4.3273-1.625s-2.2514-0.8013-2.6118-1.3843c-0.3604-0.5831-0.9424-1.0218-1.2934-0.9748s-1.1363 0.085-1.7452 0.085c-0.6088 0-0.85-0.6696-0.536-1.488 0.3141-0.8184 0.2497-1.4149-0.143-1.3255-0.3927 0.089-1.9689-0.4461-3.5026-1.1901-1.6776-0.8137-2.5786-1.9-2.2615-2.7264 0.29-0.7556 0.082-1.0989-0.4614-0.7629-0.5437 0.336-0.9885-0.2891-0.9885-1.3891s-0.4769-2.2947-1.0598-2.655c-0.6729-0.4158-0.3991-1.1946 0.75-2.1331 0.9954-0.813 1.3151-1.2352 0.7105-0.9382s-1.6739-0.5337-2.3763-1.846c-0.7983-1.4917-1.0243-3.7327-0.6029-5.9789 0.5164-2.7528 0.3135-3.7313-0.868-4.1846-0.8481-0.3255-1.2501-1.0641-0.8933-1.6415 0.4091-0.6618 0.1582-0.7465-0.6786-0.2293-0.7301 0.4512-3.0497 1.1353-5.1545 1.5202-2.1816 0.399-3.8271 0.3023-3.8271-0.2249 0-0.5086-0.5625-0.5719-1.25-0.1407-0.6875 0.4313-2.15 0.6627-3.25 0.5143-1.5492-0.209-1.6832-0.056-0.5943 0.6802 1.0662 0.7206 0.1792 1.4776-3.6735 3.135-3.74 1.6089-6.1504 3.6173-9.1416 7.617-2.2342 2.9876-4.7437 6.7497-5.5765 8.3602s-2.1426 5.622-2.9107 8.9145-1.1635 6.2194-0.8787 6.5042 0.7117 4.0258 0.9487 8.3132c0.3369 6.0968 1.0033 8.7726 3.0582 12.28 1.4451 2.4665 4.0092 5.8788 5.6979 7.5829 1.6888 1.7041 5.9955 4.4609 9.5705 6.1262s8.283 3.1111 10.462 3.2128c2.1792 0.1017 4.1221 0.3448 4.3174 0.5401 0.1954 0.1954 2.0123-0.074 4.0377-0.5976 2.0254-0.524 4.9201-1.4339 6.4326-2.0221zm-553.39 5.6967c-0.2622-0.2622-3.0739-0.5853-6.2483-0.7182-4.1639-0.1742-6.0176-0.7012-6.6548-1.8918-0.4858-0.9077-0.6736-1.86-0.4175-2.1162 0.2562-0.2561 0.7086-2.6778 1.0054-5.3815 0.2968-2.7036 0.9482-7.3907 1.4475-10.416s1.1926-7.3 1.5406-9.5 0.5933-12.1 0.545-22c-0.048-9.9-0.2743-19.575-0.5023-21.5s-0.6938-5.3-1.0351-7.5c-0.3414-2.2-1.0804-6.475-1.6424-9.5-0.5619-3.025-1.6981-7.9225-2.5249-10.883-1.0728-3.8418-1.1952-5.6914-0.4275-6.4591 0.6717-0.6717 7.4919-1.1302 18.154-1.2206 13.517-0.1146 17.186 0.1367 17.596 1.2054 0.285 0.7426 0.5831 2.4765 0.6626 3.8532 0.079 1.3766 0.4819 2.5033 0.8944 2.5037s0.75 0.8741 0.75 1.9417c0 1.0675 0.4807 2.238 1.0682 2.6011s0.8266 1.2897 0.5314 2.0591c-0.2953 0.76931-0.176 1.3988 0.2651 1.3988s0.8408 0.5625 0.8883 1.25c0.047 0.6875 0.337 2.342 0.6433 3.6766s1.0174 2.8871 1.5803 3.45 1.0234 2.0263 1.0234 3.252 0.675 2.9035 1.5 3.7285 1.5 2.0018 1.5 2.6151 1.125 2.3284 2.5 3.8112c1.375 1.4829 2.5 3.2478 2.5 3.9219 0 0.6742 1.2375 2.4917 2.75 4.039 1.5125 1.5472 2.8655 3.2502 3.0067 3.7844s2.1662 3.1267 4.5 5.761c2.3338 2.6344 4.2433 5.2969 4.2433 5.9167s0.5215 1.3008 1.1589 1.5132c0.6374 0.2125 1.4595-0.9823 1.8269-2.6552 0.3674-1.6728 1.0834-3.2982 1.5911-3.6119 0.5077-0.3138 0.9231-1.444 0.9231-2.5115 0-1.0676 0.4051-1.941 0.9002-1.941 0.4952 0 1.4401-2.25 2.0998-5s1.6796-5 2.2664-5 0.7849-0.282 0.4401-0.6268c-0.3447-0.3447 0.042-1.9197 0.8591-3.5 0.8171-1.5802 2.0367-2.8801 2.7101-2.8885 0.7821-0.01 0.6825-0.3655-0.2757-0.9847-1.1672-0.7543-0.8848-0.9728 1.273-0.9847 2.6748-0.015 2.719 0.067 1.2465 2.3145-0.8396 1.2814-1.2249 2.6314-0.8564 3 0.3686 0.3686 0.1578 0.6702-0.4685 0.6702s-1.8713 2.52-2.7667 5.6c-0.8954 3.0801-2.3986 6.3707-3.3405 7.3125-0.9418 0.9419-1.5343 2.2469-1.3166 2.9s-0.052 1.1875-0.599 1.1875c-0.5472 0-0.869 0.7875-0.7152 1.75s-0.3451 2.9828-1.1088 4.4895c-0.7636 1.5068-1.3032 2.8568-1.1991 3 0.1041 0.1433-0.3594 1.2856-1.0299 2.5385s-1.5341 2.0834-1.919 1.8455-0.7571 0.537-0.8271 1.722-0.3924 3.223-0.7165 4.529-1.3105 3.4752-2.192 4.8204c-0.8814 1.3453-2.2821 4.3268-3.1126 6.6256-0.8304 2.2987-1.7089 5.1966-1.9522 6.4398-0.2432 1.2432-1.3895 4.0778-2.5473 6.299-1.286 2.4672-2.7 3.9223-3.6341 3.7397-0.841-0.1644-1.6323-1.0048-1.7584-1.8676-0.1262-0.8627-1.4425-4.2377-2.9252-7.5-1.4826-3.2623-3.064-6.8314-3.5142-7.9314-0.4501-1.1-1.3787-3.575-2.0636-5.5s-3.4176-8-6.0726-13.5c-2.6551-5.5-5.8652-11.8-7.1335-14s-4.5753-7.3985-7.3487-11.552c-2.7735-4.1538-6.8725-9.8672-9.109-12.697s-4.3136-4.8971-4.6157-4.5949c-0.3022 0.3021-0.1147 1.6927 0.4166 3.0902s1.1986 11.589 1.4829 22.647c0.2842 11.058 0.7412 21.569 1.0154 23.356s0.9282 3.25 1.4533 3.25 0.8819 0.3375 0.7929 0.75 0.4145 2.8875 1.1187 5.5c0.7043 2.6125 1.6513 4.75 2.1044 4.75s0.6505 0.9 0.4387 2-0.06 2 0.3382 2c0.3978 0 1.2578 1.4159 1.911 3.1465s0.9503 3.5307 0.6602 4.0001-0.024 0.8534 0.5906 0.8534c0.6149 0 0.8399 0.45 0.5 1s-0.1415 1 0.441 1c0.5824 0 1.059 0.81 1.059 1.8s0.5039 2.304 1.1199 2.9199c0.8265 0.8265 0.1061 1.4014-2.75 2.1944-2.1285 0.591-4.3574 1.0771-4.9532 1.0802-0.5959 0-1.2979-0.209-1.56-0.4711zm326.64-0.7147c-1.65-0.4961-4.575-1.664-6.5-2.5954s-3.8599-2.2604-4.2997-2.9534c-0.43983-0.6929-1.4151-1.2599-2.1673-1.2599-0.75216 0-3.1657-2.6927-5.3634-5.9838-2.1977-3.291-4.994-8.9833-6.214-12.65-1.22-3.6661-2.2927-9.4109-2.3838-12.766-0.0992-3.6548 0.52429-8.016 1.5552-10.878 0.94646-2.6278 1.7551-4.9903 1.7969-5.25 0.0418-0.2597 0.0761-0.9488 0.0761-1.5312 0-0.5825 0.51953-0.7379 1.1545-0.3455 0.70498 0.4357 0.88348 0.275 0.45845-0.4127-0.38285-0.6195 0.0469-2.2601 0.95488-3.646 0.90802-1.3858 2.0629-2.265 2.5663-1.9539 0.50347 0.3112 0.79175-0.03 0.64062-0.7586-0.15113-0.7283 0.27153-1.2172 0.93923-1.0863 0.75609 0.1482 0.97889-0.4176 0.59068-1.5-0.34284-0.9559-0.29938-1.4482 0.0966-1.0941 0.39596 0.3542 1.739-0.3208 2.9844-1.5 1.2455-1.1791 3.3449-3.0141 4.6655-4.0777 1.3205-1.0635 3.0867-2.0124 3.9249-2.1085 0.83816-0.096 2.8739-0.7358 4.5239-1.4215 1.65-0.6856 4.1635-1.352 5.5855-1.4807 1.422-0.1288 2.997-0.4348 3.5-0.68 0.50296-0.2452 4.0645-0.4269 7.9145-0.4037 5.7426 0.035 7.8084 0.5208 11.5 2.7069 2.475 1.4656 5.175 3.4938 6 4.507 0.825 1.0133 2.046 2.961 2.7134 4.3283 0.66733 1.3673 1.4248 4.6404 1.6833 7.2736 0.29095 2.964-0.0893 6.1259-0.99835 8.3016-0.80756 1.9328-3.0541 5.0541-4.9922 6.9364-1.9382 1.8822-4.8474 4.3646-6.465 5.5164-1.6176 1.1518-2.941 1.8079-2.941 1.458s-1.2375 0.2412-2.75 1.3136-4.9861 2.7061-7.7191 3.6306-7.008 1.5964-9.5 1.4932c-2.492-0.1031-5.3165 0.1412-6.2766 0.5429-1.3512 0.5653-1.6035 1.441-1.1162 3.875 0.34623 1.7296 0.73887 4.0447 0.87253 5.1447s0.57593 3.0125 0.98283 4.25c0.40689 1.2375 1.0403 2.25 1.4076 2.25s1.5435 1.4625 2.6139 3.25c1.0704 1.7875 1.9549 3.55 1.9656 3.9167 0.0107 0.3667 0.42914 1.0417 0.92982 1.5 0.54255 0.4967 0.566 0.2273 0.058-0.6667-0.73292-1.2899-0.61686-1.309 0.82866-0.1367 0.92453 0.7499 1.3914 1.8319 1.0374 2.4045-0.3737 0.6047-0.15945 0.7421 0.51101 0.3277 0.63498-0.3924 1.1545-0.2894 1.1545 0.2289s0.7875 1.1688 1.75 1.4455c0.9625 0.2768 2.6113 0.8558 3.664 1.2866 1.3488 0.552 1.7005 0.4379 1.191-0.3865-0.39768-0.6435-0.2465-1.17 0.33596-1.17s1.059-0.7015 1.059-1.559c0-0.8574 0.42739-1.2949 0.94976-0.972 0.56905 0.3517 0.82325-1.6049 0.63415-4.8811-0.17358-3.0074-1.2701-7.3973-2.4368-9.7553-1.6776-3.3908-1.8625-4.5339-0.88415-5.4672 0.68035-0.6489 3.3902-1.8967 6.0219-2.7727s5.8393-1.5927 7.1279-1.5927 3.991 0.6886 6.0054 1.5303c2.0143 0.8416 3.3927 1.9666 3.0631 2.5-0.32963 0.5333-0.13156 0.9697 0.44016 0.9697 0.57471 0 0.87714 1.3943 0.6764 3.1184-0.1997 1.7152-0.97841 3.5083-1.7305 3.9847-0.75207 0.4765-1.0207 0.8732-0.59706 0.8816 0.42367 0.01-0.19405 1.9278-1.3727 4.2653-1.1787 2.3375-2.8753 4.9286-3.7703 5.758-0.895 0.8294-2.8489 2.2919-4.3421 3.25s-3.4322 1.742-4.309 1.742-1.3508 0.3938-1.0534 0.8751-1.1385 1.1216-3.191 1.4228c-2.0525 0.3013-6.2068 0.5174-9.2318 0.4802-3.025-0.037-6.85-0.4734-8.5-0.9694zm0.38197-34.045c1.9899-1.2298 3.7498-2.0832 3.9109-1.8964 0.16109 0.1868 1.654-0.2242 3.3175-0.9132 2.2008-0.9116 2.6658-1.4804 1.7071-2.0883-0.76067-0.4823-0.85187-0.8418-0.2158-0.8507 0.60593-0.01 2.4781-1.3306 4.1603-2.9383 1.6822-1.6077 2.8227-3.159 2.5342-3.4474-0.28841-0.2884 0.39775-2.0165 1.5248-3.8401 1.1928-1.9299 2.1808-5.5043 2.3641-8.5524 0.17318-2.8802 0.76486-5.2437 1.3149-5.2522 0.55-0.01 0.41445-0.3869-0.30123-0.8409-0.71568-0.4539-1.4722-2.1345-1.6811-3.7347-0.20893-1.6001-0.41087-3.4863-0.44877-4.1915s-1.0814-1.6646-2.3189-2.1319c-1.3327-0.5032-3.0653-0.439-4.25 0.1576-1.1 0.554-3.3032 2.4005-4.896 4.1034s-4.1803 5.5715-5.75 8.597-2.854 6.0759-2.854 6.7785c0 0.7027-0.375 1.2776-0.83333 1.2776s-0.89816 0.5625-0.97739 1.25c-0.0792 0.6875-0.43568 3.6042-0.79211 6.4815-0.35644 2.8773-0.9374 5.0527-1.291 4.8341-0.35363-0.2185-0.47491 1.3648-0.26952 3.5185 0.2054 2.1538 0.80274 3.9159 1.3274 3.9159 0.52468 0 0.67586 0.45 0.33594 1s-0.30709 1 0.0729 1c0.38004 0 2.3191-1.0062 4.309-2.2361zm-255.31 32.557c-0.2787-0.7264-0.3089-1.8832-0.067-2.5707s0.6994-2.6 1.0167-4.25 0.7993-4.125 1.0711-5.5c0.2719-1.375 0.4681-3.7375 0.4361-5.25s0.2865-2.7513 0.7078-2.7529c0.4212 0 0.9033-3.4891 1.0713-7.75 0.1679-4.2609 0.3929-9.5471 0.5-11.747 0.107-2.2 0.6446-4.3306 1.1946-4.7347 0.6473-0.4755 0.6158-0.7401-0.089-0.75-0.69-0.01-1.0406-2.4896-0.9563-6.7653 0.073-3.7125-0.2399-7.5375-0.6958-8.5-0.5383-1.1362-0.423-1.75 0.3286-1.75 0.7962 0 0.8434-0.3903 0.1512-1.25-0.5535-0.6875-1.3222-4.625-1.7083-8.75-0.386-4.125-0.7382-8.0625-0.7827-8.75-0.044-0.6875-0.5877-1.25-1.2073-1.25s-1.5571 1.4616-2.0833 3.2479c-0.5263 1.7864-1.6972 3.3853-2.602 3.5532-1.5269 0.2832-1.5269-0.04 0-4.498 0.9048-2.6417 2.1666-5.3567 2.8039-6.0333s1.4644-3.0391 1.8379-5.25c0.3735-2.2109 1.0896-4.0198 1.5913-4.0198 0.5016 0 0.8229-0.3375 0.7139-0.75-0.1089-0.4125 0.1464-1.7625 0.5674-3 0.4211-1.2375 1.2118-2.25 1.7572-2.25s0.7697-0.359 0.4986-0.7977c-0.2712-0.4388-0.1019-1.4307 0.3762-2.2044 0.655-1.0596 3.8706-1.4691 13.039-1.6602l12.169-0.2537-0.5989 3.708c-0.3293 2.0394-0.8185 5.058-1.0871 6.708-0.2685 1.65-0.7234 3.9876-1.0108 5.1946s-0.7468 4.357-1.021 7c-0.2742 2.643-0.7581 7.0554-1.0755 9.8054-0.3173 2.75-0.6532 11.188-0.7464 18.75-0.093 7.5625 0.056 13.75 0.3307 13.751 0.275 4e-4 0.5598 2.3628 0.633 5.2499 0.073 2.8871 0.438 7.924 0.8107 11.193 0.3727 3.2691 0.9019 6.3066 1.176 6.75 0.2741 0.4435-0.091 0.8132-0.8107 0.8216-0.7995 0.01-0.9198 0.3013-0.309 0.75 0.55 0.4041 1.1434 1.39 1.3187 2.1909 0.1753 0.8008 0.6993 3.4935 1.1645 5.9837 0.4653 2.4902 0.6328 4.8724 0.3723 5.2939-0.2605 0.4214 0 0.7662 0.5855 0.7662 0.5824 0 1.059 0.6447 1.059 1.4326 0 0.788-0.7875 1.6603-1.75 1.9385-0.9625 0.2783-8.1454 0.4529-15.962 0.3881-10.767-0.089-14.335-0.4379-14.719-1.4385zm113.68 0.9736c-1.2375-0.2384-2.2452-0.7396-2.2392-1.1138 0.01-0.3743 0.7254-2.9305 1.5987-5.6805 0.8734-2.75 1.7509-6.125 1.95-7.5 0.19904-1.375 0.67108-6.1 1.0489-10.5 0.37784-4.4 0.66734-8.45 0.64334-9s-0.33558-2.8-0.69238-5-0.88721-5.575-1.1787-7.5c-0.2915-1.925-0.6619-5.525-0.823-8-0.1612-2.475-0.6211-6.3-1.0219-8.5s-1.2958-5.6529-1.9888-7.6731c-0.6931-2.0202-0.9872-4.0452-0.6536-4.5s7.3188-0.8269 15.523-0.8269c11.252 0 15.021 0.3153 15.345 1.2836 0.23568 0.706-0.12815 1.9544-0.80853 2.7742-0.68037 0.8198-0.9958 1.7318-0.70095 2.0266 0.29485 0.2949-0.0809 2.8715-0.83497 5.7259-0.75409 2.8543-1.6353 9.0147-1.9582 13.69-0.3229 4.675-0.74345 9.7354-0.93455 11.245-0.1911 1.5099 0.063 2.999 0.56457 3.309 0.50162 0.31 0.91203 0.087 0.91203-0.4954s-0.0296-1.3181-0.0657-1.6347c-0.0361-0.3167 0.93272-1.4417 2.153-2.5 1.624-1.4085 1.8128-1.9243 0.70435-1.9243-1.0889 0-1.3757-0.7254-1.0207-2.5821 0.27149-1.4202 1.0594-2.7993 1.7508-3.0646 0.69147-0.2654 1.0338-1.3368 0.76071-2.3811-0.27308-1.0442 0.54411-4.0527 1.816-6.6854s3.2803-6.2167 4.4632-7.9644c1.1829-1.7477 2.8379-3.8647 3.6777-4.7046 0.83984-0.8398 3.6454-2.7096 6.2345-4.1551 3.4296-1.9148 5.7067-2.5128 8.3881-2.2031 2.0243 0.2339 4.6322 0.9345 5.7953 1.557 1.1631 0.6224 3.0148 2.6572 4.1148 4.5216s2.3344 6.2635 2.7431 9.7758l0.74303 6.386 2.3186-4.5c1.2752-2.475 2.7585-5.4534 3.2963-6.6187 0.53773-1.1652 2.121-3.018 3.5185-4.1172s2.256-2.2833 1.908-2.6313c-0.34801-0.3481 0.14381-0.6328 1.0929-0.6328 0.94913 0 1.4767-0.4028 1.1724-0.8952s0.15595-1.1674 1.0228-1.5c0.86683-0.3326 2.4392-0.6048 3.4943-0.6048s1.9182-0.4778 1.9182-1.0617c0-0.6488 1.2638-0.8385 3.25-0.4879 1.7875 0.3155 4.15 0.6808 5.25 0.8117 1.1 0.1308 3.2552 1.4898 4.7893 3.0199s2.52 3.2176 2.191 3.75-0.0952 0.968 0.51976 0.968c0.61492 0 0.83992 0.45 0.5 1s-0.18393 1 0.34663 1c0.5953 0 0.8008 5.6478 0.53669 14.75-0.23539 8.1125-0.56178 15.571-0.72531 16.575-0.16354 1.0039 0.47535 6.6846 1.4197 12.624s2.647 12.901 3.7835 15.47c1.778 4.0193 1.857 4.7517 0.56662 5.2469-0.82487 0.3165-7.6711 0.6337-15.214 0.7047-10.492 0.099-13.655-0.1644-13.464-1.1208 0.1375-0.6875-0.2551-1.25-0.87244-1.25-0.77551 0-0.73766-0.4636 0.12244-1.5 1.0036-1.2093 0.97891-1.5029-0.12755-1.5153-1.078-0.012-1.0506-0.2233 0.12755-0.9847 1.09-0.7044 1.1422-0.9735 0.19099-0.9847-0.71996-0.01-1.0406-0.4495-0.71265-0.9802 0.32801-0.5307 0.76071-3.589 0.96157-6.796 0.20086-3.2071 0.68527-8.3928 1.0765-11.524 0.48048-3.8456 1.0799-5.4718 1.8474-5.012 0.62491 0.3743 0.47818-0.1295-0.32606-1.1195-1.2915-1.59-1.2708-1.9403 0.17795-2.9996 1.0031-0.7335 1.3298-1.7015 0.84113-2.4922-0.43949-0.7112-0.36948-3.1603 0.15558-5.4425s1.1421-4.937 1.3711-5.8995 0.66564-2.7625 0.97017-4c0.30454-1.2375 0.55807-3.9138 0.56341-5.9473 5e-3 -2.0335-0.45458-4.5647-1.022-5.625-0.56746-1.0603-1.9186-2.1598-3.0024-2.4432-1.3836-0.3618-2.957 0.5685-5.2817 3.1232-1.821 2.0011-3.1569 3.6393-2.9685 3.6404 0.18836 1e-3 -0.22137 1.2394-0.91051 2.7519s-1.6573 2.75-2.1515 2.75-0.64281 0.4137-0.33029 0.9194c0.31251 0.5056-0.0199 1.5181-0.73861 2.25-0.71874 0.7318-1.3629 2.2306-1.4315 3.3306s-0.31516 3.168-0.54791 4.5956c-0.23276 1.4275-0.78889 3.1872-1.2358 3.9104s-1.0186 5.1802-1.2704 9.9045c-0.25175 4.7242-0.47498 10.164-0.49608 12.09s0.10873 5.525 0.28849 8c0.17977 2.475 0.70959 5.2774 1.1774 6.2275 0.68335 1.3879 0.50198 1.5968-0.92259 1.0628-1.5551-0.583-1.6044-0.4573-0.40069 1.0225 0.96783 1.1898 1.0241 1.6872 0.19098 1.6872-0.6498 0-0.92711 0.4116-0.61623 0.9146 0.33449 0.5412-4.0109 0.7439-10.644 0.4965-6.1654-0.23-11.561-0.7697-11.991-1.1994-0.42973-0.4298-0.94775-2.5657-1.1512-4.7465-0.20339-2.1809-0.5132-4.4152-0.68845-4.9652s0.0452-3.7 0.48995-7c0.44472-3.3 1.3102-6.3306 1.9233-6.7347 0.80744-0.5321 0.79595-0.7389-0.0417-0.75-0.66199-0.01-0.93278-0.8704-0.63337-2.0153 0.28766-1.1 0.84533-2 1.2393-2 0.39393 0 0.62787-1.0125 0.51985-2.25s0.23093-2.7928 0.75321-3.4562 0.6593-1.6759 0.3045-2.25c-0.35481-0.5741-0.18268-1.0438 0.38252-1.0438s0.77688-0.6534 0.47041-1.4521c-0.30648-0.7987-0.19532-2.0362 0.24703-2.75 0.44234-0.7138 0.88835-2.8729 0.99113-4.7979 0.10277-1.925 0.52538-4.85 0.93912-6.5s0.70642-4.5051 0.65039-6.3448c-0.056-1.8396-0.78633-4.3894-1.6229-5.6662-0.8764-1.3375-2.2762-2.1774-3.3029-1.9817-0.98002 0.1868-2.5552 0.3741-3.5005 0.4162-0.99146 0.044-1.5054 0.6321-1.2147 1.3896 0.27714 0.7222-0.41198 2.1419-1.5314 3.155-1.1194 1.013-2.0353 2.463-2.0353 3.2221s-0.78131 2.6018-1.7362 4.095c-0.95493 1.4931-2.4174 3.2784-3.25 3.9673-1.2988 1.0745-1.2297 1.1677 0.48625 0.6556 1.4041-0.4189 1.6118-0.3179 0.69722 0.3392-0.71654 0.5148-1.2129 1.3447-1.1031 1.8443 0.10984 0.4996-0.14761 2.8127-0.57212 5.1402-0.48965 2.6847-1.1832 4.0021-1.8969 3.6033-0.73341-0.4097-0.71265-0.1824 0.0597 0.653 0.91919 0.9942 0.80712 1.859-0.5 3.858-0.92662 1.4171-1.1704 2.2596-0.54166 1.8723 0.82535-0.5085 0.92827 0.2483 0.37023 2.7225-0.42508 1.8848-0.54855 7.1691-0.27437 11.743 0.27417 4.5738 0.87764 9.0415 1.341 9.928 0.53399 1.0216 0.31906 2.3033-0.58692 3.5-0.7862 1.0385-1.4438 2.7281-1.4612 3.7548-0.0233 1.3683-0.56539 1.7271-2.0308 1.3438-1.0994-0.2875-2.2667-0.09-2.5938 0.4397-0.32714 0.5293-2.9151 0.7464-5.751 0.4823-2.8359-0.2641-6.0562-0.7819-7.1562-1.1506-1.6154-0.5416-1.7116-0.463-0.5 0.4085 1.1772 0.8468 0.74682 1.053-2 0.9581-1.925-0.066-4.5125-0.3158-5.75-0.5542zm210.47-0.034c-3.3074-0.207-5.5268-0.7675-5.191-1.3109 0.32267-0.5221 0.11012-0.9493-0.47234-0.9493s-1.059 0.3543-1.059 0.7872c0 0.433-0.99863 0.8624-2.2192 0.9544-1.2206 0.092-2.5637-0.3748-2.9847-1.0372-0.51311-0.8073-0.77055-0.8362-0.78081-0.088-9e-3 0.6762-2.0864 1.1238-5.2653 1.1346-2.8875 0.01-5.7982-0.4233-6.4682-0.9627-0.93401-0.7519-0.64566-2.1104 1.2361-5.8239 1.7661-3.4853 2.617-7.1735 3.0347-13.154 0.31925-4.5709 0.67725-10.932 0.79556-14.137 0.11831-3.2043-0.0453-5.9869-0.36368-6.1837-0.31833-0.1967-0.68473-3.425-0.81422-7.174s-0.43505-8.6164-0.67902-10.816c-0.24398-2.2-0.56682-4.9-0.71743-6-0.1506-1.1-0.86958-2.6279-1.5977-3.3953-1.0985-1.1578-1.0985-1.5382 0-2.2347 0.78071-0.495 0.86705-0.8457 0.21043-0.8547-0.61241-0.01-1.0624-1.0278-1-2.2653 0.10028-1.9886 0.6653-2.26 4.8635-2.3361 2.7955-0.051 4.7563 0.3608 4.7653 1 9e-3 0.657 0.3261 0.5968 0.80189-0.1524 0.47069-0.7411 3.9237-1.4167 8.5978-1.6822 4.2962-0.2441 8.9362-0.016 10.311 0.5067 2.0881 0.7939 2.3959 1.4005 1.8684 3.6823-0.34738 1.5024-0.86955 4.0817-1.1604 5.7317s-0.8132 3.675-1.1608 4.5-0.73458 2.175-0.85999 3-0.5316 3.7837-0.90266 6.575c-0.37105 2.7912-0.75027 5.924-0.8427 6.9617-0.10532 1.1823 0.5786 2.0144 1.8319 2.2287 1.2324 0.2108 1.5561 0.033 0.84342-0.4629-0.86332-0.6009-0.7872-1.819 0.30019-4.8038 0.80122-2.1993 1.586-4.6493 1.744-5.4445 0.15796-0.7952 0.81317-1.6211 1.456-1.8354 0.64287-0.2143 0.92266-0.788 0.62176-1.2748-0.30091-0.4869 0.15785-2.2485 1.0194-3.9146 0.8616-1.6662 1.9328-3.0294 2.3804-3.0294s1.3363-1.1468 1.975-2.5486c0.63866-1.4017 2.5184-3.1192 4.1772-3.8166 1.6588-0.6975 2.7571-1.527 2.4407-1.8434-0.31637-0.3164 0.0659-2.1096 0.84942-3.9849 1.1009-2.6348 2.3336-3.682 5.4246-4.6081 2.2-0.6591 5.527-1.1984 7.3934-1.1984 2.333 0 3.7917 0.6377 4.6678 2.0407 0.70094 1.1224 1.0268 2.4413 0.72424 2.9309-0.30261 0.4896-0.14384 1.1413 0.35281 1.4483 0.49666 0.3069 1.4591-0.112 2.1388-0.9309s1.9254-1.489 2.7683-1.489c1.3165 0 1.2926 0.2652-0.16987 1.8812-1.5688 1.7335-1.5754 2.0081-0.0835 3.5 0.89037 0.8903 1.3066 1.6188 0.92498 1.6188s-0.0763 0.7442 0.67857 1.6537c0.75484 0.9095 1.4124 2.372 1.4612 3.25 0.0488 0.878 0.5585 2.7213 1.1326 4.0963 0.57408 1.375 0.80688 2.8993 0.51733 3.3873-0.28956 0.488-0.74382 3.638-1.0095 7s-0.53842 11.063-0.60613 17.113c-0.0677 6.05 0.1526 12.8 0.48957 15 0.33698 2.2 0.93912 4.9 1.3381 6s1.6312 3.7171 2.7382 5.8158c1.1071 2.0986 1.7049 4.1236 1.3286 4.5-0.37635 0.3763-0.98426 0.7231-1.3509 0.7706-0.36667 0.047-1.5109 0.4549-2.5426 0.9053-1.0445 0.456-3.2607 0.3699-5-0.1941-1.7182-0.5572-4.5891-0.9246-6.3797-0.8164-1.7906 0.1082-3.4392 0.3817-3.6635 0.6078-0.22429 0.2261-3.076 0.2621-6.3372 0.08l-5.9294-0.3309 0.31596-10.669c0.17378-5.868 0.30981-12.357 0.3023-14.419-8e-3 -2.0625 0.41243-3.75 0.93322-3.75s0.73747-0.8008 0.4815-1.7797c-0.25597-0.9788 0.0838-3.1163 0.7551-4.75 0.67127-1.6336 1.1418-3.326 1.0455-3.7608-0.0962-0.4348 0.34348-1.7593 0.97716-2.9433 0.63368-1.1841 1.3135-5.3283 1.5106-9.2095 0.19718-3.8812 0.52311-8.1817 0.7243-9.5567 0.20118-1.375-0.0384-3.2875-0.53233-4.25-0.60064-1.1704-2.0763-1.75-4.4552-1.75-2.0429 0-4.6394 0.8514-6.0997 2-1.3984 1.1-2.1727 2-1.7206 2 0.45207 0-0.47144 1.35-2.0522 3s-2.5421 3-2.1362 3-0.40776 1.5022-1.8081 3.3381c-1.4004 1.836-2.2677 3.6166-1.9274 3.9569 0.34031 0.3403 0.39545 1.2007 0.12253 1.9119s-0.51319 1.7027-0.53394 2.2032c-0.0207 0.5006-0.69866 1.28-1.5065 1.7321-0.90497 0.5064-1.3677 2.0095-1.2055 3.9157 0.15782 1.8547-0.26822 3.2978-1.0637 3.603-0.96009 0.3685-1.0767 1.1676-0.42171 2.8904 0.64055 1.6847 0.50745 2.7789-0.45513 3.7415-0.89954 0.8995-1.2674 3.2472-1.0857 6.9298 0.15111 3.0632 0.56456 6.0383 0.91878 6.6115 0.35422 0.5731 0.90479 2.9824 1.2235 5.354 0.31868 2.3716 1.2589 5.7708 2.0894 7.5538 0.83045 1.7831 1.2495 3.9206 0.9312 4.75-0.31829 0.8295-0.93033 1.423-1.3601 1.319s-3.3813-0.3518-6.559-0.5507zm31.484-77.187c2.9576-0.478 5.0941-0.3728 5.75 0.2832 0.57406 0.574 1.0437 0.6991 1.0437 0.278 0-0.4212-0.4672-1.6388-1.0382-2.7057-0.87268-1.6307-1.7098-1.8362-5.25-1.2892-2.3165 0.358-5.2243 1.0244-6.4618 1.481-1.2375 0.4565-2.25 1.5644-2.25 2.4618 0 1.1503 0.51635 1.4282 1.75 0.9416 0.9625-0.3795 3.8678-1.0324 6.4563-1.4507zm37.383 75.969c-1.6993-0.8017-3.9126-2.3739-4.9184-3.4939-1.5482-1.7238-1.7457-3.1881-1.2869-9.5424 0.2981-4.1284 0.83355-8.6311 1.1899-10.006 0.35638-1.375 1.2462-5.425 1.9775-9 0.7312-3.575 1.7594-8.1899 2.2848-10.255s0.5774-3.9889 0.1156-4.2743-0.7396-2.308-0.6174-4.4947c0.1222-2.1866-0.053-3.9757-0.3896-3.9757-0.3365 0-0.6955-0.5625-0.7979-1.25s-0.3273-2.556-0.4998-4.1522-1.2544-3.8462-2.4044-5c-1.15-1.1538-3.3487-3.1353-4.8861-4.4033-2.3152-1.9096-2.5429-2.4693-1.3261-3.2589 0.80805-0.5243 2.5942-1.1878 3.9692-1.4746 1.375-0.2867 5.5381-1.4338 9.2514-2.5492 3.7133-1.1155 7.2704-1.7074 7.9045-1.3154 0.6679 0.4128 0.8831 0.2757 0.5113-0.3258-0.353-0.5712 0.7025-1.5953 2.3455-2.2759 1.643-0.6805 2.9873-1.6327 2.9873-2.116s0.7016-0.8787 1.559-0.8787c0.8575 0 1.3274-0.37479 1.0442-0.83289-0.2831-0.4582 0.5268-2.3707 1.7998-4.25 1.2731-1.8794 2.6413-4.4544 3.0407-5.7221 0.3993-1.2678 1.2503-2.1258 1.8912-1.9067 0.6715 0.2297 1.0771 2.0536 0.9574 4.3051-0.1142 2.1486-0.3017 4.4691-0.4167 5.1566-0.1149 0.6875-0.4714 1.2505-0.7923 1.2511-0.3208 6e-4 -0.675 2.342-0.7872 5.2031-0.1121 2.8611 0.2603 5.7613 0.8275 6.4447 0.702 0.8459 1.7718 0.9612 3.3504 0.361 1.6078-0.6113 2.8875-0.4511 4.1725 0.5224 1.7393 1.3176 1.6877 1.4061-0.8375 1.4359-1.48 0.018-2.9872 0.5111-3.3493 1.0969-0.4288 0.6939-1.3467 0.4422-2.633-0.7219-1.086-0.9829-1.8699-1.3497-1.7419-0.8151 0.128 0.5345-0.036 1.6469-0.3656 2.4719-0.3291 0.825-0.7773 4.2-0.996 7.5s-0.073 7.4423 0.3242 9.2051c0.4703 2.0888 0.3266 3.3383-0.4128 3.5874-0.8323 0.2804-0.8169 0.7675 0.058 1.828 0.8643 1.0479 0.9248 2.6366 0.2199 5.7739-0.6006 2.6729-0.6169 4.7637-0.043 5.4669 0.5965 0.7305 0.428 1.6009-0.4699 2.4281-0.7699 0.7092-1.3998 0.977-1.3998 0.595 0-0.3819-0.8716 0.094-1.9369 1.0586-1.0654 0.9641-2.3682 1.4864-2.8953 1.1607-0.527-0.3257-1.2162 0.08-1.5316 0.902-0.3154 0.8219-1.2625 1.4943-2.1048 1.4943-0.8422 0-1.5435 0.3375-1.5582 0.75-0.015 0.4125-1.8054 1.847-3.979 3.1877-2.1736 1.3408-3.7394 2.6504-3.4795 2.9103 0.26 0.26-0.431 1.1056-1.5355 1.8792s-2.6192 2.8689-3.3659 4.6561c-0.7468 1.7873-1.2477 4.3447-1.1131 5.6831 0.1345 1.3385 0.302 2.9858 0.3722 3.6606 0.07 0.6748 1.2712 1.9762 2.6689 2.892s3.5352 1.785 4.75 1.9315c1.2148 0.1464 2.8837 0.5321 3.7087 0.8569 0.825 0.3249 2.85-0.3059 4.5-1.4018 1.65-1.0958 2.6892-1.9954 2.3094-1.999-0.3799 0-0.1265-1.0941 0.563-2.4232 0.6896-1.3292 1.1279-3.6917 0.974-5.2501-0.1539-1.5583-0.4305-3.5989-0.6146-4.5347-0.1841-0.9357-1.6032-2.8769-3.1535-4.3136l-2.8187-2.6123 2.1332-1.9874c1.1732-1.093 2.6468-1.6698 3.2747-1.2818 0.662 0.4091 0.869 0.2645 0.4928-0.3442-0.3568-0.5773 0.1362-1.3576 1.0955-1.7338 0.9593-0.3763 4.2918-0.8521 7.4054-1.0575 4.2817-0.2823 5.797-0.019 6.2186 1.0794 0.3066 0.7989 1.2308 1.4526 2.0537 1.4526s1.8989 0.7875 2.391 1.75c0.4922 0.9625 0.7869 3.9667 0.6549 6.6759-0.1543 3.1662-0.8187 5.3491-1.8597 6.1103-0.8908 0.6514-1.6197 1.6748-1.6197 2.2744 0 0.5995-0.7875 1.5487-1.75 2.1093s-1.325 1.033-0.8057 1.0497c0.5194 0.017-0.6056 1.2032-2.5 2.6365-1.8943 1.4333-5.0193 3.3325-6.9443 4.2204-2.1218 0.9787-6.221 1.6261-10.41 1.644-4.034 0.017-8.1964-0.5772-10-1.4281z" fill="#27b0a9"></path></g></svg>