<?xml version="1.0" encoding="UTF-8" standalone="no"?>
<!-- Created with Inkscape (http://www.inkscape.org/) -->

<svg
   version="1.1"
   id="svg1"
   width="934"
   height="271"
   viewBox="0 0 934 271"
   sodipodi:docname="MEMENTO_FRASE_PEGATINA.svg"
   inkscape:version="1.4.2 (f4327f4, 2025-05-13)"
   xmlns:inkscape="http://www.inkscape.org/namespaces/inkscape"
   xmlns:sodipodi="http://sodipodi.sourceforge.net/DTD/sodipodi-0.dtd"
   xmlns="http://www.w3.org/2000/svg"
   xmlns:svg="http://www.w3.org/2000/svg">
  <defs
     id="defs1" />
  <sodipodi:namedview
     id="namedview1"
     pagecolor="#ffffff"
     bordercolor="#000000"
     borderopacity="0.25"
     inkscape:showpageshadow="2"
     inkscape:pageopacity="0.0"
     inkscape:pagecheckerboard="0"
     inkscape:deskcolor="#d1d1d1"
     inkscape:zoom="0.96416938"
     inkscape:cx="463.61149"
     inkscape:cy="224.54561"
     inkscape:window-width="1920"
     inkscape:window-height="1017"
     inkscape:window-x="1912"
     inkscape:window-y="-8"
     inkscape:window-maximized="1"
     inkscape:current-layer="g1" />
  <g
     inkscape:groupmode="layer"
     inkscape:label="Image"
     id="g1">
    <g
       id="g8"
       transform="translate(4.1486486,22.81757)">
      <path
         style="fill:#9e9b9c"
         d="m 254.00061,232.19226 c -8.59563,-1.65428 -19.36685,-4.87516 -24.75266,-7.40171 -3.43897,-1.61326 -6.86326,-2.9332 -7.60954,-2.9332 -0.74628,0 -4.13934,1.43503 -7.54014,3.18897 -7.00955,3.6151 -3.36051,3.44095 -44.09766,2.10452 -25.00285,-0.82025 -26.75423,-1.00249 -31,-3.22571 -2.475,-1.29599 -5.89247,-3.41642 -7.59439,-4.71206 -1.70191,-1.29565 -3.76021,-2.35572 -4.574,-2.35572 -0.81379,0 -4.95803,1.8 -9.20942,4 -6.12941,3.17183 -8.80564,3.99776 -12.926,3.98918 -5.464543,-0.0114 -11.784133,-1.60453 -17.783423,-4.48313 -3.54144,-1.69927 -3.675493,-1.68272 -10.5,1.29578 -11.004928,4.80303 -14.814304,5.48808 -30.412762,5.46921 C 24.33567,227.10218 12.952951,224.28594 5.1856866,217.03023 2.6948908,214.70348 2.0006149,213.2331 2.0006149,210.2847 v -3.77024 l 2.955819,4.46247 c 1.6257005,2.45436 4.7565171,5.47453 6.9573701,6.71147 5.858492,3.29266 17.508549,5.17169 31.924779,5.14914 20.196767,-0.0316 25.906124,-1.24611 36.30147,-7.72215 2.55253,-1.59016 2.888018,-1.51813 10.188837,2.18757 7.075747,3.59147 7.977231,3.80127 14.36853,3.34397 7.96803,-0.57011 12.21032,-2.47082 18.01948,-8.07344 l 4.21628,-4.06637 4.67867,5.1575 c 7.4749,8.2399 11.14846,9.1885 35.67628,9.21254 11.11687,0.0109 23.34659,0.47274 27.17715,1.02633 8.81936,1.27456 15.91491,-0.088 21.17023,-4.06532 2.12581,-1.60885 4.31432,-2.9377 4.86336,-2.953 0.54904,-0.0153 5.04904,1.74865 10,3.9199 11.74424,5.15044 19.30281,7.05228 28.02818,7.05228 11.81025,0 21.61494,-2.25196 32.74143,-7.5201 l 5.63822,-2.66957 5.79696,2.84483 c 5.78382,2.83839 5.84228,2.84484 25.79695,2.84484 11,0 25.4,-0.0789 32,-0.17538 16.38076,-0.23941 65.57284,0.48541 84.5,1.24506 8.525,0.34216 21.90186,0.14409 29.72635,-0.44016 12.86759,-0.9608 14.79698,-1.35924 20.20084,-4.17165 l 5.97448,-3.10938 8.79917,3.46352 c 14.38744,5.66316 21.73527,7.04991 34.07123,6.4302 10.37296,-0.52109 17.46622,-2.31787 30.9485,-7.83949 2.7686,-1.13388 3.8913,-1.07909 8,0.39038 10.66225,3.81332 22.37371,4.16082 54.27943,1.61054 10.30039,-0.82333 13.78729,-0.72679 19.81538,0.54861 8.65978,1.83219 19.57481,1.86846 42.68462,0.14184 13.65082,-1.01991 17.5008,-1.02267 19.54197,-0.014 20.46971,10.11521 44.7039,7.56982 63.57169,-6.67713 3.36251,-2.53901 6.63125,-4.93627 7.26386,-5.32725 0.63614,-0.39315 4.3096,1.3895 8.21927,3.98864 8.40503,5.58765 17.66077,9.58265 27.84732,12.01958 13.47319,3.22318 40.63941,-0.4574 55.82549,-7.56344 18.48829,-8.65125 39.70667,-31.72486 40.4376,-53.33752 l 1.40585,-23.36784 -0.48983,29.77926 c -0.11419,6.94162 -0.50014,8.72382 -3.63275,15.06241 -4.73351,9.57787 -9.16889,15.41147 -17.95904,23.6205 -13.369,12.48517 -28.45041,18.33536 -52.59923,20.40362 -21.25434,1.82037 -31.34092,-0.3756 -49.15919,-10.70255 -4.24986,-2.4631 -8.28032,-4.47836 -8.95656,-4.47836 -0.67624,0 -3.81474,1.81343 -6.97445,4.02983 -19.02872,13.34789 -38.4935,16.2709 -59.7108,8.9667 l -9.36884,-3.22528 -19.90422,1.26248 c -19.68526,1.24859 -34.24799,0.9028 -40.66923,-0.96569 -2.24807,-0.65416 -9.63228,-0.4761 -23,0.55461 -21.47162,1.65556 -37.79878,1.25246 -45.59781,-1.12574 -6.52051,-1.98834 -9.51126,-1.88869 -15.09036,0.50279 -19.28715,8.26744 -39.73006,7.92553 -63.10736,-1.05546 l -6.10665,-2.34603 -5.99096,2.68858 c -8.51546,3.82151 -21.7264,5.04426 -46.04472,4.26171 -10.86306,-0.34957 -22.45102,-0.7058 -25.75102,-0.79162 -3.3,-0.0858 -13.00585,0.22514 -21.56857,0.69101 -11.6895,0.63599 -17.29561,0.52038 -22.5,-0.46401 -3.81228,-0.72108 -8.28143,-1.25025 -9.93143,-1.17592 -1.65,0.0743 -14.57734,0.62172 -28.72744,1.21642 l -25.72744,1.08128 -9.19787,-3.15811 -9.19787,-3.15811 -8.07469,3.01301 c -14.74808,5.50313 -27.45168,7.90332 -34.57469,6.53246 z m 125.57143,-34.90634 c -0.86428,-0.86428 -1.57143,-2.03914 -1.57143,-2.61078 0,-0.57165 0.7875,-0.0927 1.75,1.06434 1.6022,1.92602 2.93241,2.12799 15.75,2.39144 l 14,0.28774 -14.17857,0.21934 c -11.75986,0.18193 -14.44664,-0.0487 -15.75,-1.35208 z m 498.42857,-7.06433 c 5.5004,-4.39722 9.93756,-9.43859 13.08277,-14.86424 3.36481,-5.80446 3.89452,-5.33596 0.80782,0.71447 -2.33853,4.58391 -11.09162,13.80108 -14.92458,15.71588 -1.63646,0.81751 -1.28863,0.29068 1.03399,-1.56611 z M 0.41434407,209.08328 C 3.7780909,181.95764 6.1508175,146.52194 6.1951144,119.85735 6.2404154,92.588314 4.7380859,65.967326 2.8759416,61.042251 c -0.4814297,-1.273305 -0.8347067,-5.098305 -0.7850601,-8.5 l 0.090267,-6.184901 1.8658259,7 c 4.9112121,18.425345 7.2341376,66.19271 4.5583271,93.73493 -1.6279475,16.75652 -4.7108285,56.72959 -6.712051,61.41667 -0.93667813,2.1938 -1.91417823,4.08441 -1.47890643,0.57433 z M 417.40056,159.35735 c 0.001,-8.25 0.15628,-11.49193 0.34419,-7.20429 0.1879,4.28763 0.18675,11.03763 -0.003,15 -0.18931,3.96236 -0.34304,0.45429 -0.34164,-7.79571 z m -374.967502,-51.5 c 0,-13.475 0.141551,-18.9875 0.314558,-12.25 0.173006,6.7375 0.173006,17.7625 0,24.5 -0.173007,6.7375 -0.314558,1.225 -0.314558,-12.25 z m 114.799272,-3.30902 c -0.18218,-19.504924 -0.49896,-24.658133 -1.48172,-24.103292 -0.99236,0.560267 -0.9958,0.431591 -0.0167,-0.624317 0.67833,-0.73152 1.47384,-1.08953 1.76779,-0.795576 0.29396,0.293954 0.40573,11.738954 0.24838,25.433335 l -0.28608,24.89887 z m 738.03693,21.99928 c -0.58094,-1.27501 -5.78928,-7.93349 -11.5741,-14.79663 -9.94052,-11.793481 -20.86859,-21.981856 -28.69542,-26.75309 -1.92452,-1.173185 -3.04109,-2.134746 -2.48126,-2.136802 0.94475,-0.0035 8.35692,4.624509 9.48213,5.920413 0.275,0.316717 2.66332,2.314627 5.30736,4.4398 2.64405,2.125173 9.8899,9.775169 16.10188,16.999999 10.76337,12.5183 14.26104,17.2991 13.33423,18.22592 -0.23022,0.23022 -0.89389,-0.62461 -1.47482,-1.89961 z m 25.93207,-4.47077 C 920.76564,111.60959 908.83561,99.821091 889.90739,81.021057 877.92114,69.115982 868.45521,62.424528 859.67124,59.647145 c -5.2069,-1.646355 -8.20096,-1.880543 -19.17063,-1.499477 -14.02077,0.487055 -23.67487,2.523783 -33.68592,7.10673 -6.81777,3.121099 -7.2424,3.146211 -10.76664,0.636729 -2.54471,-1.811993 -2.80208,-2.619786 -3.28112,-10.298253 -0.60558,-9.706695 -2.48364,-14.056386 -8.98143,-20.801478 -5.12479,-5.319843 -11.19169,-7.527225 -19.96212,-7.263025 -10.79503,0.325187 -20.11324,6.65892 -26.43951,17.971346 -5.22297,9.339548 -8.51283,11.605112 -21.38092,14.723957 -12.77033,3.095152 -13.58792,3.13402 -21.17052,1.006449 -4.60883,-1.293172 -6.4978,-2.47953 -9.20138,-5.778904 -7.40591,-9.037931 -17.60569,-11.97555 -39.71375,-11.437877 -13.68132,0.332733 -14.77374,0.512349 -21.41669,3.52132 -5.47862,2.481581 -8.84739,3.285782 -15.5,3.700196 -11.01204,0.685978 -16.84614,2.779555 -22.89113,8.214519 -5.32696,4.789396 -7.89937,5.358 -13.55302,2.995754 -13.10578,-5.475946 -34.68057,-5.972131 -50.8782,-1.170115 -9.97234,2.95644 -15.0818,5.331074 -21.89044,10.173639 -7.68577,5.4664 -8.8254,5.411694 -15.49393,-0.743759 -3.1863,-2.94115 -6.01828,-5.587313 -6.29328,-5.880361 -0.275,-0.293048 -2.75,-1.918587 -5.5,-3.612307 -11.1809,-6.886306 -21.3604,-7.02134 -36.69901,-0.486825 -10.9753,4.67567 -13.19203,4.935293 -18.52019,2.169079 -10.55095,-5.477719 -26.96328,-6.244289 -40.91571,-1.911047 -5.95149,1.848369 -7.45527,1.975779 -11.29996,0.957404 -12.87647,-3.410704 -53.55638,-3.889968 -62.28026,-0.733746 -4.64266,1.679673 -4.85784,1.663864 -14,-1.028552 -8.01224,-2.35965 -10.99816,-2.727153 -21.78487,-2.681255 -13.40928,0.05706 -23.09334,1.959963 -35.84383,7.043267 -3.48911,1.391021 -6.7001,2.143855 -7.13555,1.672963 -0.43544,-0.470891 -0.42438,-3.331166 0.0246,-6.356166 3.23554,-21.800491 3.27413,-22.576577 1.41647,-28.482563 -2.45995,-7.820819 -8.84194,-14.767722 -16.04148,-17.461414 -9.84862,-3.68484 -43.09164,-2.395764 -55.21776,2.141198 -10.3089,3.857056 -15.34636,11.607731 -27.308,42.016356 -5.07421,12.899524 -7.08053,16.000315 -9.06729,14.013554 -1.36711,-1.367104 -8.42061,-19.230736 -12.4014,-31.407659 C 100.85075,26.680436 99.704118,24.321624 95.1812,19.600916 89.519438,13.691563 83.245917,11.85735 68.696036,11.85735 c -18.210833,0 -43.558919,1.86257 -48.873221,3.591191 -7.07661,2.301858 -12.2034774,6.526191 -15.1871148,12.513571 L 4.2045845,60.216255 C 3.2826594,52.947359 1.6676433,56.421373 2.0006149,29.701578 2.0259929,27.665084 2.9735009,24.705461 4.2841362,22.755234 6.846334,18.942679 15.545768,13.328786 21.291596,11.78003 28.529861,9.8289958 42.603766,8.7323034 61.500615,8.6467899 83.777336,8.5459816 89.305967,9.7332831 96.646303,16.194505 c 5.591397,4.921745 6.930767,7.592749 13.369997,26.662845 5.92931,17.559913 7.46711,21 9.38755,21 2.17292,0 3.34571,-2.060395 7.56181,-13.284863 13.55581,-36.08944 21.75122,-41.8300545 60.03495,-42.0525202 15.01048,-0.087226 17.10807,0.1204651 23.2358,2.3006672 11.56817,4.115876 18.59105,12.938662 19.50764,24.507304 0.26274,3.316177 -0.04,10.263954 -0.67277,15.439505 -0.63276,5.17555 -0.78276,9.777815 -0.33332,10.227254 0.44944,0.44944 4.16733,-0.347908 8.26197,-1.771884 18.43134,-6.409787 36.87509,-6.835613 56.27751,-1.299324 4.19631,1.197376 5.59386,1.154057 11.5,-0.356458 13.11213,-3.353473 35.94316,-3.158584 58.05213,0.495542 6.73241,1.112719 8.05892,1.020872 16.29683,-1.128396 7.45765,-1.945699 10.60189,-2.254422 18.67104,-1.833252 5.33674,0.278553 11.50317,1.19941 13.70317,2.046348 2.2,0.846939 6.09167,2.345652 8.64815,3.330474 l 4.64815,1.790586 7.85185,-3.654455 c 10.34837,-4.816398 15.77461,-6.055103 24.57071,-5.609014 9.3141,0.472358 16.55501,3.902296 26.44261,12.52558 3.98999,3.479799 7.95352,6.326906 8.80784,6.326906 0.85432,0 4.17245,-1.787805 7.37361,-3.972901 14.05958,-9.596977 29.18564,-13.504513 49.51604,-12.791546 10.56578,0.370532 14.68073,0.966346 20.99774,3.040318 8.59986,2.823469 9.59104,2.724603 14.42111,-1.438446 6.71815,-5.790387 11.55615,-7.447428 25.63215,-8.779151 5.68516,-0.537869 10.84002,-1.644173 13.20731,-2.834471 7.30399,-3.67252 13.76488,-4.533222 29.79301,-3.968945 18.66117,0.656974 23.39432,2.186208 32.99292,10.659682 9.75477,8.611337 14.91445,9.342756 32.56374,4.616125 7.44596,-1.994093 9.61635,-3.812114 16.23497,-13.599166 3.13605,-4.637324 7.17643,-9.675159 8.97862,-11.195189 8.50121,-7.170188 23.78918,-9.251529 33.81947,-4.604262 7.7796,3.604466 11.43154,7.042741 14.94198,14.067741 2.25084,4.504342 3.05802,7.512065 3.05802,11.394834 0,6.102828 1.30715,10.202275 3.5244,11.053111 0.85492,0.328066 4.83641,-0.781181 8.84774,-2.464993 10.0142,-4.203592 19.28595,-6.247944 31.32335,-6.906563 21.34183,-1.167705 31.74525,3.557698 53.16485,24.14834 10.05427,9.665172 23.4721,25.864142 27.18423,32.818772 2.42827,4.54933 6.2893,23.75699 4.96065,34.88503 L 923.234,170.91046 Z M 592.01593,87.60735 c -0.0141,-1.606403 1.35911,-1.731725 16.73468,-1.527293 l 16.75,0.222707 -15.95732,0.303739 c -11.2044,0.213269 -16.18887,0.668177 -16.73469,1.527293 -0.54079,0.851189 -0.78202,0.690976 -0.79267,-0.526446 z M 312.58471,85.498794 c 0.55305,-1.441233 2.59888,-1.614373 16.77289,-1.419506 l 16.14301,0.221938 -15.43008,0.305079 c -9.4249,0.186346 -15.9527,0.738799 -16.7729,1.419505 -1.05148,0.872651 -1.20615,0.758314 -0.71292,-0.527016 z"
         id="path9"
         sodipodi:nodetypes="ssssssssscscssscscssssscsssssssscsssssscssssssscsssssscsssssssscsssssscssssssscccssssssscssssssssssscsssscscccsssscssssccssssssssssssssssssssssssssssssssssssssssscsssssssssscssssssssssssssssssssscsssssssssssssssssssssssscssscssssscsss" />
      <path
         style="fill:#0f9ca0"
         d="m 251.55242,200.78955 c -5.7827,-1.44019 -17.56931,-7.45473 -21.21736,-10.82692 -6.10416,-5.64257 -12.14275,-13.97669 -14.32033,-19.7641 -2.92436,-7.77214 -6.01412,-23.94617 -6.01412,-31.48229 0,-15.67473 9.01913,-33.91168 21.8233,-44.127359 11.23132,-8.960797 28.12036,-13.089611 43.81309,-10.710858 9.87058,1.496215 14.21495,3.710092 22.05648,11.239921 7.26397,6.975226 8.82225,10.646066 7.90583,18.623756 -2.23344,19.44254 -23.12862,35.28122 -53.49279,40.54789 -4.61676,0.80078 -8.80272,1.86458 -9.30214,2.364 -1.33243,1.33243 5.13291,17.76286 9.69303,24.63297 4.47792,6.74627 8.50625,9.5618 13.68811,9.56705 5.38839,0.005 8.55723,-1.52498 10.8109,-5.22133 3.41572,-5.60231 2.71397,-8.20888 -4.12846,-15.33456 -5.94967,-6.19596 -6.08626,-6.45732 -4.57778,-8.75954 2.31733,-3.5367 12.19031,-7.84607 19.21043,-8.385 5.38714,-0.41356 6.47864,-0.15216 10.68587,2.55909 5.99381,3.86256 8.33859,7.459 8.22387,12.6138 -0.12548,5.63797 -2.71303,10.54887 -8.72697,16.5628 -12.2466,12.24661 -32.61423,19.26703 -46.13096,15.90068 z m 1.87187,-55.96976 c 8.94285,-4.22529 15.7109,-10.88955 19.76557,-19.46244 2.90122,-6.13411 3.34811,-8.17513 3.61274,-16.5 0.24907,-7.83535 -0.0316,-10.113291 -1.60161,-13 -2.00432,-3.685183 -7.42335,-8 -10.0473,-8 -2.383,0 -10.23205,8.959581 -14.32573,16.35261 -7.39845,13.36131 -12.14879,35.44121 -8.92208,41.47038 1.56249,2.91953 3.88512,2.746 11.51841,-0.86055 z m 275.84848,54.6007 c -16.32443,-3.95561 -30.08272,-16.14125 -37.65075,-33.34707 -2.25227,-5.1205 -2.86689,-8.26793 -3.31969,-17 -0.30781,-5.93609 -0.0676,-13.83847 0.53844,-17.71607 2.56927,-16.43789 16.20726,-35.08078 30.79609,-42.097725 10.2039,-4.907881 23.10673,-7.066543 32.75257,-5.479554 3.91115,0.643484 9.36118,2.200387 12.11118,3.459784 5.64346,2.58449 15.85959,11.478393 18.0497,15.713595 2.14882,4.15536 1.81813,13.84068 -0.70392,20.61639 -5.37372,14.43697 -26.99344,27.64772 -50.34578,30.76384 -10.14003,1.35308 -9.81889,1.09502 -9.22585,7.41375 1.189,12.66839 8.5092,24.23739 18.18775,28.74433 6.25173,2.91119 9.91827,2.98543 12.64763,0.25607 1.80895,-1.80895 2.05197,-3.01328 1.70564,-8.45237 -0.33122,-5.20159 -0.94716,-7.02616 -3.42327,-10.14048 -4.27597,-5.3781 -4.59877,-6.07045 -3.88251,-8.3272 1.27535,-4.01826 18.71277,-10.6829 25.19753,-9.63057 8.65126,1.40391 12.29308,5.28409 12.29308,13.09768 0,9.00513 -5.70112,16.84931 -18.39835,25.3143 -11.32707,7.55154 -24.41741,9.94006 -37.32949,6.8113 z m 1.44322,-54.29513 c 8.23521,-3.89919 18.43033,-14.21787 22.37389,-22.64506 2.82719,-6.04158 3.08675,-7.41036 2.76185,-14.56479 -0.31093,-6.84668 -0.75696,-8.459564 -3.35486,-12.131421 -4.57021,-6.459512 -5.70894,-6.858142 -11.21714,-3.926739 -5.86723,3.122476 -13.35586,13.63242 -16.38815,23 -2.71944,8.40111 -3.95698,30.71113 -1.78002,32.08973 1.77596,1.12466 0.9777,1.31589 7.60443,-1.82172 z m 202.42818,54.09112 c -5.90033,-2.16264 -12.65201,-8.83042 -14.03351,-13.85913 -1.90058,-6.91817 -1.25121,-12.25986 3.89022,-32.001 9.28998,-35.67003 7.70502,-51.1701 -6.11058,-59.758358 -7.04144,-4.377199 -6.27772,-5.748723 4.61956,-8.296017 21.69774,-5.071957 25.18278,-7.541059 39.22015,-27.786925 1.77616,-2.561735 3.75296,-4.6577 4.39289,-4.6577 1.16347,0 1.1265,1.103189 -0.76599,22.853369 -0.75274,8.651109 -0.3789,9.108739 7.45945,9.131319 6.19462,0.01784 9.18425,1.317142 9.18425,3.991479 0,2.761618 -1.65745,3.463652 -9.5,4.023833 l -7,0.5 -0.63699,6.5 c -0.91275,9.31388 -0.29353,29.2786 1.1701,37.72577 1.47306,8.50162 0.88191,9.75403 -4.97475,10.53958 -6.17605,0.82838 -18.05388,7.1264 -23.74644,12.59115 -6.67563,6.40847 -9.31192,11.57762 -9.31192,18.2585 0,4.75811 0.33559,5.51391 3.99312,8.99323 5.86017,5.57465 13.1934,6.34283 18.91407,1.98131 1.89792,-1.447 2.5051,-3.01598 2.87,-7.41622 0.61225,-7.3829 -0.0194,-9.45974 -4.23507,-13.92564 -1.94817,-2.06378 -3.54212,-4.24573 -3.54212,-4.84879 0,-2.53019 6.54467,-7.00676 13.19845,-9.02778 11.74812,-3.56839 21.10669,-0.53663 23.83176,7.72043 3.47701,10.53542 -7.6112,29.1075 -21.03021,35.22433 -7.07964,3.22714 -21.13747,4.00595 -27.85644,1.54326 z m 91.85644,-0.4807 c -12.02665,-4.72315 -24.99301,-16.31959 -29.49457,-26.37843 -5.0618,-11.31068 -5.94441,-16.14496 -5.93366,-32.5 0.01,-14.97354 0.11462,-15.75908 3.08472,-23.1279 4.45926,-11.06346 9.51497,-18.086978 17.18175,-23.869341 7.37423,-5.561716 12.08074,-7.292118 25.86828,-9.510753 10.05798,-1.61849 15.17823,-1.090112 20.06372,2.070457 7.54259,4.879519 18.30067,14.948327 27.22632,25.481917 14.87745,17.55761 14.50429,16.68368 14.49904,33.95562 -0.004,12.6133 -0.30568,15.34576 -2.31984,21 -3.19571,8.97114 -6.3507,14.07711 -12.34289,19.97553 -9.26548,9.12049 -21.7449,13.3099 -43.33287,14.54709 -7.65171,0.43852 -9.82395,0.1922 -14.5,-1.64419 z m 21.91988,-9.62998 c 9.12313,-4.6643 17.35827,-34.92464 15.75848,-57.90515 -0.52682,-7.56754 -0.85631,-8.53785 -4.56173,-13.43355 -3.82008,-5.04719 -6.08569,-11.33762 -7.62106,-21.15975 -0.53715,-3.436282 -0.85578,-3.75 -3.80874,-3.75 -5.61957,0 -9.98748,3.992146 -14.43855,13.19643 -5.73568,11.86072 -7.68043,22.04074 -7.69942,40.30357 -0.0217,20.89276 3.61619,35.8037 10.13082,41.52361 3.89761,3.42215 7.28029,3.76064 12.2402,1.22484 z m 40.96906,-63.49845 c -3.54066,-6.74307 -28.22585,-32.75 -31.08556,-32.75 -2.19261,0 -2.22625,0.956276 -0.29456,8.37254 2.59446,9.96081 9.12467,17.68102 18.49118,21.86083 9.78519,4.36665 10.47449,4.6303 12.28519,4.69895 1.53797,0.0583 1.62158,-0.24389 0.60375,-2.18232 z m -451.01551,70.5 c -1.95874,-5.00109 -0.33991,-29.04101 3.08076,-45.75 3.48262,-17.01163 5.70106,-37.22705 4.68024,-42.64855 -0.90397,-4.80092 -4.16877,-8.85145 -7.13443,-8.85145 -4.38756,0 -8.71376,7.88588 -15.63513,28.5 l -4.36487,13 0.006,19.5 c 0.005,17.75 0.22139,20.19927 2.40811,27.29189 1.87509,6.08184 2.1377,8.05703 1.19661,9 -0.83516,0.83683 -7.10395,1.30431 -20.39786,1.52114 -23.72505,0.38697 -22.72252,1.01315 -22.69285,-14.17381 0.0263,-13.4426 1.13696,-20.59072 6.62541,-42.63922 5.37348,-21.5866 5.9159,-29.1818 2.54843,-35.68392 -3.68595,-7.117051 -7.88787,-8.917646 -12.44509,-5.332934 -3.41519,2.686384 -10.32873,16.972034 -12.24789,25.308164 -4.43577,19.26736 -5.69375,46.40074 -2.86748,61.84884 0.89825,4.90975 1.46075,9.09885 1.25,9.30911 -0.21075,0.21026 -10.3851,0.70957 -22.60967,1.10958 -20.17095,0.66003 -22.28522,0.57425 -22.86154,-0.92763 -0.34928,-0.9102 0.52147,-6.48708 1.93499,-12.39306 5.5048,-23.00015 6.13771,-34.99029 3.23249,-61.23815 -1.70744,-15.4263 -2.51863,-19.72225 -5.65117,-29.927661 -1.1896,-3.875571 -1.61055,-6.790072 -1.0602,-7.340426 1.10934,-1.109338 40.86683,-0.464291 43.43939,0.704784 1.14396,0.519863 1.5766,1.416429 1.17857,2.442346 -1.82421,4.701852 -3.63114,13.673207 -4.45539,22.120957 -1.81176,18.56874 -1.98966,22 -1.14068,22 0.47262,0 2.3028,-4.13375 4.06708,-9.1861 4.72128,-13.52038 10.54545,-24.403438 16.38103,-30.609684 6.90193,-7.340321 11.09405,-9.154653 21.21613,-9.182254 7.20393,-0.01964 8.54071,0.286559 12.66238,2.900442 4.84199,3.070703 9.09366,9.209024 10.2623,14.816126 0.37124,1.7812 1.05404,3.47281 1.51734,3.75915 0.46331,0.28633 3.46618,-2.69684 6.67307,-6.629272 6.15971,-7.553334 13.00763,-11.982063 23.99373,-15.51737 4.86536,-1.565666 5.37854,-1.559191 8.90095,0.112303 5.3428,2.535325 12.43235,9.367704 14.565,14.036659 2.27799,4.98713 2.32008,10.5657 0.23351,30.94575 -1.40175,13.69133 -1.45944,17.85847 -0.40072,28.94516 1.49876,15.69453 2.91867,21.43588 7.60072,30.73318 2.65739,5.27689 3.29649,7.41714 2.46366,8.25056 -1.34786,1.34884 -14.7948,2.40267 -32.30091,2.53141 l -12.77475,0.0939 z m -241.11327,1.17682 c -0.36738,-0.36738 -10.25121,-0.72621 -21.96406,-0.79739 l -21.2961,-0.12943 0.0545,-6 c 0.0299,-3.3 0.58699,-9.15 1.23788,-13 2.03877,-12.05919 3.25817,-32.84696 3.89402,-66.38339 0.52153,-27.506932 0.40314,-32.313626 -0.78618,-31.920131 -1.63058,0.539489 -6.41998,11.072063 -29.24029,64.303521 -16.88435,39.38505 -22.37536,51 -24.1104,51 -1.04706,0 -3.02903,-4.55514 -10.44259,-24 -6.775916,-17.77241 -16.874084,-41.02774 -25.619577,-59 -7.568752,-15.554018 -20.0991,-35 -22.552843,-35 -2.473816,0 -3.122089,9.881314 -2.558635,39 0.707679,36.57205 1.768555,41.30422 14.961387,66.73718 4.909057,9.46361 5.843248,11.9818 4.822716,13 -1.709261,1.70536 -33.524397,1.80119 -35.217824,0.10608 -0.87421,-0.87508 -0.615633,-2.57955 1.061935,-7 4.536772,-11.95455 6.093758,-25.55066 6.681295,-58.34326 0.780425,-43.558334 -1.220539,-73.756686 -5.66106,-85.43614 -0.628427,-1.652889 -0.723829,-3.26431 -0.222915,-3.765224 1.35637,-1.35637 46.457137,-2.633977 47.850285,-1.355495 0.633407,0.581272 3.711178,8.031859 6.839491,16.556859 10.039967,27.360027 34.233165,73.09749 39.030975,73.78842 1.68524,0.24269 2.98438,-1.89787 8.19329,-13.5 5.9619,-13.27931 11.44114,-26.317699 20.95466,-49.863712 7.47016,-18.488712 11.44479,-25.784563 14.45429,-26.532402 1.4434,-0.358674 9.7684,-0.818672 18.5,-1.02222 l 15.87564,-0.370086 -0.30118,4 c -0.16566,2.2 -1.37862,11.65 -2.69547,21 -4.73247,33.601876 -5.37148,47.33226 -3.46722,74.5 1.56527,22.33152 3.76181,39.52412 5.98487,46.84454 1.11162,3.6605 2.12415,8.00546 2.25006,9.65546 0.20372,2.66947 -0.10554,3.03277 -2.807,3.29739 -1.66976,0.16357 -3.33652,-0.003 -3.7039,-0.37057 z m 398.53765,-1.56798 c -1.22244,-1.47296 -1.10045,-2.25363 2.15989,-13.82162 1.89115,-6.71001 4.5423,-28.84361 4.5423,-37.92224 0,-3.68213 -0.675,-9.28628 -1.5,-12.45367 -0.825,-3.16739 -1.5,-5.89452 -1.5,-6.06029 0,-0.16577 5.01878,-0.56616 11.15284,-0.88976 8.17073,-0.43104 11.57035,-1.00587 12.71429,-2.14981 1.41526,-1.41527 0.415,-1.56145 -10.68422,-1.56145 -8.93946,0 -12.34207,-0.33749 -12.6027,-1.25 -0.19636,-0.6875 -1.31205,-7.325 -2.4793,-14.75 -1.16726,-7.425 -2.39496,-14.5125 -2.72823,-15.75 l -0.60594,-2.25 H 608.729 c 17.99144,0 16.45673,0.620381 22.24412,-8.991781 1.8186,-3.02048 4.03126,-6.043668 4.91702,-6.718197 1.07765,-0.820657 5.96481,-1.236937 14.77158,-1.258218 l 13.16111,-0.0318 2.33889,2.873976 c 1.28639,1.580687 3.08987,4.253506 4.00772,5.939598 1.24329,2.28393 2.77321,3.339067 6,4.138017 9.87067,2.443971 11.73002,3.190772 15.93149,6.398838 2.42034,1.848063 5.38717,5.337743 6.59297,7.754843 2.18705,4.384084 4.937,21.065884 3.78099,22.936344 -0.32577,0.52711 -3.82825,0.99262 -7.78329,1.03446 -7.48183,0.0791 -13.78655,1.71062 -14.46395,3.74281 -0.28693,0.86078 2.6122,1.18111 10.68963,1.18111 7.57615,0 11.08333,0.35779 11.08333,1.13067 0,0.62187 -0.73103,5.68437 -1.62452,11.25 -1.17993,7.34997 -1.47353,13.60863 -1.07282,22.86933 l 0.5517,12.75 -8.17718,0.0354 c -5.1957,0.0225 -9.0887,0.5565 -10.67718,1.46456 -2.97169,1.69877 -2.51853,1.79689 8.84046,1.914 9.48834,0.0978 9.89094,0.3836 15.64805,11.10678 2.42825,4.52286 2.7287,5.72694 1.60271,6.42285 -1.58655,0.98054 -30.83194,2.396 -39.09122,1.892 l -5.5,-0.33563 -0.3037,-4.72351 -0.30371,-4.72351 -4.19629,0.45226 c -2.30796,0.24875 -7.28185,0.72779 -11.05309,1.06454 l -6.85679,0.61228 0.56025,2.80129 c 0.74528,3.72638 -0.11188,3.88743 -24.8555,4.66996 -16.67072,0.52722 -20.20645,0.39468 -21.19336,-0.79447 z m 70.64308,-14.1286 c 7.78084,-2.88413 13.87771,-9.3407 17.86528,-18.91927 4.90525,-11.78294 4.1988,-18.51136 -3.14972,-29.99895 -4.14129,-6.47388 -9.53295,-11.37422 -16.34142,-14.85229 -4.06014,-2.0741 -6.22601,-2.45973 -13.81503,-2.45973 -7.47425,0 -9.77831,0.39803 -13.59111,2.3479 -5.59412,2.86085 -14.21595,11.08914 -17.38747,16.59384 -5.90079,10.24181 -5.37647,24.47252 1.22852,33.34384 3.47086,4.66179 11.59928,11.82396 16.0466,14.1391 6.55237,3.41095 19.65351,3.32355 29.14435,-0.19444 z m -27.49357,-5.22148 c -8.70962,-4.53976 -10.82758,-6.54272 -14.19386,-13.42315 -3.71366,-7.59044 -3.82683,-18.27383 -0.27049,-25.53418 5.35371,-10.92971 14.70716,-16.80006 27.01703,-16.95626 6.62249,-0.084 8.14351,0.26598 13,2.99151 10.83675,6.08174 18.29443,19.79218 16.51021,30.35291 -1.14487,6.77646 -5.94367,15.46565 -10.63918,19.26441 -5.04524,4.08169 -8.78338,5.39032 -17.93407,6.27828 -6.18789,0.60046 -6.95899,0.43049 -13.48964,-2.97352 z m 20.72205,-0.53908 c 5.15172,-1.43088 13.66193,-9.41213 16.4733,-15.4494 3.07845,-6.61079 3.01492,-12.55772 -0.20853,-19.52028 -9.0175,-19.47756 -30.01018,-23.87051 -44.04983,-9.21791 -7.41605,7.73981 -9.35465,21.47522 -4.40136,31.18448 5.2685,10.32711 20.16037,16.34334 32.18642,13.00311 z m -18.79519,-4.92837 c -7.82066,-4.48556 -11.5027,-9.75871 -12.10436,-17.33504 -0.7274,-9.15957 1.01945,-14.33713 6.69109,-19.83197 7.82283,-7.57896 17.76362,-9.59213 26.15905,-5.29762 4.44698,2.27476 11.48864,10.95372 12.85933,15.84932 2.10024,7.50133 -1.5651,17.24017 -9.1367,24.27627 -6.45192,5.99561 -16.43003,6.94946 -24.46841,2.33904 z m 16.81073,-5.93561 c 4.61705,-1.78351 10.80272,-9.39116 10.81136,-13.29668 0.009,-4.199 -5.14717,-2.1845 -6.58567,2.57286 -0.85657,2.83282 -4.38574,6.62757 -7.1606,7.69947 -2.47859,0.95745 -3.09453,3.91865 -0.81509,3.91865 0.78919,0 2.47669,-0.40243 3.75,-0.8943 z m -17.68491,-18.16299 c 1.1,-1.67835 4.1375,-4.60131 6.75,-6.49546 8.38825,-6.08178 4.44256,-9.17486 -4.48311,-3.51437 -5.23344,3.31895 -6.76689,5.58536 -6.76689,10.00138 0,3.94086 1.92031,3.94447 4.5,0.008 z m -18.78399,29.67462 c 0.39229,-0.39229 0.2336,-1.47917 -0.35265,-2.41529 -1.94099,-3.09936 -13.65763,-2.7649 -16.9051,0.48256 -1.30596,1.30596 -1.35868,1.7752 -0.28214,2.51143 1.48981,1.01887 16.43542,0.52576 17.53989,-0.5787 z m 52.84668,-65.85632 c -1.31056,-9.87947 -7.19695,-15.397785 -13.597,-12.746796 -2.91044,1.205546 -10.96569,9.364976 -10.96569,11.107526 0,0.46209 1.0125,1.04592 2.25,1.2974 8.24339,1.67521 16.52472,3.82677 17.77676,4.61856 0.81028,0.51242 2.31872,0.93857 3.35208,0.94699 1.68886,0.0138 1.80856,-0.51441 1.18385,-5.22368 z m -30.54425,-3.89033 c 5.42317,-8.042715 13.97069,-16.407219 21.23156,-20.776969 2.0625,-1.241256 3.75,-2.496358 3.75,-2.789116 0,-0.292757 -0.96675,-2.252386 -2.14833,-4.354731 -2.04797,-3.643865 -2.44482,-3.854197 -8.49451,-4.502064 -8.07855,-0.865139 -17.32092,0.256346 -19.70953,2.391591 -1.01881,0.910738 -2.53418,2.974332 -3.36748,4.585764 -1.38589,2.680007 -1.36506,3.039584 0.24419,4.216297 0.96761,0.707532 2.1947,1.43156 2.72687,1.608951 0.59384,0.197946 0.37574,3.398603 -0.56463,8.286064 -3.00205,15.602743 -3.06377,19.463533 -0.31115,19.463533 0.63879,0 3.62815,-3.65819 6.64301,-8.12932 z m -18.36756,-1.87068 c 2.91706,0 3.34912,-0.32666 3.34912,-2.53212 0,-1.39266 -0.65203,-4.092664 -1.44897,-5.999998 l -1.44897,-3.467882 h -10.05103 -10.05103 v 5.833334 c 0,3.208336 0.3375,6.183486 0.75,6.611446 0.4125,0.42796 4.0804,0.50296 8.15088,0.16667 4.07049,-0.3363 8.90799,-0.61145 10.75,-0.61145 z M 605.37916,81.401452 c -1.34975,-3.517402 0.31517,-4.544652 7.34007,-4.528789 7.92648,0.0179 10.33001,1.04457 8.67662,3.706221 -1.53908,2.477625 -15.11405,3.174794 -16.01669,0.822568 z"
         id="path8" />
    </g>
    <path
       style="fill:#2791b0;stroke:#472fc8;stroke-width:0;stroke-linecap:round;stroke-linejoin:round;stroke-miterlimit:3.2;paint-order:markers fill stroke"
       d="m -35.729572,-85.508037 c 0,0 -2.268908,-2.727274 0,0 z"
       id="path10"
       sodipodi:nodetypes="cc" />
  </g>
</svg>
