<?xml version="1.0" encoding="UTF-8" standalone="no"?>
<!-- Created with Inkscape (http://www.inkscape.org/) -->

<svg
   width="120"
   height="120"
   viewBox="0 0 120 120"
   version="1.1"
   id="svg1"
   inkscape:version="1.4.2 (f4327f4, 2025-05-13)"
   sodipodi:docname="MEMENTO_LOGO.svg"
   xmlns:inkscape="http://www.inkscape.org/namespaces/inkscape"
   xmlns:sodipodi="http://sodipodi.sourceforge.net/DTD/sodipodi-0.dtd"
   xmlns="http://www.w3.org/2000/svg"
   xmlns:svg="http://www.w3.org/2000/svg">
  <sodipodi:namedview
     id="namedview1"
     pagecolor="#ffffff"
     bordercolor="#000000"
     borderopacity="0.25"
     inkscape:showpageshadow="2"
     inkscape:pageopacity="0.0"
     inkscape:pagecheckerboard="0"
     inkscape:deskcolor="#d1d1d1"
     inkscape:document-units="px"
     inkscape:zoom="4.8024336"
     inkscape:cx="43.936058"
     inkscape:cy="65.487632"
     inkscape:window-width="1920"
     inkscape:window-height="1017"
     inkscape:window-x="1912"
     inkscape:window-y="-8"
     inkscape:window-maximized="1"
     inkscape:current-layer="layer1" />
  <defs
     id="defs1" />
  <g
     inkscape:label="Capa 1"
     inkscape:groupmode="layer"
     id="layer1">
    <path
       d="m 74.891819,100.1239 -8.01967,-0.0782 0.22611,-6.024973 -7.46976,0.39588 c -6.81297,0.3608 -7.37812,0.54458 -6.42851,2.08488 0.63084,1.02356 0.69327,1.93465 0.15818,2.31215 -0.48552,0.34262 -7.4931,0.72582 -15.57205,0.85142 -10.94597,0.17027 -14.84214,-0.10754 -15.28986,-1.09049 -0.33052,-0.72551 -0.17627,-1.90279 0.34362,-2.6163 0.51949,-0.71348 1.25699,-2.89427 1.63906,-4.84617 l 0.69465,-3.54892 16.87458,-0.29164 -2.10874,-2.07497 c -1.72377,-1.69632 -2.92812,-1.95251 -6.5978,-1.40379 -2.46899,0.36922 -5.15087,0.90764 -5.95977,1.19646 -0.89058,0.31806 -1.42504,-0.0704 -1.35492,-0.98467 0.0637,-0.83043 0.65093,-4.69839 1.30499,-8.59549 0.77093,-4.59371 0.87476,-9.83176 0.29509,-14.89464 l -0.89415,-7.80863 7.84752,-0.12239 c 5.68686,-0.0887 7.82701,-0.45676 7.77337,-1.33543 -0.0502,-0.82257 -2.56984,-1.15496 -7.82744,-1.03238 l -7.7534,0.18067 -1.1081,-7.94725 c -0.60947,-4.37099 -1.54952,-9.43912 -2.08894,-11.26264 l -0.98083,-3.3154 22.17897,0.0946 2.55296,-4.51785 c 1.40421,-2.48478 2.98458,-4.903368 3.51205,-5.374583 0.52737,-0.471109 4.56863,-0.806674 8.98055,-0.745586 4.41192,0.06109 8.77908,0.283401 9.70464,0.493997 0.92565,0.21059 2.45961,2.025896 3.40882,4.033892 1.51614,3.20727 2.34801,3.77053 6.84585,4.63518 3.70245,0.71173 6.14562,1.98903 8.82428,4.61309 2.0373,1.99588 4.28557,5.31585 4.99603,7.37789 0.71046,2.06195 1.41086,5.65775 1.55628,7.99073 l 0.26894,4.24149 -6.23753,0.3948 c -3.4305,0.21943 -7.22663,0.72538 -8.43553,1.12979 -1.20891,0.40441 -1.92774,1.11844 -1.5973,1.58657 0.33045,0.46824 3.99098,0.64432 8.13466,0.39137 6.35707,-0.38807 7.45694,-0.21536 7.04053,1.10526 -0.27145,0.86084 -1.05031,4.40238 -1.73078,7.87007 -0.68057,3.46772 -0.988,9.94769 -0.68319,14.39939 l 0.55427,8.09487 -6.84077,-0.0715 c -4.06414,-0.0425 -7.06827,0.35234 -7.40137,0.97289 -0.34642,0.64541 2.33641,1.13855 7.02219,1.29072 5.78249,0.18781 7.72557,0.63204 8.18412,1.87111 0.33076,0.8936 1.57994,3.4811 2.77601,5.74993 l 2.17459,4.12517 -7.73379,0.28847 c -4.25354,0.158573 -11.34265,0.253193 -15.75346,0.210273 z m -2.19647,-11.309173 c 3.25313,-1.92199 5.13453,-4.09988 7.47028,-8.64735 2.56052,-4.98488 3.0612,-7.07657 2.78341,-11.6272 -0.25892,-4.24131 -1.04699,-6.60477 -3.34347,-10.0269 -1.65262,-2.46248 -4.92621,-5.92885 -7.27478,-7.70305 -2.34847,-1.7742 -6.18115,-3.57721 -8.51697,-4.00679 -2.77758,-0.5107 -5.93013,-0.35302 -9.11166,0.45574 -2.67563,0.68009 -5.89353,2.00413 -7.15091,2.94228 -1.25737,0.93816 -3.84956,3.47252 -5.76044,5.63186 -1.91098,2.15935 -3.91291,5.7977 -4.44881,8.0853 -0.53592,2.28749 -0.89282,5.45433 -0.79308,7.03739 0.0966,1.58315 0.72394,4.45246 1.38712,6.37663 0.66327,1.92406 2.94131,5.29191 5.06233,7.48415 2.12111,2.19213 5.54771,4.75129 7.61466,5.68699 2.66229,1.20522 5.79594,1.58158 10.74662,1.29079 5.34648,-0.31436 8.0094,-1.01401 11.33651,-2.97959 z m -20.19997,-1.17236 c -1.48257,-0.87008 -4.06933,-2.62533 -5.74834,-3.90039 -1.67901,-1.27507 -3.69087,-3.54029 -4.47083,-5.03394 -0.77996,-1.49365 -1.5716,-5.23016 -1.75921,-8.30344 -0.26685,-4.37126 0.19593,-6.56352 2.12603,-10.07054 1.51292,-2.74889 4.20265,-5.56943 6.954,-7.29207 3.0778,-1.92712 6.01184,-2.8972 9.34343,-3.08925 3.16927,-0.18245 6.29152,0.41742 8.98655,1.72744 2.2715,1.10405 5.77408,4.15139 7.78359,6.77182 3.41707,4.45617 3.64631,5.17533 3.54232,11.1148 -0.089,5.09048 -0.65122,7.11259 -2.83347,10.19158 -1.49736,2.11266 -4.14526,4.94236 -5.88428,6.28833 -2.42991,1.88075 -4.57183,2.53177 -9.25302,2.81243 -4.12742,0.25195 -6.96005,-0.14469 -8.78677,-1.21687 z m 15.76368,-2.61948 c 1.43517,-0.86495 3.73813,-2.9216 5.11773,-4.57032 1.37961,-1.64873 2.90893,-4.29132 3.3985,-5.87239 0.48957,-1.58107 0.79537,-4.42639 0.6796,-6.32296 -0.12157,-1.99149 -1.43044,-5.16442 -3.09806,-7.51007 -1.58807,-2.23399 -3.76211,-4.8041 -4.83118,-5.71134 -1.06907,-0.90735 -3.13437,-2.02107 -4.58973,-2.47494 -1.45537,-0.45397 -4.3183,-0.72332 -6.36219,-0.59855 -2.0438,0.12476 -5.65846,1.3598 -8.0326,2.74454 -3.15329,1.83925 -4.84842,3.7548 -6.29046,7.10839 -1.2356,2.87363 -1.86369,6.39684 -1.67917,9.41951 0.16212,2.65586 0.99994,6.00313 1.8617,7.43849 0.86186,1.43535 2.67847,3.49889 4.03691,4.58564 1.35853,1.08664 3.84621,2.36444 5.52828,2.83943 1.68207,0.47499 4.99178,0.78119 7.35483,0.68042 2.36302,-0.10117 5.47068,-0.89089 6.90584,-1.75585 z m -15.09244,-1.45078 c -1.52852,-0.8794 -3.83102,-2.78024 -5.11669,-4.22408 -1.28556,-1.44386 -2.6749,-4.33978 -3.08726,-6.43545 -0.41235,-2.09557 -0.31933,-5.44446 0.20774,-7.44189 0.52668,-1.99739 2.41036,-5.07318 4.18601,-6.83505 1.77565,-1.76176 4.88194,-3.61919 6.90302,-4.12758 2.32104,-0.58381 5.17878,-0.49968 7.75814,0.22841 2.65948,0.75065 5.32135,2.58917 7.6327,5.27182 2.73133,3.16997 3.60906,5.10166 3.80939,8.38335 0.19115,3.13127 -0.45106,5.38429 -2.41714,8.47914 -1.47269,2.31814 -3.66351,4.99911 -4.86853,5.95772 -1.3109,1.04281 -4.20718,1.86341 -7.20964,2.04269 -3.1117,0.18995 -6.07433,-0.30765 -7.79774,-1.29908 z m 14.05999,-2.33264 c 1.73373,-1.34564 3.77754,-3.61188 4.54188,-5.0361 1.20593,-2.24706 0.96098,-2.14184 -1.85248,0.79525 -1.78329,1.86152 -4.46304,3.76574 -5.95514,4.23142 -1.49209,0.46578 -2.9354,1.2613 -3.20724,1.76791 -0.27193,0.50661 0.36401,0.86863 1.41315,0.80459 1.04915,-0.0641 3.3261,-1.21743 5.05983,-2.56307 z m 0.63043,-4.54686 c 1.52053,-1.60814 2.97922,-3.89797 3.24157,-5.08847 0.31601,-1.43402 -0.0501,-2.33098 -1.08544,-2.6574 -1.09527,-0.3453 -1.94033,0.59363 -2.82623,3.13994 -0.82683,2.3764 -2.28127,4.0892 -4.2063,4.9532 -1.61835,0.72646 -2.92109,1.6714 -2.89492,2.1001 0.0262,0.4286 1.16339,0.71113 2.52715,0.62788 1.36386,-0.0833 3.72373,-1.46712 5.24417,-3.07525 z m -15.21119,-9.35353 c 0.22148,-1.12299 1.97421,-2.81392 3.89486,-3.7578 1.92067,-0.94378 3.45127,-2.38372 3.40145,-3.1998 -0.0498,-0.81608 -0.92243,-1.43306 -1.93924,-1.37099 -1.0168,0.0621 -3.31233,1.23122 -5.10118,2.59795 -2.11687,1.6175 -3.305,3.43897 -3.40274,5.21702 -0.1024,1.8625 0.31033,2.70382 1.29689,2.64359 0.79592,-0.0486 1.62836,-1.00709 1.84996,-2.12997 z m 2.66571,-8.95977 c 1.60964,-0.7115 4.03827,-1.54653 5.39697,-1.85559 1.58814,-0.36124 1.04172,-0.52205 -1.53028,-0.4503 -2.40551,0.0667 -5.22139,0.96204 -7.06255,2.24481 -1.68403,1.17329 -3.53474,3.20062 -4.11273,4.50516 -1.01075,2.28163 -0.94734,2.26674 1.66558,-0.38921 1.49404,-1.51865 4.03338,-3.34327 5.64301,-4.05487 z m 19.42666,-14.44955 c -0.52166,-3.30035 -1.58703,-5.74547 -3.14177,-7.21026 -1.5844,-1.49274 -3.05261,-2.00282 -4.49716,-1.56249 -1.17968,0.35965 -3.52065,2.11856 -5.20221,3.90865 -1.68154,1.79018 -3.0418,3.50956 -3.0228,3.82088 0.019,0.31142 2.34495,0.96812 5.16873,1.45937 2.82388,0.49125 6.39278,1.71837 7.93088,2.72683 1.53821,1.00844 2.96707,1.83742 3.17526,1.84225 0.20805,0.004 0.0232,-2.23868 -0.41093,-4.98523 z m -20.85121,-1.25493 c 1.02657,-1.9126 3.98056,-5.62499 6.56442,-8.24991 2.58376,-2.62491 6.22297,-5.38127 8.0871,-6.12524 1.86414,-0.74397 3.36528,-1.7459 3.33594,-2.2265 -0.0293,-0.48051 -0.6444,-1.98593 -1.36688,-3.34533 -1.06306,-2.00035 -2.01773,-2.42867 -5.00657,-2.24622 -2.03122,0.124 -5.72634,0.0721 -8.21157,-0.11517 -4.25063,-0.32049 -4.64394,-0.13959 -6.63416,3.0504 -1.97672,3.16834 -1.99758,3.46676 -0.31738,4.54469 1.65591,1.06227 1.70758,1.58379 0.65217,6.58199 -0.63036,2.98555 -1.32404,7.12301 -1.54164,9.19432 -0.32675,3.11099 -0.13734,3.64854 1.08832,3.09022 0.81606,-0.37171 2.32379,-2.24065 3.35025,-4.15325 z m -8.40998,-5.90764 c -0.11625,-1.90426 -0.89146,-3.28569 -2.17434,-3.87471 -1.09661,-0.50342 -4.49373,-0.76281 -7.54914,-0.57629 l -5.55546,0.33913 0.48746,7.98514 14.97213,-0.91398 z m -11.94515,-11.04368 c -1.52365,-0.13652 -2.80797,-0.86572 -2.85403,-1.62031 -0.0461,-0.7546 0.34971,-1.67793 0.87961,-2.05181 0.52981,-0.37388 3.0017,-0.50023 5.49307,-0.28123 3.5273,0.31086 4.55518,0.81586 4.64469,2.28213 0.087,1.42495 -0.55494,1.88732 -2.63908,1.90094 -1.51468,0.0103 -4.00064,-0.0937 -5.52429,-0.23022 z"
       style="fill:#27b0a9"
       id="path1" />
  </g>
</svg>
