<?xml version="1.0" encoding="UTF-8"?>
<!-- Created with Inkscape (http://www.inkscape.org/) -->
<svg width="297mm" height="210mm" version="1.1" viewBox="0 0 1122.5 793.7" xmlns="http://www.w3.org/2000/svg">
 <path d="m1021 470.05c-2.1684-0.61206-7.6622-2.7627-12.208-4.7794-4.5461-2.0165-12.113-7.5451-16.815-12.286-4.7023-4.7407-10.433-11.959-12.734-16.04-2.3016-4.0815-5.6269-13.693-7.3898-21.359-1.7627-7.6659-2.9846-18.439-2.715-23.941 0.26944-5.5017 1.4676-13.984 2.6627-18.85 1.1949-4.8658 3.9884-12.552 6.2075-17.081 2.2194-4.5289 6.9218-11.164 10.45-14.745 3.528-3.5808 9.7604-8.5348 13.85-11.009 4.0897-2.474 12.787-5.5393 19.327-6.8114 6.5396-1.2722 15.563-2.2295 20.048-2.1273 6.3315 0.14405 10.423 1.944 18.279 8.041 5.5667 4.3204 14.737 12.905 20.378 19.078 5.6415 6.1724 13.75 15.629 18.02 21.015 7.1609 9.0335 7.8402 10.865 8.7651 23.634 0.5515 7.6136-0.048 18.639-1.3324 24.501-1.2844 5.8618-4.2272 14.506-6.5398 19.209-2.3126 4.7037-7.6438 11.813-11.847 15.798-4.2034 3.9854-11.357 8.9036-15.898 10.929-4.6913 2.093-16.525 4.6012-27.411 5.8099-10.536 1.1698-20.93 1.6261-23.099 1.0143zm26.854-20.214c2.2896-3.6176 5.1121-9.253 6.2723-12.523 1.1603-3.2702 3.4345-11.256 5.0538-17.745 1.6196-6.4897 2.8574-19.847 2.7507-29.686-0.1599-14.761-0.7735-18.44-3.5117-21.058-1.8247-1.7446-4.8778-6.2577-6.7845-10.029-1.9068-3.7718-3.7507-10.775-4.0976-15.564-0.6007-8.2935-0.8901-8.6871-6.1129-8.3088-3.1076 0.22509-7.4705 2.5266-10.072 5.3132-2.5243 2.704-6.0306 8.389-7.7917 12.633-1.7612 4.2445-4.2634 12.139-5.5604 17.543-1.2972 5.4043-2.7743 16.659-3.2824 25.011-0.6391 10.504 0.077 20.529 2.3229 32.526 2.1289 11.368 4.7637 19.44 7.6497 23.433 3.7358 5.1681 5.5075 6.0101 11.701 5.5615 6.0076-0.43516 8.0359-1.6924 11.462-7.1061zm45.011-75.674c-2.0417-2.7728-7.7051-9.5314-12.585-15.019-4.8802-5.4878-12.634-13.579-17.23-17.981-4.5966-4.4015-8.7942-7.498-9.3276-6.8812-0.5336 0.61698-0.114 5.1687 0.9327 10.115 1.0467 4.9464 4.5796 12.436 7.8509 16.643 4.1892 5.3878 9.6652 9.2079 18.518 12.918 6.9134 2.8974 13.241 5.2632 14.062 5.2572 0.8207-5e-3 -0.1842-2.2794-2.2203-5.0526zm-191.67 94.716c-4.3673-1.6444-10.147-5.0629-12.843-7.5967-3.0105-2.8293-5.4792-7.7783-6.3975-12.826-0.82254-4.5202-0.85049-11.741-0.0778-16.046 0.77964-4.3047 4.1864-18.032 7.5709-30.506 4.6452-17.12 6.0024-26.001 5.537-36.235-0.50309-11.059-1.5447-14.96-5.6552-21.175-2.8195-4.2632-7.5206-8.4416-10.675-9.4884-3.1003-1.0286-5.7219-3.0455-5.8259-4.482-0.10406-1.4365 1.727-3.1491 4.0691-3.8059 2.342-0.65664 8.975-2.0569 14.74-3.1115 5.7649-1.0546 14.712-4.3502 19.884-7.3236 5.2856-3.0392 12.027-9.1838 15.397-14.035 3.2974-4.7456 6.7555-10.431 7.6846-12.635 0.92927-2.2036 3.1597-4.4016 4.9565-4.8846 1.797-0.48298 3.3501 0.26597 3.4514 1.6646 0.1013 1.3984-0.65917 8.6862-1.6898 16.195-1.0308 7.5087-1.7483 15.598-1.5943 17.977 0.24864 3.8313 1.2389 4.2551 8.6887 3.7154 5.0991-0.36936 9.4237 0.44779 10.987 2.0761 1.4177 1.4769 2.1709 4.0292 1.6733 5.6718-0.65457 2.1605-3.8012 3.1964-11.377 3.7452l-10.473 0.75858-0.31551 13.057c-0.17366 7.1815-0.34299 15.666-0.37659 18.855-0.0334 3.1886 0.91859 11.375 2.116 18.191 1.1972 6.8167 1.8688 13.502 1.4927 14.857-0.37637 1.3548-3.8327 2.6999-7.681 2.9891-3.8474 0.29794-11.173 2.8572-16.276 5.7069s-11.946 7.7851-15.206 10.968c-3.2592 3.1824-7.0143 8.3254-8.3445 11.429-1.3301 3.1033-2.2548 7.9031-2.0546 10.666 0.20016 2.7633 1.3746 6.6227 2.6096 8.5764 1.235 1.9539 5.0182 4.741 8.4071 6.1936 3.9426 1.6898 8.3633 2.0608 12.274 1.0298 4.0473-1.0669 6.741-3.3072 7.9746-6.6323 1.0244-2.7618 1.6433-8.0474 1.3754-11.746-0.34665-4.7856-2.034-7.963-5.852-11.02-3.1009-2.4825-4.9912-5.5298-4.4791-7.2202 0.48731-1.6087 4.2233-4.9438 8.3022-7.4115 4.5218-2.7355 11.137-4.756 16.95-5.1771 7.454-0.53994 10.902 0.30099 15.804 3.8544 5.0584 3.6665 6.3769 6.0157 6.8214 12.153 0.30311 4.1846-0.63902 10.476-2.0938 13.98-1.4546 3.5044-5.9482 10.332-9.9854 15.173-4.9831 5.975-10.323 9.9274-16.628 12.308-5.1082 1.9285-12.806 3.7421-17.106 4.0304-4.3002 0.28832-11.392-0.82142-15.759-2.4658zm-90.061-4.1082c-1.0261-0.87707-1.5799-3.8783-1.2304-6.6694l0.6355-5.0748-14.359 1.0401c-12.867 0.93201-14.155 1.3634-12.393 4.1501 1.0813 1.7104 2.0112 3.7318 2.0662 4.4919 0.0551 0.76029-13.111 1.7418-29.259 2.1812-16.147 0.43951-30.204 0.0691-31.234-0.82352-1.1281-0.97571-1.1758-3.8334-0.11967-7.1676 0.96591-3.0497 2.6067-8.2135 3.6459-11.475 1.0392-3.2615 1.9549-7.6726 2.0351-9.8025 0.0799-2.1299 1.0424-10.748 2.1384-19.152 1.0961-8.4038 1.7207-19.037 1.388-23.63-0.33268-4.5928-1.6488-10.593-2.9249-13.335l-2.32-4.9845 16.405-0.50629c12.203-0.37646 16.361-1.1214 16.231-2.9074-0.12458-1.7177-4.4816-2.0892-15.307-1.305l-15.132 1.0961-2.2996-16.73c-1.2647-9.2014-3.092-19.2-4.0608-22.22l-1.761-5.4904 43.008-0.50109 5.2325-10.068c4.5056-8.6697 6.0769-10.128 11.312-10.495 3.343-0.24214 12.063-0.29584 19.378-0.13609l13.298 0.2904 4.2097 7.9158c3.6568 6.8758 5.2046 8.0108 11.782 8.6377 4.1644 0.397 10.514 2.5802 14.11 4.8517 3.5961 2.2713 8.507 6.8501 10.913 10.175 3.2419 4.4801 4.6633 9.5004 5.4914 19.393l1.1175 13.347-9.1902 0.12443c-5.0547 0.0684-11.73 0.87867-14.835 1.7997-3.1048 0.92141-5.5872 2.4711-5.5168 3.4437 0.0705 0.97257 6.7122 1.2913 14.759 0.70839 14.257-1.0327 14.608-0.94805 13.712 3.3516-0.50532 2.4262-1.8522 9.2236-2.993 15.105-1.1406 5.8817-1.5609 17.778-0.93375 26.436l1.1403 15.742-11.336-0.20539c-6.6568-0.12067-12.769 0.77249-14.809 2.1626-2.8136 1.9186-1.2823 2.2462 8.067 1.7265 6.3468-0.3535 13.154-0.13622 15.128 0.48124 1.9734 0.6175 5.9794 5.969 8.9018 11.892l5.3137 10.77-28.767 1.4798c-15.822 0.81396-29.607 0.76219-30.634-0.11483zm9.5079-22.077c5.3767-2.9936 10.256-7.0316 10.843-8.9733 0.58661-1.9416 2.7347-6.4198 4.7735-9.9514 2.0386-3.5316 4.0186-10.029 4.3999-14.438 0.38748-4.4822-0.51763-11.2-2.0531-15.238-1.5106-3.9718-6.186-11.183-10.39-16.025-4.4281-5.1-11.375-10.361-16.513-12.506-6.1218-2.5554-12.163-3.4387-19.502-2.8512-6.267 0.50218-12.997 2.3768-16.391 4.5666-3.1671 2.0436-8.632 6.6634-12.144 10.266-3.5121 3.6028-7.4674 9.103-8.7897 12.223-1.3221 3.1197-2.7337 9.2373-3.1366 13.595-0.41163 4.4509 0.5576 11.83 2.2119 16.839 2.1004 6.3596 5.6545 11.26 12.395 17.09 5.1977 4.4955 12.153 9.1253 15.455 10.288 3.3029 1.1629 11.194 1.7642 17.535 1.336 8.2952-0.56026 14.272-2.3054 21.306-6.2214zm-43.295-4.0998c-5.5432-3.2222-11.805-8.7181-13.915-12.213-2.4086-3.9892-4.135-10.645-4.6379-17.882-0.64646-9.2997 0.12805-13.275 4.0068-20.566 3.1701-5.9588 7.6542-10.724 13.161-13.988 5.2886-3.1336 11.801-5.1878 17.75-5.5987 6.1511-0.4242 12.159 0.65523 17.394 3.127 4.3987 2.0766 11.11 7.7572 14.914 12.623 5.5397 7.0861 7.0572 10.787 7.6224 18.589 0.42704 5.8954-0.61666 13.067-2.6436 18.163-1.842 4.6318-6.3706 11.093-10.063 14.359-5.5857 4.9394-8.9658 6.2154-20.112 7.5917-12.622 1.5585-13.982 1.315-23.477-4.2045zm35.126-2.9152c2.7451-1.6971 7.1354-5.7082 9.7562-8.9135 2.6209-3.2053 5.5084-8.328 6.4168-11.384 0.90833-3.0556 1.4604-8.1918 1.2271-11.414-0.23339-3.222-2.9658-9.8166-6.0717-14.655-3.1062-4.8381-8.4591-10.576-11.895-12.751-3.6614-2.3175-10.053-4.0439-15.441-4.1704-6.7749-0.15925-11.297 1.0056-17.19 4.4302-4.3984 2.5553-9.8492 7.8609-12.113 11.79-2.395 4.1566-4.2086 11.069-4.3369 16.531-0.1213 5.1631 0.98668 12.315 2.4618 15.893 1.4753 3.5779 4.8761 8.2864 7.5573 10.463 2.6814 2.1767 8.2846 4.9018 12.452 6.0559 4.1672 1.1541 10.864 1.8984 14.882 1.6539 4.0177-0.2446 9.5509-1.8329 12.296-3.53zm-21.743 1.0642c-2.1535-0.40535-6.8791-2.651-10.501-4.9905-3.6224-2.3395-8.1719-6.8429-10.11-10.007-2.393-3.9069-3.4909-8.9523-3.4202-15.718 0.0586-5.6216 1.5603-12.313 3.4454-15.354 1.8379-2.9644 6.9408-7.5074 11.34-10.096 5.9415-3.4957 10.236-4.6162 16.701-4.3579 5.4578 0.21796 10.642 1.9106 13.903 4.5394 2.8598 2.3055 7.1216 6.5018 9.4705 9.3252 2.5953 3.1194 4.4414 8.0438 4.7056 12.552 0.2394 4.0801-0.66677 9.9515-2.0126 13.048-1.3459 3.0964-5.1297 8.6046-8.4087 12.241-4.0449 4.486-8.4104 7.0845-13.579 8.0834-4.1897 0.8094-9.3794 1.1401-11.533 0.73497zm18.431-15.305c3.1501-2.2482 6.466-6.8299 7.369-10.182 1.4226-5.2813 1.1986-6.0618-1.6796-5.8533-1.9408 0.14059-4.0664 2.7524-5.1155 6.2854-1.1379 3.8331-3.8887 7.0134-7.5177 8.6919-3.1477 1.456-5.6743 3.322-5.6146 4.1471 0.0598 0.82484 1.6212 1.3868 3.4698 1.2491 1.8489-0.13392 5.9384-2.0902 9.0886-4.3387zm-26.903-20.582c1.5871-2.8527 5.3512-6.2517 8.3646-7.5533 3.0131-1.3016 5.3908-3.5786 5.2835-5.06-0.10731-1.4814-1.0872-2.6289-2.1777-2.5499-1.0905 0.079-4.822 1.5792-8.2926 3.3338-3.4707 1.7545-7.1176 5.0029-8.1048 7.2186-0.98706 2.2157-1.6966 5.382-1.5768 7.0363 0.11981 1.6541 0.983 2.9522 1.9179 2.8845 0.93509-0.0677 2.9987-2.4572 4.586-5.31zm-23.241 37.944c-0.0612-0.84522-1.2238-2.4989-2.5834-3.6749-1.3597-1.176-6.0833-1.8766-10.497-1.5569-4.5793 0.3317-8.9098 1.8198-10.086 3.4659-1.6361 2.2898-1.3338 3.0178 1.4676 3.5317 1.9408 0.35587 7.642 0.45001 12.669 0.20903 5.0273-0.24053 9.0905-1.1296 9.0293-1.9748zm64.922-83.372c-0.88804-4.7582-3.2704-10.234-5.2938-12.168-2.0235-1.9345-5.676-3.3727-8.1169-3.1959-2.4407 0.17679-7.2988 3.2255-10.796 6.7751-3.497 3.5495-6.3102 7.1181-6.2514 7.9301 0.0588 0.81199 3.387 1.7724 7.3959 2.1341 4.009 0.36172 10.433 2.0732 14.275 3.8036 3.8425 1.7305 7.7548 3.197 8.6941 3.2591 0.93901 0.0614 0.98073-3.7799 0.0925-8.5379zm-40.152-0.83271c1.8905-3.6201 7.0539-10.435 11.475-15.144 4.4206-4.7092 11.181-10.275 15.022-12.368 3.8418-2.0932 7.253-3.9875 7.5808-4.2096 0.32767-0.22206-0.91195-2.8654-2.7549-5.8741-3.1765-5.1864-4.1317-5.4694-18.399-5.449-14.533 0.0208-15.183 0.20768-18.99 5.461-2.1676 2.9918-3.9027 6.0298-3.8557 6.7513 0.0522 0.72131 1.7119 1.7014 3.6998 2.1775 3.4729 0.83154 3.5136 1.2681 1.0417 11.158-1.415 5.6609-2.7573 13.937-2.9827 18.391-0.32162 6.3493 0.14441 7.8382 2.1577 6.8935 1.4124-0.66268 4.1146-4.1666 6.0051-7.7866zm-17.014-11.704c-0.91447-3.3078-2.0646-6.362-2.5559-6.787-0.49108-0.42499-6.5933-0.81697-13.56-0.87116l-12.667-0.0988 1.1512 15.893 29.294-2.122zm-116.87 126.63c-4.4587-0.61222-11.816-2.6792-16.351-4.5932-4.5343-1.9141-11.754-6.2177-16.044-9.5637-4.2898-3.3458-11.417-12.133-15.839-19.528-7.0412-11.775-8.1854-15.232-9.2146-27.842-0.64698-7.9186-0.52092-18.647 0.27861-23.841 0.79938-5.1938 3.0014-13.11 4.8932-17.592 1.892-4.4818 7.4548-13.061 12.362-19.065 4.9072-6.0041 13.183-13.39 18.392-16.413 5.2078-3.0233 15.032-6.6712 21.832-8.1065 9.0593-1.9123 15.134-2.101 22.737-0.70632 5.7054 1.0468 12.795 2.9572 15.756 4.2451 2.9603 1.2881 7.3926 3.9825 9.8498 5.9878 2.4573 2.0052 6.9032 6.401 9.8799 9.7684 3.553 4.0191 5.5886 8.5561 5.9255 13.206 0.28223 3.8962-0.53967 10.224-1.8265 14.063-1.2867 3.8384-3.9604 9.3777-5.9414 12.31-1.981 2.9321-6.5561 7.6672-10.167 10.523-3.6106 2.8555-11.693 7.6426-17.961 10.638-6.2679 2.9954-15.692 6.2556-20.942 7.2448-5.2503 0.98915-12.562 2.1537-16.247 2.5879-6.4052 0.7544-6.6626 1.0851-5.8254 7.4843 0.48178 3.6823 2.226 10.479 3.8763 15.104 1.9085 5.3497 6.1067 11.095 11.54 15.795 5.5308 4.7836 10.877 7.5856 15.173 7.9518 4.7151 0.40208 7.2633-0.37165 8.8123-2.6728 1.1986-1.7811 1.9143-6.8966 1.5904-11.368-0.43236-5.9689-2.042-9.6228-6.0565-13.748-5.2257-5.3695-5.3317-5.7923-2.3956-9.5499 1.6896-2.1625 7.2836-5.6778 12.431-7.8118 5.6885-2.3581 12.393-3.6946 17.095-3.4074 4.2547 0.26012 9.9531 2.2727 12.663 4.4728 3.0238 2.4545 5.0847 6.1705 5.3344 9.6178 0.22381 3.0898-0.77315 8.6535-2.2153 12.364-1.4423 3.7103-5.3954 9.5604-8.7846 13.001-3.3895 3.4402-10.451 8.8333-15.693 11.985-5.9181 3.5581-13.563 6.269-20.169 7.1512-5.8512 0.78165-14.286 0.92099-18.745 0.30811zm-0.86785-71.205c4.1539-2.2618 10.504-7.1083 14.111-10.77 3.6072-3.6616 8.2049-9.8097 10.217-13.663 2.0123-3.8529 4.1554-10.247 4.7626-14.21 0.67224-4.3854 0.0935-10.127-1.4786-14.673-1.4207-4.1079-4.218-9.2638-6.2164-11.458-3.5841-3.9346-3.7325-3.9352-10.969-0.0449-4.8638 2.6145-9.4944 7.6207-13.74 14.854-3.5224 6.0005-7.0594 13.99-7.86 17.755-0.80056 3.7644-1.9283 12.229-2.5059 18.81-0.57765 6.5809-0.42202 13.304 0.34572 14.94 0.76775 1.6363 2.3827 2.8844 3.5886 2.7739 1.206-0.11051 5.5911-2.052 9.745-4.314zm-104.21 69.252-16.406 0.0999-1.266-8.5979c-0.69635-4.7288-0.73903-15.153-0.0952-23.165 0.64417-8.0121 2.4804-19.163 4.0805-24.779 1.6-5.6164 4.0358-19.138 5.4127-30.049 1.377-10.91 2.298-22.674 2.047-26.14-0.25111-3.4667-2.1776-8.1395-4.2813-10.384-2.8353-3.0256-4.6123-3.5623-6.8701-2.0749-1.675 1.1034-5.0099 5.1167-7.411 8.9182-2.401 3.8017-4.2904 7.9512-4.1984 9.221 0.092 1.2699-2.3766 8.8834-5.4859 16.919-4.3107 11.14-5.8211 18.903-6.3593 32.685-0.38833 9.9412 0.28413 23.797 1.494 30.788 1.2099 6.992 3.1239 14.743 4.2531 17.224 1.1858 2.605 1.3891 5.278 0.4814 6.3276-0.8765 1.0134-12.863 2.0382-27.098 2.3166-25.172 0.49267-25.559 0.43224-27.813-4.3479-1.553-3.2927-1.9887-10.377-1.3584-22.089 0.51031-9.4831 2.3508-22.217 4.0904-28.296 1.7393-6.0799 5.1242-19.452 7.522-29.715 3.3034-14.139 3.9236-20.651 2.5596-26.876-0.99003-4.5185-3.5874-9.7614-5.7719-11.651-2.1843-1.8892-5.7193-3.3085-7.8554-3.1538-2.6528 0.19216-6.052 4.2365-10.725 12.759-3.7623 6.8629-7.136 14.711-7.4968 17.439-0.36078 2.7288-1.578 9.373-2.7047 14.765-1.1268 5.3919-2.686 18.539-3.4651 29.216-1.0341 14.174-0.6787 23.007 1.3172 32.732 1.5035 7.3255 2.8482 14.509 2.9883 15.963 0.19626 2.0437-1.8364 2.5292-8.9543 2.1386-5.0649-0.27808-18.144 0.0203-29.066 0.66294-15.378 0.90499-20.143 0.55861-21.125-1.5357-0.69785-1.4873 0.5587-8.6447 2.7924-15.905 2.2337-7.2604 4.9685-20.653 6.0775-29.761 1.5847-13.016 1.3319-22.622-1.1816-44.89-2.0948-18.559-4.5966-31.857-7.2536-38.555-2.2306-5.6228-3.5142-10.849-2.8526-11.614 0.66176-0.7651 12.742-1.0871 26.845-0.71525 14.103 0.37186 27.216 1.3349 29.138 2.1405 3.2566 1.3638 3.3148 1.8884 0.84829 7.6429-1.4566 3.3983-3.7007 14.474-4.9872 24.611-1.2863 10.138-2.11 21.157-1.8307 24.485 0.46502 5.5394 0.74384 5.217 3.2899-3.8043 1.53-5.4212 4.7953-14.643 7.2564-20.492 2.461-5.8495 7.7684-14.773 11.794-19.83 4.026-5.0566 9.6099-10.596 12.409-12.311 2.7988-1.7143 9.6854-3.45 15.303-3.8569 7.6623-0.55502 12.022 0.30613 17.449 3.4458 3.9786 2.3021 8.871 7.0755 10.872 10.608 2.0007 3.5321 3.769 8.2364 3.9296 10.454 0.16062 2.2174 0.68971 4.0029 1.1755 3.9677 0.48597-0.0352 4.5988-4.6609 9.1397-10.279 6.713-8.3063 10.681-11.195 21.234-15.457l12.977-5.2417 7.2618 3.2555c3.9941 1.7904 9.9489 6.4496 13.233 10.354 4.3491 5.1702 6.1336 9.3419 6.5693 15.357 0.32902 4.5423-0.54121 17.726-1.9341 29.298-1.9402 16.121-1.9875 26.01-0.20195 42.302 2.0146 18.384 3.1541 22.677 8.4138 31.71 3.3459 5.7457 5.6058 11.362 5.0217 12.48-0.58389 1.1182-6.8574 2.2912-13.941 2.6064-7.0833 0.31535-20.262 0.61822-29.285 0.67303zm-243.53 3.6465c-4.0264-0.54465-11.575-2.7897-16.775-4.989-5.1997-2.1993-12.335-6.6919-15.857-9.9833-3.5217-3.2914-8.3245-8.4521-10.673-11.468-2.3486-3.016-5.5138-8.4286-7.0337-12.028-1.5199-3.5994-4.1904-14.585-5.9343-24.413-2.4976-14.073-2.7379-19.838-1.1323-27.145 1.1214-5.1017 3.6496-13.092 5.6184-17.755 1.9686-4.6637 6.6738-12.366 10.456-17.117 3.7823-4.7504 11.331-11.312 16.776-14.58 5.4443-3.2689 14.699-7.0856 20.565-8.4819 6.5727-1.5642 15.686-2.195 23.743-1.6426 7.192 0.49263 15.981 2.4123 19.531 4.2661 3.5499 1.8538 10.297 6.9774 14.993 11.386 6.7579 6.3434 8.645 9.48 9.0476 15.039 0.27981 3.8628-0.26245 10.492-1.2051 14.732-0.94264 4.2397-4.6943 11.26-8.3369 15.602-3.6426 4.3414-10.53 10.58-15.304 13.863-4.7747 3.2835-15.161 8.0255-23.079 10.538-7.9192 2.5124-18.504 4.8722-23.522 5.244-5.0185 0.36352-9.0721 1.3836-9.0095 2.2482 0.0626 0.8648 1.8459 6.1666 3.9629 11.782 2.1171 5.6154 5.756 13.366 8.0863 17.224 2.3306 3.8579 6.0528 8.5848 8.272 10.504 2.6365 2.2803 6.6493 3.3003 11.579 2.9432 5.8623-0.42464 8.3502-1.7391 11.159-5.8962 1.988-2.9424 3.4882-7.096 3.3336-9.2302-0.15459-2.1342-4.0573-6.9851-8.6729-10.78-7.0728-5.8153-8.0419-7.3895-6.165-10.016 1.2248-1.7141 5.3712-5.0187 9.2143-7.3436 3.8597-2.3349 10.888-4.5096 15.703-4.8583 7.3155-0.52991 10.031 0.39494 16.908 5.7586 5.3712 4.1894 8.3115 8.0321 8.538 11.159 0.18997 2.6227-0.83469 7.8042-2.2768 11.514-1.4423 3.7103-5.5246 9.6915-9.0716 13.292-3.5472 3.6003-10.883 8.9036-16.303 11.785-5.4192 2.8816-14.344 6.2742-19.834 7.5393-5.4888 1.265-13.274 1.8544-17.301 1.3092zm1.202-74.227c5.1764-3.1122 11.392-8.1245 13.813-11.138 2.4208-3.0138 6.1769-9.7069 8.347-14.874 2.9089-6.9258 3.7178-12.537 3.0789-21.358-0.75095-10.367-1.608-12.634-6.4187-16.979-3.0536-2.7574-6.6076-4.9373-7.8977-4.8438-1.2901 0.0935-5.9019 4.165-10.248 9.0476-4.4212 4.9669-10.165 14.727-13.039 22.157-2.825 7.303-5.7199 17.027-6.4331 21.609-0.71319 4.5816-1.083 11.573-0.8218 15.537 0.42435 6.4438 0.99013 7.1696 5.341 6.8544 2.6762-0.19385 9.1014-2.8989 14.278-6.0112zm-76.46 68.173c-2.719-0.88094-16.433-1.2661-30.476-0.85586l-25.532 0.74603-0.47532-6.5619c-0.26142-3.609 0.23226-8.1501 1.097-10.091 0.86468-1.9411 2.6411-19.61 3.9477-39.262 1.3062-19.654 2.3524-48.635 2.3244-64.406-0.028-15.771-0.42334-28.994-0.87861-29.388-0.45528-0.39377-7.0402 13.857-14.633 31.667-7.5929 17.811-15.839 36.875-18.323 42.365-2.4853 5.4903-6.0581 13.57-7.94 17.954-1.8816 4.3845-8.0911 18.665-13.799 31.734-5.7074 13.069-11.212 23.795-12.233 23.836-1.0205 0.0411-2.5414-1.0798-3.3797-2.4899-0.83822-1.41-3.4317-8.0737-5.7629-14.808-2.3314-6.7345-7.187-19.417-10.79-28.184-3.6034-8.7665-11.178-26.031-16.833-38.367-5.6546-12.335-12.147-26.239-14.428-30.9-2.2808-4.6604-8.9547-15.038-14.831-23.063l-10.684-14.591-1.3942 12.653c-0.76673 6.9589-0.91944 27.391-0.33918 45.404 0.95373 29.607 1.5564 34.267 6.279 48.554 2.8732 8.6916 8.6815 21.524 12.907 28.515 4.2256 6.992 7.7844 14.112 7.9083 15.822 0.20048 2.7677-2.2665 3.1364-22.446 3.3551-12.469 0.13508-23.729-0.49504-25.021-1.4002-1.7276-1.2098-1.3074-3.8751 1.587-10.066 2.5018-5.3509 4.9602-17.992 6.7447-34.679 1.5445-14.443 2.6719-37.982 2.5052-52.307-0.16641-14.326-1.1751-38.584-2.2413-53.906-1.3251-19.04-2.9843-30.385-5.2423-35.837-1.8171-4.3875-2.8449-8.5078-2.2838-9.1566 0.56109-0.64873 15.172-1.4854 32.469-1.8595l31.45-0.68034 5.2895 15.498c2.9092 8.5238 8.6837 23.312 12.832 32.863 4.1486 9.551 13.354 27.372 20.458 39.603 7.103 12.23 14.333 23.808 16.066 25.73 1.7332 1.9211 3.4306 3.1016 3.7717 2.6233 0.34115-0.47811 4.3976-8.9637 9.0141-18.857 4.6165-9.8929 15.118-34.735 23.337-55.207 8.2182-20.471 16.418-38.153 18.221-39.293 1.9244-1.2165 12.426-2.2051 25.415-2.3924l22.135-0.31964 0.12276 5.7842c0.0682 3.1812-1.1672 12.829-2.7435 21.44-1.5763 8.6107-3.9742 26.598-5.3286 39.972-2.0147 19.894-1.925 31.65 0.49402 64.653 2.3337 31.845 3.8322 42.865 7.1164 52.344 2.2879 6.6036 3.7895 13.229 3.337 14.724-0.45272 1.4944-1.5025 2.7111-2.3328 2.7038-0.8305-7e-3 -3.7344-0.73382-6.4534-1.6148zm517.3-142.84c-2.8616-0.33919-4.4824-1.8995-4.6705-4.4964-0.26665-3.6813 0.51876-3.9523 10.56-3.6458 5.9663 0.18229 11.328 0.74703 11.915 1.2549 0.58734 0.50797 0.6524 2.2945 0.14471 3.9701-0.59888 1.9773-3.1417 3.115-7.245 3.2416-3.4773 0.10704-8.2944-0.0385-10.705-0.32431z" fill="#27b0a9" stroke-width="1.926"/>
</svg>
