<?xml version="1.0" encoding="UTF-8"?>
<!-- Created with Inkscape (http://www.inkscape.org/) -->
<svg width="419" height="595" version="1.1" viewBox="0 0 419 595" xmlns="http://www.w3.org/2000/svg">
 <path d="m0 297.5v-297.5h419v595h-419zm207.78 137.94c2.8046-1.9644 2.8126-4.6211 0.0287-9.5744l-2.1938-3.9034 2.3087-11.983c1.3382-6.9456 2.7859-11.977 3.4438-11.969 0.6243 8e-3 2.1028 0.2733 3.2857 0.59063 2.0333 0.54552 2.1896 1.3764 2.8654 15.236 0.39315 8.0626 1.1953 15.255 1.7825 15.982 3.698 4.5824 18.297 7.4172 22.071 4.2856 2.2803-1.8925 2.033-7.3278-0.47866-10.521l-2.1096-2.6819 5.547-25.612 4.8016-1.2306c2.9679-0.76065 6.4378-2.7 9.086-5.0783l4.2844-3.8477-2.719-5.2143c-1.4955-2.8679-2.4814-5.5988-2.191-6.0688 0.29041-0.46994 2.0514-0.85444 3.9133-0.85444 8.9215 0 12.019-9.8036 5.7397-18.164-1.7914-2.3849-4.6226-7.18-6.2916-10.656l-3.0345-6.3197 5.8721-5.6803c8.1744-7.9074 9.1822-12.003 5.6812-23.085-2.3823-7.5412-2.4412-8.2289-0.99989-11.678 0.84229-2.0159 3.478-6.4218 5.857-9.791 8.3261-11.791 9.4712-19.195 5.2313-33.826-1.4621-5.0454-2.7054-12.611-3.0996-18.862-0.8685-13.77-2.742-21.78-6.9801-29.846-5.8094-11.055-16.303-20.284-28.585-25.14-6.8675-2.7151-17.936-3.598-23.894-1.9058-2.475 0.70284-7.65 1.1701-11.5 1.0384-14.342-0.49076-26.599 4.9499-37.537 16.662-16.195 17.341-21.106 37.054-15.888 63.772 1.1796 6.0399 2.2078 14.179 2.2849 18.088 0.13448 6.8164-0.10444 7.5912-5.859 19-5.3874 10.681-5.9947 12.506-5.9548 17.894 0.0307 4.1418 0.71365 7.2773 2.2054 10.124 2.0699 3.9504 7.4388 9.3758 9.2783 9.3758 0.48189 0 0.64112-2.3625 0.35384-5.25l-0.52231-5.25 2.126 4.5c1.1693 2.475 3.4792 5.901 5.1332 7.6134l3.0072 3.1134-2.4366 8.4048c-1.3402 4.6227-3.6189 10.147-5.0638 12.276-4.6079 6.7901-2.5544 14.627 3.9185 14.955 1.6249 0.0824 4.6075 1.4116 6.6281 2.9538l3.6737 2.804-1.5245 3.6487c-1.4419 3.4509-1.4126 3.7393 0.54017 5.3206 1.1356 0.91953 4.0765 1.9736 6.5353 2.3423l4.4706 0.67041 0.60855 5.6986c0.33471 3.1342 1.0881 9.5236 1.6742 14.199s1.1506 10.643 1.2544 13.262c0.11686 2.9495 0.83897 5.412 1.8974 6.4704 4.5947 4.5947 17.122 6.7597 21.474 3.7112zm-14.277-2.6299c-4.2181-1.5107-6.5-3.7481-6.5-6.3733 0-2.0381 0.36718-2.2006 3.9014-1.7266 3.2824 0.44027 4.0864 0.17766 5.0672-1.6551 0.82839-1.5479 1.92-2.0887 3.7715-1.8684 3.7086 0.44113 3.8974 2.4324 0.29892 3.1521-4.5855 0.9171-3.6449 2.5243 1.2109 2.0691 4.1579-0.38974 4.1796-0.37622 1 0.62375-1.7875 0.56217-3.25 1.4481-3.25 1.9688 0 0.57823 1.0401 0.55122 2.6724-0.0694 3.555-1.3516 5.5412-0.45988 5.1477 2.3111-0.27895 1.9644-0.96342 2.2794-5.3201 2.4484-2.75 0.10666-6.35-0.28956-8-0.88049zm35.775-0.78438c-4.4039-1.0463-7.8996-3.4852-8.5477-5.9637-0.67645-2.5868 0.63719-3.4417 3.9938-2.5992 2.0747 0.52072 3.0456 0.10509 4.7513-2.0341 1.6335-2.0486 2.6655-2.523 4.3356-1.9929 2.9029 0.92133 2.7759 2.3883-0.30815 3.5609-3.4889 1.3265-3.1174 2.0449 0.75 1.4504 2.9882-0.45934 3.0687-0.40473 1 0.67782-3.3423 1.749-2.7258 2.8232 1.25 2.1781 3.2255-0.52343 3.5-0.37004 3.5 1.9559 0 3.6668-3.326 4.5248-10.725 2.7669zm-39.775-10.207c-1.1-0.61439-2.0842-1.1724-2.187-1.24-0.43631-0.28666-3.374-24.854-3.015-25.214 0.2172-0.21719 2.1196 0.32572 4.2275 1.2065 2.9809 1.2455 5.5437 1.4499 11.533 0.91974l7.7002-0.68162-4.4424 21.664-3.5336-0.30443c-2.8102-0.24212-3.9467 0.22083-5.5519 2.2615-2.3042 2.9293-2.0857 2.8652-4.7305 1.388zm32.758-1.6417c-1.1795-0.74905-1.564-2.8882-2.6627-14.812l-0.47284-5.132 4.0307-0.64453c2.2169-0.35449 5.6769-1.4676 7.6889-2.4737 2.012-1.006 5.1207-2.1079 6.9082-2.4485 4.0006-0.76239 4.0176-0.56582 1.0904 12.581l-2.171 9.75h-4.2995c-3.2761 0-4.5543 0.47608-5.3699 2-1.1274 2.1065-2.6768 2.4922-4.7423 1.1804zm-9.7577-24.824c-2.8736-1.0795-5.5488-1.2997-9.5-0.782-8.5054 1.1144-11.59 0.66466-17.662-2.5755-3.091-1.6494-6.4273-2.999-7.4141-2.999s-2.9312-0.43231-4.3209-0.96068c-2.2771-0.86575-2.427-1.247-1.5167-3.8581l1.01-2.8974 9.4216 0.49281c7.7804 0.40697 9.8764 0.1948 12.033-1.218 2.4094-1.5787 2.9153-1.5891 6.5503-0.13468 5.1887 2.0761 14.243 2.0519 17.446-0.0467 1.9437-1.2736 3.7117-1.4687 8.2148-0.90669 10.345 1.2911 12.878 1.0388 18.592-1.8524 3.0329-1.5345 6.3255-2.6339 7.3168-2.443 0.99129 0.1909 2.8682 2.2793 4.171 4.6409 2.3137 4.1943 2.3256 4.3414 0.51337 6.3453-3.4217 3.7836-8.8896 5.838-15.565 5.8484-4.5886 7e-3 -7.7367 0.68333-11.639 2.5-6.0731 2.8272-11.665 3.0954-17.651 0.84668zm-37.127-17.168c-2.8197-0.9289-6.1885-2.4147-7.4863-3.3018-1.9722-1.348-2.1505-1.8647-1.0865-3.1468 0.75766-0.91292 2.1284-1.3102 3.3858-0.98141 1.3755 0.3597 2.5842-0.0922 3.4637-1.295 0.93245-1.2752 2.6918-1.8727 5.6797-1.9288 5.8522-0.11 8.7479-2.259 14.015-10.401 5.1762-8.0016 6.2975-8.9207 8.3628-6.8554 1.3539 1.3539 1.3352 2.4057-0.17555 9.8683-2.0018 9.8884-5.2361 16.878-8.6012 18.588-3.3763 1.7158-11.453 1.4645-17.557-0.54635zm27.127 0.59524c-1.65-0.58188-3.1502-1.1841-3.3339-1.3383-0.18364-0.15418 0.65325-2.9876 1.8598-6.2966 2.0787-5.7011 2.3223-5.9674 4.649-5.0828 3.7037 1.4081 7.8263 1.1268 11.111-0.7582 2.6233-1.5056 3.5588-1.5451 8.5021-0.35921 6.0603 1.4538 11.121 0.89605 13.791-1.5201 1.1713-1.06 3.229-1.4499 6.534-1.2381 4.4482 0.28502 5.0519 0.64872 7.7433 4.6652 3.1321 4.6742 2.6505 6.096-2.0758 6.1286-1.221 8e-3 -4.9394 1.3972-8.263 3.0861s-6.786 2.9264-7.6942 2.75c-0.93922-0.18248-2.438-2.4768-3.4759-5.3208l-1.8247-5 1.1537 8.5h-5.5061c-3.0284 0-6.2179 0.27314-7.0879 0.60699-1.2669 0.48614-1.5975-0.16092-1.6607-3.25-0.087-4.2507-0.43692-3.7723-1.3845 1.893-0.6235 3.7278-0.65502 3.7495-5.3319 3.671-2.5876-0.0434-6.0547-0.55503-7.7047-1.1369zm-44.507-8.2926c-1.669-2.011-0.66711-7.8191 1.915-11.102 1.1158-1.4185 3.2125-6.474 4.6594-11.234 4.5237-14.883 11.601-31.895 16.179-38.889 1.3136-2.0068 1.6676-2.0897 3.4866-0.81563 1.1135 0.77992 3.5287 3.5337 5.3671 6.1194 3.313 4.6598 3.3266 4.7246 1.5339 7.3156-0.99477 1.4378-5.7069 10.124-10.471 19.303-7.6146 14.669-8.6627 17.314-8.6627 21.858 0 4.9862-0.087 5.1481-2.4484 4.5554-1.8088-0.45398-3.1032 0.0402-4.9545 1.8916-2.8666 2.8666-4.8094 3.1601-6.604 0.99765zm97.939-4.7415c-2.1854-3.0153-2.9324-4.9905-2.5715-6.7989 0.41262-2.0674-0.6982-3.9084-5.8797-9.7445-7.5797-8.5373-8.5371-11.72-5.9755-19.864 1.8527-5.8903 1.5761-8.1164-2.1032-16.922-1.1103-2.6573-1.8118-3.3762-2.3868-2.446-0.62367 1.0091-1.4492 0.6826-3.5267-1.3949-2.2161-2.2161-2.597-3.2892-2.0819-5.8649 0.34677-1.7338 1.0193-3.5413 1.4945-4.0165 2.4616-2.4616 11.218 13.073 22.154 39.302 2.8665 6.875 6.0044 13.4 6.9731 14.5 5.7544 6.5341 7.4145 12.884 4.1426 15.845-3.3067 2.9925-6.838 2.0975-10.239-2.595zm10.068-3.857c0-1.5912-0.45-2.893-1-2.893s-1 0.96974-1 2.155c0 2.0244-0.11084 2.0547-1.8287 0.5-2.2494-2.0357-3.1713-2.0972-3.1713-0.21169 0 1.8964 3.8486 4.552 5.6148 3.8743 0.76186-0.29235 1.3852-1.8334 1.3852-3.4246zm-91.219 0.74395c-0.25939-1.3569 0.74958-4.8696 2.3697-8.25 1.5518-3.2378 2.9628-6.2925 3.1356-6.7882 0.27303-0.78327 15.681-0.96418 16.452-0.19317 0.51797 0.51798-8.7933 14.048-10.904 15.844-1.2604 1.0728-3.7094 1.75-6.3286 1.75-3.6973 0-4.3335-0.31818-4.7244-2.363zm31.38 1.6457c-2.238-0.42582-2.311-0.71082-1.6944-6.6138 1.1032-10.561 1.2314-10.666 12.952-10.684 5.5446-9e-3 12.781-0.65648 16.081-1.4398 4.629-1.0987 6.2494-1.1523 7.0913-0.23438 11.496 12.533 10.995 11.788 8.9451 13.287-1.0553 0.77164-3.993 1.403-6.5283 1.403-4.4906 0-4.6676-0.11935-6.8546-4.6209-3.0103-6.1961-3.6988-5.0769-0.92119 1.4974 2.719 6.4356 1.7533 7.5395-5.7323 6.5532-2.75-0.36234-6.9519-0.70667-9.3376-0.76517l-4.3376-0.10637 0.57094-5.5291c0.38407-3.7193 0.27209-4.8744-0.34209-3.5291-0.50217 1.1-0.94467 3.4257-0.98332 5.1682-0.13862 6.2484-1.3998 7.0432-8.909 5.6144zm-4.0184-17.194c-0.91993-0.56855 0.3897-3.2485 4.8354-9.8949 7.1305-10.66 15.029-26.671 18.225-36.943 2.3765-7.6381 2.4597-7.7489 4.7368-6.3081 3.1518 1.9942-8.3947 28.448-19.783 45.326-5.6932 8.4369-6.2066 8.938-8.0141 7.821zm9.6071-1.7128c-0.9625-0.28716-1.75-0.71951-1.75-0.96077s2.091-3.5833 4.6467-7.4267c5.1362-7.7241 6.343-8.2094 13.82-5.5574 2.2184 0.78685 5.2709 1.6954 6.7834 2.019 2.499 0.5347 2.75 0.99386 2.75 5.0308 0 4.2913-0.1282 4.4769-3.7694 5.4574-4.4427 1.1963-19.963 2.1888-22.481 1.4376zm-28.75-1.904c0-1.0239 6.0358-12.471 6.5757-12.471 1.122 0-0.87897 9.567-2.353 11.25-1.4201 1.6215-4.2227 2.4322-4.2227 1.2215zm10.374-1.4569c-1.579-0.63761-2.0059-1.488-1.6588-3.3039 0.41187-2.1546 1.2536-2.5756 7.0799-3.541 3.6368-0.60265 6.7595-0.94867 6.9392-0.76895 0.17972 0.17973-0.89186 2.1881-2.3813 4.463-2.8186 4.3051-5.233 5.0674-9.979 3.1508zm-31.907-10.47c-2.7446-3.5983-5.4666-11.169-5.4666-15.204 0-1.2876-0.39541-2.3411-0.87868-2.3411-1.4855 0-3.296 5.6013-3.3689 10.422-0.0381 2.5177-0.21728 4.5776-0.39827 4.5776s-1.5326-1.9065-3.0036-4.2368c-2.0479-3.244-2.6927-5.5699-2.7518-9.9264-0.0673-4.9504 0.59931-7.031 5.1301-16.013 2.8641-5.678 5.7128-12.704 6.3305-15.612 1.1387-5.3626 1.1071-5.6552-3.2098-29.711-3.3728-18.795 1.306-37.228 13.275-52.299 10.479-13.195 22.68-19.243 40.375-20.016 25.405-1.109 27.279-0.94473 35.716 3.1301 13.184 6.3682 22.199 16.526 27.383 30.855 0.86146 2.3811 1.9282 9.9543 2.3705 16.829 0.54457 8.464 1.6192 15.244 3.3284 21 4.9254 16.586 4.6067 18.996-4.298 32.5-7.3182 11.098-8.4358 14.859-6.3481 21.359 4.0338 12.559 3.5508 15.991-3.2006 22.742-2.4193 2.4193-4.7702 4.3987-5.2242 4.3987-0.45398 0-1.3877-1.555-2.075-3.4556-1.0478-2.8976-0.99947-3.9392 0.29911-6.4503 1.9611-3.7923 1.9793-11.343 0.0452-18.769-0.82688-3.1746-1.2489-7.3591-0.93775-9.2988 1.0413-6.4922 5.738-18.494 8.481-21.672 1.493-1.7297 3.5062-5.2179 4.4738-7.7517 1.6557-4.3353 1.6629-5.093 0.12208-12.855-1.6757-8.4421-2.1378-15.748-0.99594-15.748 0.35186 0 1.2376 0.7875 1.9682 1.75 1.2624 1.6629 1.33 1.6613 1.3602-0.0321 0.11657-6.5323-8.9637-16.918-22.403-25.624-10.8-6.9965-17.178-13.035-19.667-18.62-2.0013-4.4917-6.4839-9.2204-7.6424-8.0619-0.41381 0.41381-0.0498 1.2781 0.80893 1.9206 2.8109 2.1033 5.2484 7.2857 4.6145 9.8112-1.7546 6.991-14.126 20.328-29.225 31.504-11.613 8.5963-19.674 12.488-24.413 11.785-5.1063-0.75685-9.3568 2.2076-11.605 8.0934-1.5518 4.0634-1.6271 5.3151-0.55958 9.3064 2.8521 10.664 9.7439 16.007 19.054 14.772l4.6459-0.6163 2.6068 5.3152c1.4338 2.9234 4.8869 8.3275 7.6736 12.009 8.1884 10.818 10.12 20.94 5.7597 30.188l-2.357 5-0.75177-4c-1.0394-5.5305-3.3289-8.9532-11.037-16.5-8.6034-8.4231-12.202-13.68-13.645-19.933-1.4225-6.1626-3.3678-6.8563-2.4088-0.85904 0.92972 5.8141 3.6943 11.711 7.5482 16.1l3.2541 3.7062-3.967 6.743c-2.1818 3.7086-5.4698 10.455-7.3065 14.993s-3.6781 8.25-4.0919 8.25-1.9382-1.5547-3.3876-3.4549zm30.533-2.4861c0-2.7175 0.45-5.2191 1-5.559 0.60504-0.37394 1 1.0141 1 3.5143 0 3.3953 0.31174 4.0723 1.7478 3.7958 2.3145-0.44573 7.9338-9.9654 8.7563-14.834 0.9843-5.826 2.5018-6.5091 7.3739-3.3193 2.2671 1.4843 4.1161 3.1814 4.1088 3.7712-7e-3 0.5898-1.8012 4.2963-3.9866 8.2366-3.865 6.9688-4.1115 7.1939-9.036 8.25-2.7844 0.59716-6.3905 1.0857-8.0134 1.0857-2.8696 0-2.9508-0.13598-2.9508-4.941zm38.5 1.5148c-3.8996-1.221-4.0203-1.3965-4.808-6.9928-0.74446-5.289-0.60288-6.0092 1.8009-9.1607 3.1697-4.1557 4.4138-4.2441 8.3239-0.59151 3.5055 3.2746 4.8918 8.7347 3.5727 14.072-1.0192 4.124-2.6703 4.6205-8.8896 2.6732zm17.197-16.698c-3.7828-7.9492-6.1608-11.451-11.194-16.485-3.5152-3.5152-7.0913-6.4476-7.9469-6.5163-3.1862-0.25603-3.5563-0.39782-3.5896-1.375-0.0187-0.55 2.5312-1.3307 5.6665-1.7348 7.8384-1.0104 16.583-3.3397 21.553-5.7406 2.289-1.106 4.296-1.8767 4.4599-1.7128 0.1639 0.1639-0.80471 3.4233-2.1525 7.2431-2.8518 8.0824-3.0058 10.945-0.99266 18.445 2.0144 7.5051 1.7997 18.037-0.36663 17.985-0.34835-8e-3 -2.7948-4.5574-5.4365-10.109zm-34.882-3.3555c-3.0477-2.071-4.0578-3.7398-6.1286-10.126-2.2879-7.0551-2.3672-7.9147-1.027-11.122 1.1932-2.8556 1.8442-3.3694 3.6465-2.8775 1.2067 0.32936 4.5798 0.88994 7.4958 1.2458 3.6676 0.44753 5.1529 1.035 4.8187 1.906-0.26572 0.69247 0.14665 2.0903 0.91638 3.1062s1.4138 2.4242 1.4313 3.1295c0.0475 1.9148-6.004 17.218-6.8088 17.218-0.38235 0-2.3373-1.1158-4.3443-2.4796zm-7.9774-2.5204c-0.28275-0.825-1.199-3.525-2.0362-6s-1.8817-5.3489-2.3212-6.3864c-0.55935-1.3204-0.42521-1.7618 0.44704-1.4711 1.5932 0.53106 5.2353 10.721 4.7742 13.358-0.26158 1.4956-0.47945 1.6217-0.86391 0.5zm-9.4832-19.891c-4.4144-5.2897-6.7322-9.1085-5.5286-9.1085 0.5808 0 1.298 0.39156 1.5938 0.87013 0.29577 0.47857 3.2473 1.8834 6.559 3.1219 3.3117 1.2385 6.0212 2.3926 6.0212 2.5648 0 0.17213-0.41548 1.4058-0.92328 2.7414-1.5074 3.9648-4.3126 3.8959-7.7221-0.18968zm14.145-4.7683c-8.5959-1.8379-18.003-6.0874-22.8-10.299-2.9747-2.6118-3.9487-2.9784-5.5856-2.1024-7.9306 4.2443-18.499-4.3851-18.499-15.105 0-3.973 0.51849-5.3658 2.9423-7.9038 3.026-3.1685 4.951-3.402 11.349-1.3767 1.7024 0.53893 2.1992 0.42656 1.6982-0.38413-0.44799-0.72486 1.2399-2.0758 4.5936-3.6767 2.916-1.392 9.0433-5.2222 13.616-8.5116 7.1722-5.1592 8.9237-5.9808 12.75-5.9808 4.5424 0 6.1137-1.7484 2.4356-2.7102-1.1-0.28766-2-0.66618-2-0.84116 0-0.17499 2.4033-2.7215 5.3407-5.6589s7.0532-7.9198 9.1461-11.072l3.8054-5.7313 5.1039 4.7974c2.8071 2.6386 9.0549 7.4435 13.884 10.678 4.829 3.2341 10.535 7.7843 12.68 10.111l3.9003 4.2313-0.56977 7.5337c-0.41989 5.5519-0.0938 9.3686 1.2394 14.509 1.7489 6.7428 1.7482 7.137-0.0201 11.814-1.0062 2.6613-3.3262 6.265-5.1556 8.0083-9.8486 9.3845-31.526 13.59-49.854 9.6707zm28.119-9.9635c3.9586-1.8785 7.6773-6.602 7.1898-9.1325-0.3042-1.5791-1.6598-1.7127-14.322-1.4108-16.815 0.40083-18.245 1.0944-13.469 6.534 4.815 5.484 13.806 7.2338 20.601 4.0093zm-10.933-1.4512c-2.0981-0.34743-4.9948-1.5127-6.437-2.5894-5.1893-3.8744-4.213-4.336 9.1684-4.336 6.9208 0 12.583 0.36581 12.583 0.81291s-1.2375 1.9698-2.75 3.3838c-3.055 2.856-6.8367 3.6773-12.565 2.7288zm-53.685-9.3664c0-3.1652 1.9714-4.3842 2.6839-1.6596 0.55454 2.1206 3.3161 2.9958 3.3161 1.051 0-2.1406-2.9763-6.7048-5.4137-8.3018-2.7893-1.8276-6.5863-2.2015-6.5863-0.6485 0 0.55 0.58899 1 1.3089 1s2.1294 0.59999 3.1323 1.3333c1.7407 1.2728 1.7444 1.4539 0.0812 3.9923-1.7402 2.6559-1.5028 5.6744 0.44627 5.6744 0.56726 0 1.0314-1.0984 1.0314-2.441zm37-6.7891c2.5759-2.7649 3.4222-5.9357 2.541-9.5199-2.023-8.228-7.6992-9.7768-13.583-3.7064-2.3011 2.3742-3.0521 3.78-2.2754 4.26 0.63754 0.39402 1.4789 2.0619 1.8697 3.7064 1.6231 6.8304 7.4783 9.5206 11.448 5.2599zm45-1.7699c1.1111-1.1111 2-3.3333 2-5 0-2.0484 0.49372-3 1.5565-3 2.5567 0-1.4529-5.9422-5.2445-7.7724-2.8979-1.3988-3.4175-1.3884-5.7107 0.11412-3.5914 2.3531-5.1641 8.6693-3.1354 12.592 2.6948 5.2111 7.1054 6.4949 10.534 3.0661zm3.0801-24.081c-2.7847-2.3183-11.104-2.3911-11.857-0.10387-0.3258 0.98905 0.39846 1.1595 2.9218 0.68758 1.8452-0.34509 4.48-0.17787 5.855 0.3716 4.301 1.7188 5.7517 1.2688 3.0801-0.95531z" fill="#fefefd"/>
 <path d="m192.26 435.16c-6.1212-2.4862-7.6317-4.3916-7.85-9.9029-0.10377-2.6189-0.66823-8.5867-1.2544-13.262s-1.3395-11.064-1.6742-14.199l-0.60855-5.6986-4.4706-0.67041c-2.4588-0.36872-5.3997-1.4228-6.5353-2.3423-1.9528-1.5813-1.9821-1.8696-0.54017-5.3206l1.5245-3.6487-3.6737-2.804c-2.0205-1.5422-5.0032-2.8714-6.6281-2.9538-6.4729-0.32817-8.5264-8.1654-3.9185-14.955 1.4449-2.1292 3.7236-7.6535 5.0638-12.276l2.4366-8.4048-3.0072-3.1134c-1.654-1.7124-3.9639-5.1384-5.1332-7.6134l-2.126-4.5 0.52231 5.25c0.28728 2.8875 0.12805 5.25-0.35384 5.25-1.8394 0-7.2084-5.4253-9.2783-9.3758-1.4917-2.8469-2.1747-5.9824-2.2054-10.124-0.0399-5.3881 0.56743-7.213 5.9548-17.894 5.7546-11.409 5.9935-12.184 5.859-19-0.0771-3.9084-1.1053-12.048-2.2849-18.088-5.218-26.718-0.30673-46.43 15.888-63.772 10.938-11.712 23.195-17.153 37.537-16.662 3.85 0.13174 9.025-0.33553 11.5-1.0384 5.9586-1.6921 17.027-0.80931 23.894 1.9058 12.282 4.8557 22.775 14.085 28.585 25.14 4.2381 8.0651 6.1116 16.076 6.9801 29.846 0.39427 6.2509 1.6376 13.817 3.0996 18.862 4.2399 14.631 3.0948 22.035-5.2313 33.826-2.3791 3.3692-5.0147 7.7751-5.857 9.791-1.4413 3.4494-1.3824 4.1371 0.99989 11.678 3.501 11.083 2.4931 15.178-5.6812 23.085l-5.8721 5.6803 3.0345 6.3197c1.669 3.4758 4.5002 8.271 6.2916 10.656 4.418 5.8818 4.5986 12.183 0.45127 15.75-1.771 1.5234-4.0542 2.4134-6.191 2.4134-1.8619 0-3.6228 0.3845-3.9133 0.85444s0.6955 3.2009 2.191 6.0688l2.719 5.2143-4.2844 3.8477c-2.6482 2.3782-6.1182 4.3176-9.086 5.0783l-4.8016 1.2306-2.7735 12.806-2.7735 12.806 2.1096 2.6819c2.5116 3.193 2.7589 8.6284 0.47866 10.521-3.7734 3.1316-18.373 0.29682-22.071-4.2856-0.58724-0.7277-1.3894-7.9198-1.7825-15.982-0.67583-13.86-0.83208-14.691-2.8654-15.236-1.1828-0.31733-2.6614-0.58312-3.2857-0.59063-0.65793-8e-3 -2.1056 5.0236-3.4438 11.969l-2.3087 11.983 2.1938 3.9034c1.2066 2.1469 2.1938 4.8291 2.1938 5.9606 0 4.9473-9.4167 6.7173-17.744 3.3351zm14.564-3.919c0.39348-2.771-1.5927-3.6627-5.1477-2.3111-1.6324 0.62062-2.6724 0.64763-2.6724 0.0694 0-0.52066 1.4625-1.4066 3.25-1.9688 3.1796-0.99997 3.1579-1.0135-1-0.62375-4.8558 0.45517-5.7964-1.152-1.2109-2.0691 3.5985-0.71971 3.4097-2.711-0.29892-3.1521-1.8514-0.22023-2.9431 0.32059-3.7715 1.8684-0.98085 1.8327-1.7849 2.0954-5.0672 1.6551-3.5342-0.47404-3.9014-0.31154-3.9014 1.7266 0 4.4017 6.3343 7.5705 14.5 7.2538 4.3567-0.16898 5.0412-0.48398 5.3201-2.4484zm31.598 1.1475c0.86999-0.33384 1.5818-1.7427 1.5818-3.1308 0-2.3259-0.27448-2.4793-3.5-1.9559-3.9758 0.64518-4.5923-0.42907-1.25-2.1781 2.0687-1.0826 1.9882-1.1372-1-0.67782-3.8674 0.5945-4.2389-0.12393-0.75-1.4504 3.0841-1.1726 3.211-2.6396 0.30815-3.5609-1.6702-0.53009-2.7021-0.0557-4.3356 1.9929-1.7058 2.1392-2.6766 2.5549-4.7513 2.0341-3.3566-0.84247-4.6703 0.0125-3.9938 2.5992 1.1481 4.3904 12.323 8.3874 17.691 6.3276zm-44.188-11.959c1.6052-2.0406 2.7417-2.5036 5.5519-2.2615l3.5336 0.30443 2.2212-10.832 2.2212-10.832-7.7002 0.68162c-5.989 0.53015-8.5518 0.32577-11.533-0.91974-2.1079-0.88074-4.0103-1.4236-4.2275-1.2065-0.35909 0.3591 2.5786 24.927 3.015 25.214 0.9335 0.61333 4.2642 2.3636 4.5431 2.3874 0.19584 0.0167 1.2643-1.1242 2.3744-2.5355zm32.77-1.4341c0.81558-1.5239 2.0938-2 5.3699-2h4.2995l2.171-9.75c2.9272-13.146 2.9102-13.343-1.0904-12.581-1.7875 0.34065-4.8962 1.4425-6.9082 2.4485-2.012 1.006-5.472 2.1192-7.6889 2.4737l-4.0307 0.64453 0.47284 5.132c1.0987 11.924 1.4832 14.063 2.6627 14.812 2.0655 1.3117 3.615 0.92605 4.7423-1.1804zm3.1507-24.49c3.9024-1.8167 7.0506-2.4929 11.639-2.5 6.6758-0.0104 12.144-2.0648 15.565-5.8484 1.8122-2.0039 1.8003-2.151-0.51337-6.3453-1.3027-2.3616-3.1797-4.45-4.171-4.6409-0.99128-0.1909-4.2838 0.90843-7.3168 2.443-5.7143 2.8912-8.2472 3.1435-18.592 1.8524-4.5032-0.56202-6.2711-0.36689-8.2148 0.90669-3.2028 2.0986-12.257 2.1228-17.446 0.0467-3.635-1.4544-4.1409-1.444-6.5503 0.13468-2.1562 1.4128-4.2522 1.625-12.033 1.218l-9.4216-0.49281-1.01 2.8974c-0.91024 2.6111-0.76035 2.9924 1.5167 3.8581 1.3897 0.52837 3.3342 0.96068 4.3209 0.96068s4.3231 1.3495 7.4141 2.999c6.0719 3.2402 9.1562 3.6899 17.662 2.5755 3.9512-0.5177 6.6264-0.2975 9.5 0.782 5.9861 2.2487 11.578 1.9805 17.651-0.84668zm-37.22-15.775c3.3651-1.7102 6.5994-8.6998 8.6012-18.588 1.5108-7.4626 1.5295-8.5144 0.17555-9.8683-2.0653-2.0653-3.1866-1.1462-8.3628 6.8554-5.267 8.142-8.1627 10.291-14.015 10.401-2.9879 0.0562-4.7472 0.65363-5.6797 1.9288-0.8795 1.2028-2.0882 1.6547-3.4637 1.295-1.2574-0.32883-2.6282 0.0685-3.3858 0.98141-1.064 1.2821-0.88564 1.7987 1.0865 3.1468 6.344 4.3364 19.965 6.4293 25.044 3.8481zm22.606-2.4853c0.94755-5.6653 1.2975-6.1437 1.3845-1.893 0.0632 3.0891 0.39388 3.7361 1.6607 3.25 0.86998-0.33385 4.0595-0.60699 7.0879-0.60699h5.5061l-1.1537-8.5 1.8247 5c1.0379 2.844 2.5367 5.1383 3.4759 5.3208 0.90816 0.17645 4.3705-1.061 7.6942-2.75s7.042-3.0777 8.263-3.0861c4.7263-0.0326 5.2079-1.4544 2.0758-6.1286-2.6914-4.0165-3.2951-4.3802-7.7433-4.6652-3.305-0.21177-5.3627 0.17814-6.534 1.2381-2.6698 2.4161-7.7304 2.9739-13.791 1.5201-4.9433-1.1859-5.8788-1.1464-8.5021 0.35921-3.2844 1.885-7.407 2.1663-11.111 0.7582-2.3267-0.88462-2.5703-0.61833-4.649 5.0828-1.2065 3.309-2.0434 6.1424-1.8598 6.2966 1.3222 1.11 7.1168 2.4094 11.039 2.4752 4.6769 0.0785 4.7084 0.0568 5.3319-3.671zm-50.94-6.7561c1.8514-1.8514 3.1458-2.3456 4.9545-1.8916 2.3614 0.59268 2.4484 0.4308 2.4484-4.5554 0-4.5444 1.0481-7.1891 8.6627-21.858 4.7645-9.1786 9.4766-17.865 10.471-19.303 1.7927-2.5911 1.7791-2.6558-1.5339-7.3156-1.8384-2.5858-4.2536-5.3395-5.3671-6.1194-1.8189-1.274-2.173-1.1912-3.4866 0.81563-4.5779 6.9939-11.655 24.006-16.179 38.889-1.4469 4.7605-3.5437 9.816-4.6594 11.234-2.5821 3.2826-3.584 9.0907-1.915 11.102 1.7947 2.1624 3.7374 1.869 6.604-0.99765zm101.57-1.1489c3.2719-2.961 1.6118-9.3109-4.1426-15.845-0.96873-1.1-4.1066-7.625-6.9731-14.5-10.936-26.229-19.692-41.763-22.154-39.302-0.47522 0.47522-1.1478 2.2826-1.4945 4.0165-0.51513 2.5756-0.13418 3.6488 2.0819 5.8649 2.0775 2.0775 2.903 2.404 3.5267 1.3949 0.57495-0.93029 1.2765-0.21137 2.3868 2.446 3.6793 8.8058 3.956 11.032 2.1032 16.922-2.5616 8.1439-1.6042 11.326 5.9755 19.864 5.1815 5.8361 6.2923 7.6771 5.8797 9.7445-0.74949 3.7552 4.7406 11.049 8.3167 11.049 1.4657 0 3.4879-0.74474 4.4937-1.655zm-5.0565-3.9772c-1.1631-0.8147-2.1148-2.1308-2.1148-2.9246 0-1.8856 0.92183-1.824 3.1713 0.21169 1.7179 1.5547 1.8287 1.5244 1.8287-0.5 0-1.1852 0.45-2.155 1-2.155 1.5351 0 1.1867 5.7144-0.3852 6.3176-0.76186 0.29236-2.3369-0.13502-3.5-0.94971zm-75.28-1.1179c2.1111-1.7969 11.422-15.326 10.904-15.844-0.77102-0.77101-16.179-0.5901-16.452 0.19317-0.1728 0.4957-1.5838 3.5504-3.1356 6.7882-1.6201 3.3804-2.6291 6.8931-2.3697 8.25 0.3909 2.0449 1.027 2.363 4.7244 2.363 2.6193 0 5.0682-0.67719 6.3286-1.75zm28.559 0.16821c0.33385-0.86998 0.63862-3.0075 0.67728-4.75 0.0386-1.7425 0.48115-4.0682 0.98332-5.1682 0.61418-1.3454 0.72616-0.19019 0.34209 3.5291l-0.57094 5.5291 4.3376 0.10637c2.3857 0.0585 6.5876 0.40283 9.3376 0.76517 7.4857 0.98631 8.4513-0.11758 5.7323-6.5532-2.7776-6.5743-2.0891-7.6935 0.92119-1.4974 2.187 4.5016 2.3641 4.6209 6.8546 4.6209 2.5353 0 5.473-0.63135 6.5283-1.403 2.0496-1.4987 2.5513-0.75359-8.9451-13.287-0.84198-0.91791-2.4623-0.86435-7.0913 0.23438-3.3 0.78328-10.536 1.4312-16.081 1.4398-11.721 0.0182-11.849 0.12391-12.952 10.684-0.61664 5.903-0.54363 6.188 1.6944 6.6138 5.0398 0.95893 7.6367 0.68623 8.2318-0.86442zm-4.236-24.151c7.038-10.43 15.038-26.113 18.41-36.091 2.3836-7.0527 2.5932-8.4626 1.3729-9.2347-2.2771-1.4408-2.3602-1.33-4.7368 6.3081-3.1962 10.273-11.095 26.283-18.225 36.943-4.4457 6.6464-5.7553 9.3264-4.8354 9.8949 1.8074 1.1171 2.3209 0.61594 8.0141-7.821zm24.074 4.6705c3.6412-0.98046 3.7694-1.1661 3.7694-5.4574 0-4.037-0.25099-4.4961-2.75-5.0308-1.5125-0.32362-4.565-1.2322-6.7834-2.019-7.4768-2.652-8.6837-2.1667-13.82 5.5574-2.5557 3.8434-4.6467 7.1854-4.6467 7.4267 0 1.7521 17.211 1.4134 24.231-0.4768zm-47.008-1.6879c1.474-1.683 3.475-11.25 2.353-11.25-0.53987 0-6.5757 11.448-6.5757 12.471 0 1.2107 2.8025 0.40005 4.2227-1.2215zm16.13-3.3862c1.4894-2.2749 2.561-4.2833 2.3813-4.463-0.17973-0.17972-3.3024 0.1663-6.9392 0.76895-5.8263 0.96544-6.668 1.3864-7.0799 3.541-0.34713 1.8159 0.0798 2.6663 1.6588 3.3039 4.7461 1.9165 7.1604 1.1542 9.979-3.1508zm-34.407-12.114c1.8367-4.5375 5.1247-11.284 7.3065-14.993l3.967-6.743-3.2541-3.7062c-3.854-4.3894-6.6185-10.286-7.5482-16.1-0.959-5.9973 0.98632-5.3035 2.4088 0.85904 1.4436 6.2538 5.0418 11.51 13.645 19.933 7.7083 7.5468 9.9978 10.969 11.037 16.5l0.75177 4 2.357-5c4.3598-9.2484 2.4286-19.37-5.7597-30.188-2.7867-3.6818-6.2398-9.086-7.6736-12.009l-2.6068-5.3152-4.6459 0.6163c-9.3098 1.235-16.202-4.108-19.054-14.772-2.4814-9.2775 4.0389-18.604 12.164-17.4 11.365 1.6845 50.22-29.674 53.637-43.289 0.63385-2.5255-1.8036-7.7079-4.6145-9.8112-0.85872-0.64253-1.2227-1.5068-0.80893-1.9206 1.1585-1.1585 5.6411 3.5702 7.6424 8.0619 2.4885 5.5853 8.8666 11.624 19.667 18.62 13.44 8.7063 22.52 19.092 22.403 25.624-0.0302 1.6935-0.0979 1.6951-1.3602 0.0321-0.73064-0.9625-1.6163-1.75-1.9682-1.75-1.1418 0-0.67977 7.3062 0.99597 15.748 1.5408 7.7621 1.5336 8.5198-0.12208 12.855-0.96765 2.5338-2.9809 6.022-4.4738 7.7517-2.743 3.178-7.4397 15.179-8.481 21.672-0.31112 1.9397 0.11087 6.1242 0.93775 9.2988 1.934 7.4252 1.9158 14.976-0.0452 18.769-1.2986 2.5112-1.3469 3.5528-0.29911 6.4503 0.68725 1.9006 1.621 3.4556 2.075 3.4556 0.45399 0 2.8048-1.9794 5.2242-4.3987 6.7514-6.7514 7.2344-10.183 3.2006-22.742-2.0878-6.5003-0.97016-10.261 6.348-21.359 8.9047-13.504 9.2234-15.914 4.298-32.5-1.7092-5.7556-2.7838-12.536-3.3284-21-0.44233-6.875-1.5091-14.448-2.3705-16.829-5.1843-14.329-14.199-24.487-27.383-30.855-8.4364-4.0749-10.311-4.2392-35.716-3.1301-17.695 0.77246-29.896 6.821-40.375 20.016-11.969 15.071-16.648 33.504-13.275 52.299 4.3169 24.056 4.3486 24.349 3.2098 29.711-0.61769 2.9089-3.4664 9.9345-6.3305 15.612-4.5308 8.9822-5.1974 11.063-5.1301 16.013 0.0592 4.3565 0.70399 6.6824 2.7518 9.9264 1.471 2.3302 2.8226 4.2368 3.0036 4.2368s0.36021-2.0599 0.39827-4.5776c0.07289-4.8211 1.8834-10.422 3.3689-10.422 0.48327 0 0.87868 1.0535 0.87868 2.3411 0 5.8456 6.0803 18.659 8.8542 18.659 0.41382 0 2.2552-3.7125 4.0919-8.25zm34.018 6.1643c4.9245-1.0561 5.171-1.2812 9.036-8.25 2.1854-3.9403 3.9793-7.6468 3.9866-8.2366 7e-3 -0.5898-1.8417-2.2868-4.1088-3.7712-4.872-3.1898-6.3896-2.5067-7.3739 3.3193-0.82259 4.8689-6.4418 14.389-8.7563 14.834-1.436 0.27655-1.7478-0.40049-1.7478-3.7958 0-2.5002-0.39496-3.8882-1-3.5143-0.55 0.33992-1 2.8415-1 5.559 0 4.805 0.0812 4.941 2.9508 4.941 1.6229 0 5.229-0.48858 8.0134-1.0857zm36.425-5.0136c1.319-5.3371-0.0673-10.797-3.5727-14.072-3.9102-3.6526-5.1542-3.5642-8.3239 0.59151-2.4038 3.1515-2.5454 3.8717-1.8009 9.1607 0.78771 5.5962 0.90835 5.7717 4.808 6.9928 6.2192 1.9474 7.8703 1.4508 8.8896-2.6732zm14.98-6.1507c1.0189-3.802 0.67741-9.986-0.86971-15.75-2.0132-7.5003-1.8591-10.363 0.99266-18.445 1.3478-3.8198 2.3164-7.0792 2.1525-7.2431-0.16391-0.16391-2.1709 0.60685-4.4599 1.7128-4.9693 2.4009-13.714 4.7302-21.553 5.7406-3.1353 0.40416-5.6852 1.1848-5.6665 1.7348 0.0333 0.97718 0.40345 1.119 3.5896 1.375 0.85555 0.0688 4.4316 3.0011 7.9469 6.5163 5.0336 5.0336 7.4116 8.5354 11.194 16.485 2.6417 5.5513 5.0881 10.1 5.4365 10.109 0.34835 8e-3 0.90471-0.99708 1.2363-2.2346zm-33.442-16.718c3.4623-8.9779 3.5684-9.7941 1.6096-12.379-0.76973-1.016-1.1821-2.4138-0.91638-3.1062 0.33422-0.87095-1.1511-1.4584-4.8187-1.906-2.916-0.35581-6.2891-0.91639-7.4958-1.2458-1.8022-0.4919-2.4533 0.0219-3.6465 2.8775-1.3402 3.2076-1.2609 4.0672 1.027 11.122 2.0708 6.3859 3.0809 8.0547 6.1286 10.126 2.007 1.3638 3.9619 2.4796 4.3443 2.4796s2.0779-3.5855 3.7679-7.9677zm-16.815-5.0033c-1.0664-3.0091-2.4997-5.658-3.1851-5.8864-0.87225-0.29075-1.0064 0.15065-0.44704 1.4711 0.43952 1.0376 1.484 3.9114 2.3212 6.3864s1.7534 5.175 2.0362 6c0.38446 1.1217 0.60233 0.99561 0.86391-0.5 0.19238-1.1-0.52272-4.462-1.5891-7.4711zm-1.0358-11.731c0.5078-1.3356 0.92328-2.5692 0.92328-2.7414 0-0.17214-2.7096-1.3263-6.0212-2.5648-3.3117-1.2385-6.2632-2.6434-6.559-3.1219-0.29578-0.47857-1.013-0.87013-1.5938-0.87013-1.2036 0 1.1143 3.8188 5.5286 9.1085 3.4095 4.0856 6.2147 4.1545 7.7221 0.18968zm34.715-4.8505c14.342-2.8884 23.353-8.8873 26.718-17.786 1.7683-4.6773 1.769-5.0715 0.0201-11.814-1.3333-5.1406-1.6593-8.9573-1.2394-14.509l0.56977-7.5337-3.9003-4.2313c-2.1451-2.3272-7.8513-6.8774-12.68-10.111-4.829-3.2341-11.077-8.039-13.884-10.678l-5.1039-4.7974-3.8054 5.7313c-2.093 3.1522-6.2087 8.1347-9.1461 11.072s-5.3407 5.4839-5.3407 5.6589c0 0.17498 0.9 0.5535 2 0.84116 3.678 0.96183 2.1068 2.7102-2.4356 2.7102-3.8263 0-5.5778 0.8216-12.75 5.9808-4.5729 3.2894-10.7 7.1197-13.616 8.5116-3.3537 1.6009-5.0416 2.9519-4.5936 3.6767 0.50103 0.81069 4e-3 0.92306-1.6982 0.38413-6.3976-2.0253-8.3227-1.7918-11.349 1.3767-2.4238 2.538-2.9423 3.9308-2.9423 7.9038 0 10.72 10.568 19.349 18.499 15.105 1.637-0.87607 2.6109-0.50948 5.5856 2.1024 11.071 9.7207 32.662 14.118 51.092 10.406zm-14.441-9.5402c-1.7316-0.50164-4.5819-2.5447-6.3339-4.5402-4.776-5.4396-3.3463-6.1332 13.469-6.534 12.662-0.30183 14.018-0.16829 14.322 1.4108 0.48748 2.5305-3.2313 7.254-7.1898 9.1325-3.7152 1.763-9.2969 1.9706-14.267 0.53084zm15.898-4.7109c1.5125-1.414 2.75-2.9367 2.75-3.3838s-5.6625-0.81291-12.583-0.81291c-13.381 0-14.358 0.46169-9.1684 4.336 5.3853 4.0207 14.624 3.953 19.002-0.13935zm-68.891-5.7044c-0.31821-0.82925 0.20544-2.7043 1.1637-4.1667 1.6632-2.5384 1.6595-2.7194-0.0812-3.9923-1.0028-0.73332-2.4124-1.3333-3.1322-1.3333s-1.3089-0.45-1.3089-1c0-1.553 3.797-1.1791 6.5863 0.6485 2.4374 1.597 5.4137 6.1612 5.4137 8.3018 0 1.9448-2.7615 1.0696-3.3161-1.051-0.71249-2.7246-2.6839-1.5055-2.6839 1.6596 0 2.694-1.731 3.3056-2.6413 0.93326zm30.947-7.7423c-1.1237-1.2375-2.3628-3.5955-2.7536-5.24-0.39078-1.6445-1.2321-3.3124-1.8697-3.7064-0.77662-0.47997-0.0257-1.8858 2.2754-4.26 5.8837-6.0705 11.56-4.5216 13.583 3.7064 0.88124 3.5842 0.0349 6.755-2.541 9.5199-2.6567 2.8516-6.0939 2.8438-8.6942-0.0199zm46.444-0.83011c-0.96251-0.56061-2.4404-2.3543-3.2841-3.986-2.0286-3.9229-0.45591-10.239 3.1354-12.592 2.2932-1.5026 2.8128-1.513 5.7107-0.11412 3.7917 1.8302 7.8012 7.7724 5.2445 7.7724-1.0628 0-1.5565 0.95157-1.5565 3 0 5.2718-4.9374 8.4317-9.25 5.9199zm7.25-24.046c-1.375-0.54947-4.0098-0.71669-5.855-0.3716-2.5234 0.47191-3.2476 0.30147-2.9218-0.68758 0.75344-2.2873 9.0723-2.2144 11.857 0.10387 2.6716 2.2241 1.2209 2.6741-3.0801 0.95531z" fill="#6d4f38"/>
</svg>
